<?xml version="1.0" encoding="UTF-8" standalone="no"?>
<!-- Created with Inkscape (http://www.inkscape.org/) -->

<svg
   width="36mm"
   height="36mm"
   viewBox="0 0 36 36"
   version="1.1"
   id="svg1"
   inkscape:version="1.3 (0e150ed6c4, 2023-07-21)"
   sodipodi:docname="favicon.svg"
   xml:space="preserve"
   xmlns:inkscape="http://www.inkscape.org/namespaces/inkscape"
   xmlns:sodipodi="http://sodipodi.sourceforge.net/DTD/sodipodi-0.dtd"
   xmlns="http://www.w3.org/2000/svg"
   xmlns:svg="http://www.w3.org/2000/svg"><sodipodi:namedview
     id="namedview1"
     pagecolor="#ffffff"
     bordercolor="#000000"
     borderopacity="0.25"
     inkscape:showpageshadow="2"
     inkscape:pageopacity="0.0"
     inkscape:pagecheckerboard="0"
     inkscape:deskcolor="#d1d1d1"
     inkscape:document-units="mm"
     inkscape:zoom="1.0078851"
     inkscape:cx="-151.80302"
     inkscape:cy="-0.9921766"
     inkscape:window-width="1920"
     inkscape:window-height="1009"
     inkscape:window-x="-8"
     inkscape:window-y="-8"
     inkscape:window-maximized="1"
     inkscape:current-layer="g8" /><defs
     id="defs1" /><g
     inkscape:label="Layer 1"
     inkscape:groupmode="layer"
     id="layer1"
     transform="translate(-72.0225,-41.58)"><g
       transform="matrix(0.14254029,0,0,0.14254029,72.545043,52.452935)"
       id="g8"
       style="fill:#000000;stroke-width:4.51100527;stroke-dasharray:none"><rect
         style="fill:#2666c5;stroke-width:0;stroke-dasharray:none;stroke:#dc2626;stroke-linecap:round;stroke-linejoin:round;paint-order:markers fill stroke;fill-opacity:1"
         id="rect1"
         width="252.56017"
         height="252.56017"
         x="-3.6659319"
         y="-76.279732"
         inkscape:label="rect1" /><svg
         viewBox="0 0 244.43136 106.46692"
         height="106.46692"
         width="244.43137"
         version="1.1"
         id="svg7"
         style="fill:#ffffff;stroke-width:1.70478126;stroke-dasharray:none"><g
           id="g7"
           style="fill:#ffffff;stroke-width:1.70478126;stroke-dasharray:none"><svg
             version="1.1"
             x="0"
             y="0"
             viewBox="9.6919947 32.443714 80.614601 35.113285"
             enable-background="new 0 0 100 100"
             xml:space="preserve"
             height="106.46692"
             width="244.43137"
             class="icon-icon-0"
             data-fill-palette-color="accent"
             id="icon-0"
             style="fill:#ffffff;stroke-width:0.56224479;stroke-dasharray:none"><path
               fill="#000000"
               d="m 90.229,63.861 -2.896,-4.58 C 87.236,59.127 87.069,59.047 86.881,59.049 L 63.189,60.446 56.461,43.674 c 0,0 0,0 0,-10e-4 l -0.002,-0.004 c -0.023,-0.059 -0.066,-0.104 -0.108,-0.148 -0.014,-0.016 -0.02,-0.037 -0.036,-0.05 L 56.314,43.47 v 0 L 43.988,33.232 C 43.974,33.22 43.955,33.218 43.94,33.208 43.904,33.184 43.867,33.164 43.824,33.149 43.795,33.139 43.767,33.134 43.737,33.13 43.716,33.127 43.697,33.117 43.675,33.117 L 29.8,32.915 c -0.011,0 -0.02,0.004 -0.03,0.004 -0.021,0.001 -0.039,0.005 -0.06,0.008 -0.192,0.023 -0.329,0.146 -0.385,0.318 -0.002,0.006 -0.007,0.011 -0.009,0.017 l -0.321,1.006 -2.312,-1.706 v 0 l -0.03,-0.022 c -0.01,-0.008 -0.024,-0.008 -0.035,-0.015 -0.046,-0.029 -0.096,-0.051 -0.151,-0.063 -0.027,-0.006 -0.053,-0.008 -0.081,-0.01 -0.023,-10e-4 -0.044,-0.01 -0.069,-0.008 l -16.165,1.28 c -0.26,0.021 -0.46,0.238 -0.46,0.499 v 6.466 c 0,0.067 0.014,0.134 0.04,0.196 l 1.448,3.401 c 0.032,0.075 0.085,0.135 0.147,0.186 0.015,0.012 0.029,0.019 0.045,0.029 0.029,0.019 0.054,0.043 0.087,0.056 l 10.144,3.932 1.645,3.796 -0.258,0.81 -6.019,2.006 c -0.211,0.07 -0.35,0.271 -0.341,0.494 0.009,0.222 0.164,0.412 0.38,0.465 l 5.186,1.279 c 0.04,0.01 0.08,0.014 0.119,0.015 0,0 10e-4,0 10e-4,0 v 0 c 0,0 0,0 0,0 0,0 0.001,0 0.001,0 0.04,0 0.081,-0.004 0.121,-0.015 l 6.355,-1.605 4.207,-0.255 6.439,5.064 -5.833,6.137 c -0.142,0.149 -0.178,0.37 -0.091,0.556 0.082,0.177 0.259,0.289 0.453,0.289 0.01,0 0.02,0 0.03,-0.001 l 18.917,-1.146 12.326,1.146 c 0.007,0 0.013,-0.003 0.02,-0.003 0.009,0.001 0.016,0.005 0.025,0.005 5.649,0.022 9.454,0.031 12.021,0.031 5.213,0 5.317,-0.035 5.383,-0.057 0.206,-0.068 6.119,-2.433 7.302,-2.906 0.138,-0.055 0.244,-0.169 0.29,-0.311 0.046,-0.142 0.027,-0.296 -0.053,-0.422 z m -3.584,-3.796 0.846,1.337 -23.197,1.799 -0.712,-1.776 z m -64.993,-12.63 -8.418,-3.263 3.759,-1.033 5.062,-0.657 0.926,0.353 z m 1.607,-5.566 -0.966,-0.368 c -0.077,-0.029 -0.161,-0.039 -0.242,-0.028 l -5.009,0.655 -3.503,-7.668 12.139,-0.961 z m -12.566,-7.184 1.785,-0.141 3.573,7.82 -4.121,1.128 -1.237,-2.906 z m 11.818,13.379 4.129,-14.292 2.036,1.503 -4.964,15.561 z m 0.104,6.209 -0.633,1.983 -3.055,-0.754 z m 6.49,-17.054 -0.871,17.625 -5.168,1.305 z m 1.165,-3.297 12.601,0.184 -10.03,20.381 -3.598,0.218 z M 33.789,54.826 43.837,34.408 55.264,43.899 40.133,59.815 Z M 55.288,45.324 52.524,65.406 35.207,66.45 Z m -1.759,20.112 2.704,-19.644 8.288,20.66 z m 28.938,1.094 c -0.493,0.044 -10.212,0.023 -16.839,-0.003 l -0.943,-2.353 23.411,-1.815 0.967,1.529 c -2.772,1.108 -6.491,2.593 -6.596,2.642 z"
               data-fill-palette-color="accent"
               id="path6"
               style="fill:#ffffff;stroke-width:0.56224479;stroke-dasharray:none" /></svg></g></svg></g></g></svg>
