<?xml version="1.0" encoding="utf-8"?>
<!-- Generator: Adobe Illustrator 25.2.0, SVG Export Plug-In . SVG Version: 6.00 Build 0)  -->
<svg version="1.1" id="Layer_1" xmlns="http://www.w3.org/2000/svg" xmlns:xlink="http://www.w3.org/1999/xlink" x="0px" y="0px"
	 viewBox="0 0 750.09 200" style="enable-background:new 0 0 750.09 200;" xml:space="preserve">
<style type="text/css">
	.st0{fill:#FFFFFF;}
	.st1{clip-path:url(#SVGID_2_);}
	.st2{clip-path:url(#SVGID_4_);}
	.st3{clip-path:url(#SVGID_6_);}
	.st4{clip-path:url(#SVGID_8_);}
	.st5{clip-path:url(#SVGID_10_);}
</style>
<g>
	<rect class="st0" width="750.09" height="200"/>
	<g>
		<defs>
			<rect id="SVGID_1_" x="25.77" y="33.06" width="418.57" height="85.98"/>
		</defs>
		<clipPath id="SVGID_2_">
			<use xlink:href="#SVGID_1_"  style="overflow:visible;"/>
		</clipPath>
		<path class="st1" d="M52.29,73.97H36.07l-0.09-11.1h13.11c3.41,0,5.8-0.52,7.18-1.56c1.38-1.03,2.06-2.59,2.06-4.67
			c0-2.45-0.71-4.2-2.15-5.23c-1.43-1.04-3.75-1.56-6.97-1.56h-6.93v50.55H25.8V36.56h23.42c8.01,0,14.27,1.47,18.78,4.42
			c4.52,2.93,6.79,7.4,6.79,13.4c0,2.6-0.56,5.06-1.67,7.38c-1.11,2.32-2.99,4.2-5.64,5.64c-2.65,1.43-6.28,2.12-10.9,2.1
			L52.29,73.97z M51.68,100.41H32.09l5.6-13.23h13.99c2.95,0,5-0.62,6.18-1.85c1.18-1.22,1.76-2.64,1.76-4.25
			c0-1.49-0.24-2.75-0.72-3.81c-0.49-1.05-1.27-1.87-2.34-2.44c-1.07-0.56-2.49-0.84-4.27-0.84H39.15l0.09-11.1h15.52l3.86,4.53
			c4.41-0.3,7.87,0.23,10.4,1.6c2.54,1.35,4.34,3.15,5.41,5.39c1.07,2.24,1.6,4.56,1.6,6.95c0,6.35-2.05,11.11-6.14,14.3
			C65.78,98.81,59.71,100.41,51.68,100.41L51.68,100.41z M107.66,87.66V69.23c0-1.75-0.37-3.15-1.11-4.18
			c-0.74-1.04-2.02-1.56-3.84-1.56c-0.96,0-1.77,0.15-2.43,0.45c-0.66,0.28-1.15,0.75-1.49,1.4c-0.34,0.65-0.5,1.51-0.5,2.59H82.5
			c0-3.1,0.86-5.84,2.59-8.21c1.72-2.36,4.17-4.22,7.33-5.59c3.15-1.35,6.86-2.03,11.13-2.03c3.8,0,7.2,0.63,10.22,1.9
			c3,1.27,5.39,3.18,7.15,5.75c1.75,2.55,2.62,5.74,2.62,9.57v18.73c0,3.41,0.19,5.89,0.56,7.45c0.36,1.54,0.86,2.91,1.51,4.11v0.79
			h-15.79c-0.73-1.54-1.27-3.44-1.62-5.69C107.84,92.46,107.66,90.11,107.66,87.66L107.66,87.66z M109.54,71.24l0.09,8.6h-6.09
			c-2.49,0-4.17,0.67-5.05,2.01c-0.87,1.35-1.31,2.77-1.31,4.25c0,1.08,0.4,1.95,1.2,2.61c0.8,0.66,1.8,0.99,3,0.99
			c1.5,0,2.76-0.27,3.79-0.81c1.04-0.54,1.82-1.17,2.35-1.9c0.53-0.73,0.75-1.37,0.67-1.92l3.38,6.61
			c-0.59,1.14-1.24,2.27-1.96,3.39c-0.72,1.12-1.61,2.15-2.66,3.09c-1.05,0.95-2.34,1.7-3.86,2.27c-1.52,0.57-3.36,0.86-5.51,0.86
			c-2.9,0-5.58-0.6-8.05-1.8c-2.46-1.2-4.44-2.88-5.94-5.04c-1.5-2.17-2.24-4.68-2.24-7.54c0-4.89,1.8-8.72,5.41-11.5
			c3.59-2.78,9.23-4.16,16.91-4.16H109.54z M147.08,65.64v34.77h-15.79V52.96h14.73L147.08,65.64z M160.76,52.62l-0.27,15.43
			c-0.61-0.06-1.44-0.13-2.48-0.22c-1.04-0.08-1.88-0.12-2.51-0.12c-2.23,0-4.04,0.28-5.43,0.84c-1.39,0.57-2.39,1.46-3,2.66
			c-0.61,1.2-0.9,2.78-0.88,4.74l-2.77-2.37c0-4.3,0.55-8.06,1.63-11.29c1.08-3.23,2.61-5.74,4.58-7.53
			c1.97-1.77,4.29-2.66,6.95-2.66c0.73,0,1.46,0.03,2.21,0.1C159.54,52.28,160.2,52.41,160.76,52.62L160.76,52.62z M181.45,65.64
			v34.77h-15.78V52.96h14.73L181.45,65.64z M195.11,52.62l-0.25,15.43c-0.61-0.06-1.44-0.13-2.48-0.22
			c-1.04-0.08-1.89-0.12-2.53-0.12c-2.21,0-4.02,0.28-5.4,0.84c-1.39,0.57-2.39,1.46-3,2.66c-0.62,1.2-0.92,2.78-0.88,4.74
			l-2.77-2.37c0-4.3,0.53-8.06,1.61-11.29c1.09-3.23,2.62-5.74,4.6-7.53c1.96-1.77,4.27-2.66,6.93-2.66c0.74,0,1.48,0.03,2.23,0.1
			C193.92,52.28,194.56,52.41,195.11,52.62L195.11,52.62z M224.44,87.66V69.23c0-1.75-0.37-3.15-1.11-4.18
			c-0.74-1.04-2.02-1.56-3.82-1.56c-0.97,0-1.79,0.15-2.44,0.45c-0.66,0.28-1.16,0.75-1.49,1.4c-0.34,0.65-0.5,1.51-0.5,2.59h-15.79
			c0-3.1,0.86-5.84,2.59-8.21c1.72-2.36,4.17-4.22,7.33-5.59c3.16-1.35,6.87-2.03,11.13-2.03c3.8,0,7.2,0.63,10.22,1.9
			c3,1.27,5.39,3.18,7.15,5.75c1.75,2.55,2.62,5.74,2.62,9.57v18.73c0,3.41,0.19,5.89,0.56,7.45c0.36,1.54,0.86,2.91,1.51,4.11v0.79
			H226.6c-0.73-1.54-1.27-3.44-1.62-5.69C224.62,92.46,224.44,90.11,224.44,87.66L224.44,87.66z M226.33,71.24l0.09,8.6h-6.09
			c-2.49,0-4.17,0.67-5.05,2.01c-0.87,1.35-1.31,2.77-1.31,4.25c0,1.08,0.4,1.95,1.2,2.61c0.8,0.66,1.8,0.99,3,0.99
			c1.5,0,2.77-0.27,3.8-0.81c1.03-0.54,1.81-1.17,2.34-1.9c0.53-0.73,0.75-1.37,0.66-1.92l3.38,6.61c-0.59,1.14-1.24,2.27-1.96,3.39
			c-0.72,1.12-1.61,2.15-2.66,3.09c-1.04,0.95-2.32,1.7-3.84,2.27c-1.52,0.57-3.36,0.86-5.53,0.86c-2.9,0-5.58-0.6-8.05-1.8
			c-2.46-1.2-4.45-2.88-5.95-5.04c-1.48-2.17-2.23-4.68-2.23-7.54c0-4.89,1.8-8.72,5.39-11.5c3.59-2.78,9.23-4.16,16.91-4.16H226.33
			z M277.58,52.96h14.35v45.38c0,4.44-1.04,8.21-3.11,11.3c-2.06,3.08-4.95,5.42-8.66,7.02c-3.71,1.59-8.02,2.39-12.93,2.39
			c-2.11,0-4.28-0.26-6.52-0.79c-2.23-0.53-4.33-1.3-6.31-2.34c-1.98-1.02-3.62-2.26-4.94-3.72l6.57-9.79
			c1.11,1.15,2.57,2.18,4.36,3.09c1.81,0.92,3.91,1.38,6.3,1.38c3.04,0,5.36-0.77,6.95-2.3c1.59-1.53,2.39-3.68,2.39-6.43v-33.8
			L277.58,52.96z M246.24,77.26v-0.92c0-4.8,0.79-9.02,2.36-12.66c1.58-3.64,3.84-6.48,6.78-8.53c2.93-2.04,6.42-3.05,10.45-3.05
			c3.3,0,6,0.64,8.08,1.94c2.09,1.31,3.77,3.11,5.01,5.43c1.23,2.31,2.2,4.99,2.89,8.04c0.68,3.05,1.27,6.34,1.78,9.84v-0.52
			c-0.67,4.32-1.66,8.34-2.98,12.07c-1.32,3.72-3.17,6.72-5.55,9c-2.38,2.26-5.49,3.39-9.32,3.39c-4,0-7.46-1.05-10.4-3.14
			c-2.92-2.09-5.17-4.94-6.75-8.57C247.03,85.95,246.24,81.84,246.24,77.26L246.24,77.26z M262.07,76.34v0.92
			c0,2.13,0.29,4.05,0.86,5.77c0.56,1.71,1.41,3.06,2.55,4.06c1.15,0.99,2.6,1.49,4.35,1.49c2.02,0,3.65-0.42,4.87-1.27
			c1.23-0.85,2.11-2.08,2.64-3.68c0.53-1.6,0.71-3.53,0.56-5.78v-1.49c0.1-2.02,0-3.77-0.29-5.22c-0.27-1.46-0.74-2.65-1.4-3.57
			c-0.66-0.92-1.5-1.61-2.53-2.07c-1.04-0.44-2.29-0.66-3.75-0.66c-1.7,0-3.13,0.5-4.29,1.49c-1.17,1-2.06,2.35-2.66,4.08
			C262.36,72.1,262.07,74.09,262.07,76.34L262.07,76.34z M316.43,52.96v47.45h-15.82V52.96H316.43z M299.72,40.94
			c0-2.34,0.8-4.23,2.41-5.7c1.6-1.46,3.69-2.19,6.27-2.19c2.61,0,4.71,0.73,6.3,2.19c1.59,1.46,2.39,3.36,2.39,5.7
			c0,2.31-0.8,4.21-2.39,5.69c-1.59,1.47-3.7,2.21-6.3,2.21c-2.58,0-4.66-0.74-6.27-2.21C300.53,45.15,299.72,43.25,299.72,40.94
			L299.72,40.94z M349.49,86.87c0-0.73-0.26-1.33-0.77-1.8c-0.52-0.48-1.41-0.93-2.69-1.35c-1.29-0.42-3.11-0.88-5.44-1.38
			c-3.04-0.67-5.83-1.63-8.37-2.88c-2.55-1.24-4.57-2.86-6.07-4.85c-1.51-1.99-2.26-4.38-2.26-7.18c0-2.72,0.77-5.24,2.32-7.58
			c1.56-2.35,3.81-4.23,6.75-5.64c2.96-1.41,6.54-2.12,10.74-2.12c4.33,0,8.07,0.65,11.22,1.96c3.16,1.32,5.6,3.15,7.31,5.5
			c1.71,2.33,2.57,5.06,2.57,8.19H349c0-1.72-0.39-2.98-1.19-3.77c-0.79-0.79-2.18-1.19-4.16-1.19c-0.82,0-1.6,0.15-2.35,0.45
			c-0.74,0.29-1.34,0.71-1.8,1.26c-0.46,0.56-0.68,1.27-0.68,2.12c0,0.73,0.28,1.38,0.83,1.94c0.54,0.57,1.34,1.07,2.42,1.47
			c1.08,0.41,2.46,0.74,4.13,1.01c3.12,0.52,6.09,1.32,8.91,2.37c2.82,1.05,5.13,2.6,6.91,4.65s2.68,4.84,2.68,8.37
			c0,2.81-0.86,5.34-2.57,7.59c-1.71,2.25-4.15,4.02-7.31,5.32c-3.15,1.3-6.87,1.96-11.17,1.96c-4.62,0-8.51-0.83-11.68-2.5
			c-3.15-1.66-5.54-3.77-7.16-6.3c-1.62-2.52-2.43-5.05-2.43-7.59h14.73c0.06,1.26,0.38,2.3,0.95,3.12
			c0.56,0.84,1.36,1.46,2.39,1.88c1.02,0.43,2.23,0.65,3.63,0.65c1.2,0,2.19-0.15,2.98-0.45c0.79-0.29,1.39-0.71,1.8-1.27
			C349.28,88.27,349.49,87.62,349.49,86.87L349.49,86.87z M396.88,52.96v11.4h-29.17v-11.4H396.88z M373.5,41.18h15.79v42.87
			c0,1.11,0.13,1.98,0.4,2.62c0.26,0.62,0.73,1.07,1.42,1.33c0.69,0.27,1.64,0.4,2.84,0.4c0.81,0,1.5-0.01,2.06-0.03
			c0.55-0.04,1.06-0.09,1.53-0.18l-0.04,11.75c-1.35,0.46-2.71,0.81-4.08,1.04c-1.38,0.22-2.88,0.32-4.52,0.32
			c-3.27,0-6.05-0.52-8.35-1.56c-2.3-1.04-4.05-2.66-5.25-4.87c-1.2-2.2-1.79-5.05-1.79-8.53V41.18z M426.37,87.66V69.23
			c0-1.75-0.37-3.15-1.11-4.18c-0.75-1.04-2.02-1.56-3.84-1.56c-0.96,0-1.76,0.15-2.42,0.45c-0.66,0.28-1.16,0.75-1.49,1.4
			c-0.33,0.65-0.5,1.51-0.5,2.59h-15.78c0-3.1,0.86-5.84,2.59-8.21c1.72-2.36,4.16-4.22,7.32-5.59c3.15-1.35,6.86-2.03,11.14-2.03
			c3.79,0,7.2,0.63,10.22,1.9c3,1.27,5.39,3.18,7.14,5.75c1.75,2.55,2.62,5.74,2.62,9.57v18.73c0,3.41,0.18,5.89,0.55,7.45
			c0.36,1.54,0.86,2.91,1.51,4.11v0.79h-15.79c-0.73-1.54-1.27-3.44-1.62-5.69C426.55,92.46,426.37,90.11,426.37,87.66L426.37,87.66
			z M428.25,71.24l0.09,8.6h-6.09c-2.49,0-4.17,0.67-5.05,2.01c-0.88,1.35-1.31,2.77-1.31,4.25c0,1.08,0.4,1.95,1.2,2.61
			c0.8,0.66,1.8,0.99,3,0.99c1.5,0,2.76-0.27,3.79-0.81c1.04-0.54,1.83-1.17,2.35-1.9c0.53-0.73,0.75-1.37,0.67-1.92l3.38,6.61
			c-0.59,1.14-1.24,2.27-1.96,3.39c-0.72,1.12-1.6,2.15-2.66,3.09c-1.05,0.95-2.34,1.7-3.86,2.27c-1.52,0.57-3.36,0.86-5.52,0.86
			c-2.89,0-5.58-0.6-8.04-1.8c-2.47-1.2-4.45-2.88-5.95-5.04c-1.48-2.17-2.23-4.68-2.23-7.54c0-4.89,1.8-8.72,5.39-11.5
			c3.59-2.78,9.23-4.16,16.92-4.16H428.25z M428.25,71.24"/>
	</g>
	<path d="M211,164.36v-10.31c0-1.19-0.35-2.15-1.06-2.86c-0.71-0.71-1.75-1.06-3.14-1.06c-0.85,0-1.6,0.15-2.25,0.44
		c-0.65,0.3-1.15,0.69-1.51,1.17c-0.36,0.48-0.54,1.01-0.54,1.57h-3.46c0-0.96,0.33-1.9,0.99-2.8c0.65-0.9,1.57-1.65,2.77-2.23
		c1.19-0.59,2.59-0.88,4.21-0.88c1.46,0,2.75,0.25,3.87,0.74c1.12,0.49,2,1.24,2.64,2.23c0.64,1,0.96,2.24,0.96,3.73v9.34
		c0,0.67,0.05,1.38,0.17,2.13c0.12,0.75,0.29,1.4,0.53,1.94v0.3h-3.61c-0.18-0.39-0.31-0.92-0.41-1.59
		C211.05,165.54,211,164.93,211,164.36L211,164.36z M211.6,155.63l0.03,2.41h-3.45c-1.94,0-3.45,0.31-4.51,0.92
		c-1.06,0.62-1.59,1.54-1.59,2.78c0,0.97,0.32,1.78,0.97,2.44c0.65,0.67,1.59,1,2.84,1c1.05,0,1.97-0.22,2.77-0.67
		c0.8-0.44,1.43-0.99,1.91-1.65c0.47-0.65,0.72-1.28,0.76-1.89l1.49,1.65c-0.09,0.52-0.32,1.09-0.7,1.72
		c-0.39,0.63-0.89,1.23-1.53,1.8c-0.63,0.57-1.38,1.05-2.25,1.43c-0.87,0.38-1.85,0.57-2.93,0.57c-1.36,0-2.55-0.26-3.56-0.79
		c-1.02-0.52-1.81-1.24-2.38-2.14c-0.56-0.9-0.84-1.9-0.84-3c0-2.17,0.82-3.8,2.44-4.92c1.63-1.12,3.82-1.68,6.57-1.68H211.6z
		 M223.59,139.35v28.43h-3.46v-28.43H223.59z M232.81,139.35v28.43h-3.47v-28.43H232.81z M259.47,164.36v-10.31
		c0-1.19-0.35-2.15-1.06-2.86c-0.71-0.71-1.76-1.06-3.14-1.06c-0.85,0-1.6,0.15-2.25,0.44c-0.65,0.3-1.15,0.69-1.51,1.17
		c-0.36,0.48-0.54,1.01-0.54,1.57h-3.46c0-0.96,0.33-1.9,0.98-2.8c0.65-0.9,1.58-1.65,2.77-2.23c1.19-0.59,2.59-0.88,4.21-0.88
		c1.46,0,2.75,0.25,3.87,0.74c1.13,0.49,2.01,1.24,2.64,2.23c0.64,1,0.95,2.24,0.95,3.73v9.34c0,0.67,0.06,1.38,0.18,2.13
		c0.12,0.75,0.29,1.4,0.53,1.94v0.3h-3.61c-0.17-0.39-0.31-0.92-0.41-1.59C259.52,165.54,259.47,164.93,259.47,164.36L259.47,164.36
		z M260.07,155.63l0.03,2.41h-3.44c-1.95,0-3.45,0.31-4.51,0.92c-1.06,0.62-1.59,1.54-1.59,2.78c0,0.97,0.32,1.78,0.97,2.44
		c0.65,0.67,1.59,1,2.84,1c1.05,0,1.97-0.22,2.77-0.67c0.8-0.44,1.44-0.99,1.91-1.65c0.47-0.65,0.72-1.28,0.76-1.89l1.48,1.65
		c-0.09,0.52-0.32,1.09-0.7,1.72c-0.39,0.63-0.89,1.23-1.53,1.8c-0.64,0.57-1.39,1.05-2.26,1.43c-0.87,0.38-1.85,0.57-2.93,0.57
		c-1.36,0-2.55-0.26-3.57-0.79c-1.02-0.52-1.81-1.24-2.37-2.14c-0.56-0.9-0.84-1.9-0.84-3c0-2.17,0.82-3.8,2.44-4.92
		c1.63-1.12,3.82-1.68,6.57-1.68H260.07z M268.31,139.35h3.46v24.54l-0.3,3.89h-3.16V139.35z M285.29,157.6v0.39
		c0,1.95-0.3,3.69-0.91,5.23c-0.61,1.53-1.49,2.73-2.64,3.62c-1.16,0.88-2.57,1.32-4.23,1.32c-1.7,0-3.12-0.39-4.25-1.16
		c-1.14-0.77-2.02-1.86-2.65-3.27c-0.62-1.41-1.04-3.09-1.23-5.03v-1.8c0.2-1.96,0.61-3.65,1.23-5.07c0.63-1.42,1.51-2.52,2.64-3.29
		c1.13-0.76,2.54-1.15,4.23-1.15c1.68,0,3.1,0.43,4.26,1.27c1.16,0.85,2.04,2.04,2.64,3.58
		C284.98,153.77,285.29,155.56,285.29,157.6L285.29,157.6z M281.82,157.98v-0.39c0-1.33-0.17-2.55-0.5-3.67
		c-0.34-1.12-0.88-2.01-1.64-2.68c-0.76-0.66-1.78-1-3.08-1c-0.85,0-1.6,0.15-2.23,0.45c-0.63,0.29-1.17,0.69-1.62,1.19
		c-0.45,0.5-0.8,1.07-1.08,1.71c-0.28,0.63-0.49,1.29-0.62,1.97v4.5c0.2,0.86,0.52,1.7,0.96,2.49c0.45,0.8,1.05,1.45,1.8,1.96
		c0.76,0.5,1.7,0.76,2.82,0.76c1.24,0,2.24-0.33,3-1c0.76-0.66,1.31-1.54,1.66-2.64C281.65,160.53,281.82,159.32,281.82,157.98
		L281.82,157.98z M288.71,157.98v-0.42c0-1.93,0.37-3.67,1.11-5.2c0.74-1.53,1.79-2.74,3.15-3.63c1.36-0.9,2.97-1.34,4.84-1.34
		c1.89,0,3.51,0.45,4.88,1.34c1.37,0.89,2.42,2.1,3.16,3.63c0.74,1.53,1.11,3.27,1.11,5.2v0.42c0,1.93-0.37,3.66-1.11,5.2
		c-0.73,1.54-1.79,2.75-3.15,3.64c-1.36,0.89-2.98,1.33-4.85,1.33c-1.88,0-3.5-0.45-4.86-1.33c-1.36-0.89-2.42-2.1-3.16-3.64
		C289.08,161.64,288.71,159.91,288.71,157.98L288.71,157.98z M292.17,157.56v0.42c0,1.32,0.21,2.55,0.63,3.67
		c0.42,1.12,1.05,2.02,1.88,2.7c0.84,0.68,1.89,1.02,3.16,1.02c1.26,0,2.3-0.34,3.13-1.02c0.84-0.68,1.46-1.58,1.88-2.7
		c0.42-1.12,0.63-2.35,0.63-3.67v-0.42c0-1.32-0.21-2.54-0.63-3.66c-0.42-1.12-1.05-2.03-1.89-2.71c-0.84-0.68-1.89-1.02-3.16-1.02
		c-1.25,0-2.29,0.34-3.13,1.02c-0.84,0.69-1.46,1.59-1.88,2.71C292.37,155.02,292.17,156.24,292.17,157.56L292.17,157.56z
		 M323.49,163.16v-15.41h3.46v20.03h-3.3L323.49,163.16z M324.14,158.93l1.44-0.04c0,1.78-0.25,3.37-0.76,4.76
		c-0.5,1.39-1.33,2.49-2.48,3.29c-1.15,0.8-2.69,1.2-4.61,1.2c-1.96,0-3.55-0.58-4.76-1.74c-1.21-1.16-1.81-3.07-1.81-5.74v-12.92
		h3.46v12.96c0,1.21,0.18,2.15,0.52,2.81c0.36,0.66,0.81,1.12,1.38,1.38c0.56,0.25,1.15,0.38,1.77,0.38c1.46,0,2.61-0.28,3.46-0.84
		c0.85-0.56,1.46-1.32,1.83-2.29C323.95,161.17,324.14,160.11,324.14,158.93L324.14,158.93z M340.56,147.75v2.61H329.7v-2.61H340.56
		z M333.35,142.88h3.46v19.94c0,0.69,0.1,1.2,0.31,1.56c0.21,0.34,0.48,0.57,0.82,0.68c0.33,0.11,0.69,0.17,1.07,0.17
		c0.29,0,0.59-0.03,0.9-0.08c0.31-0.05,0.54-0.09,0.69-0.13l0.02,2.76c-0.27,0.09-0.63,0.17-1.07,0.25
		c-0.43,0.08-0.96,0.12-1.59,0.12c-0.84,0-1.61-0.16-2.31-0.5c-0.7-0.33-1.26-0.89-1.68-1.68c-0.42-0.78-0.63-1.84-0.63-3.18V142.88
		z M366.56,163.89v-24.54h3.46v28.43h-3.16L366.56,163.89z M353.11,157.98v-0.39c0-2.04,0.33-3.83,0.98-5.36
		c0.66-1.54,1.59-2.73,2.77-3.58c1.19-0.85,2.58-1.27,4.17-1.27c1.68,0,3.08,0.39,4.2,1.15c1.12,0.77,2,1.87,2.64,3.29
		c0.63,1.41,1.04,3.1,1.23,5.07v1.8c-0.19,1.94-0.59,3.62-1.22,5.03c-0.63,1.41-1.51,2.51-2.64,3.27c-1.13,0.77-2.54,1.16-4.25,1.16
		c-1.57,0-2.95-0.44-4.13-1.32c-1.18-0.88-2.11-2.09-2.77-3.62C353.43,161.68,353.11,159.94,353.11,157.98L353.11,157.98z
		 M356.56,157.6v0.39c0,1.34,0.18,2.55,0.55,3.65c0.36,1.1,0.93,1.98,1.71,2.64c0.78,0.66,1.78,1,3.02,1c1.14,0,2.07-0.24,2.8-0.72
		c0.73-0.48,1.32-1.12,1.77-1.91c0.45-0.79,0.79-1.65,1.04-2.57v-4.5c-0.15-0.68-0.37-1.34-0.64-1.97c-0.27-0.64-0.63-1.2-1.07-1.71
		c-0.44-0.5-0.98-0.9-1.62-1.19c-0.63-0.3-1.38-0.45-2.24-0.45c-1.25,0-2.27,0.34-3.05,1c-0.78,0.67-1.36,1.56-1.72,2.68
		C356.75,155.05,356.56,156.27,356.56,157.6L356.56,157.6z M387.15,164.36v-10.31c0-1.19-0.36-2.15-1.06-2.86
		c-0.71-0.71-1.76-1.06-3.14-1.06c-0.85,0-1.6,0.15-2.25,0.44c-0.65,0.3-1.15,0.69-1.51,1.17c-0.36,0.48-0.54,1.01-0.54,1.57h-3.46
		c0-0.96,0.32-1.9,0.98-2.8c0.66-0.9,1.58-1.65,2.77-2.23c1.19-0.59,2.6-0.88,4.21-0.88c1.46,0,2.75,0.25,3.87,0.74
		c1.12,0.49,2,1.24,2.64,2.23c0.64,1,0.96,2.24,0.96,3.73v9.34c0,0.67,0.06,1.38,0.17,2.13c0.11,0.75,0.29,1.4,0.52,1.94v0.3h-3.61
		c-0.17-0.39-0.31-0.92-0.4-1.59C387.2,165.54,387.15,164.93,387.15,164.36L387.15,164.36z M387.74,155.63l0.04,2.41h-3.44
		c-1.95,0-3.46,0.31-4.52,0.92c-1.06,0.62-1.59,1.54-1.59,2.78c0,0.97,0.33,1.78,0.98,2.44c0.65,0.67,1.59,1,2.84,1
		c1.05,0,1.98-0.22,2.78-0.67c0.8-0.44,1.44-0.99,1.91-1.65c0.47-0.65,0.72-1.28,0.76-1.89l1.48,1.65c-0.09,0.52-0.32,1.09-0.7,1.72
		c-0.38,0.63-0.89,1.23-1.53,1.8c-0.64,0.57-1.39,1.05-2.26,1.43c-0.87,0.38-1.85,0.57-2.94,0.57c-1.35,0-2.54-0.26-3.56-0.79
		c-1.02-0.52-1.8-1.24-2.37-2.14c-0.56-0.9-0.84-1.9-0.84-3c0-2.17,0.81-3.8,2.44-4.92c1.63-1.12,3.82-1.68,6.57-1.68H387.74z
		 M399.42,151.73v16.05h-3.46v-20.03h3.28L399.42,151.73z M398.72,156.99l-1.61-0.06c0.01-1.82,0.33-3.45,0.94-4.89
		c0.61-1.44,1.51-2.58,2.71-3.41c1.21-0.83,2.71-1.25,4.5-1.25c1.88,0,3.42,0.55,4.64,1.65c1.22,1.09,1.84,2.9,1.84,5.41v13.34
		h-3.46V154.6c0-1.05-0.18-1.9-0.52-2.53c-0.36-0.63-0.85-1.09-1.49-1.39c-0.64-0.29-1.39-0.43-2.25-0.43c-1,0-1.84,0.18-2.51,0.54
		c-0.68,0.36-1.21,0.85-1.62,1.48c-0.4,0.63-0.7,1.35-0.88,2.16C398.81,155.23,398.72,156.09,398.72,156.99L398.72,156.99z
		 M411.69,155.1l-2.31,0.7c0.01-1.46,0.32-2.82,0.93-4.11c0.61-1.28,1.51-2.32,2.69-3.12c1.19-0.79,2.63-1.19,4.34-1.19
		c1.43,0,2.65,0.25,3.65,0.76c1,0.51,1.75,1.29,2.28,2.35c0.52,1.06,0.78,2.44,0.78,4.12v13.16h-3.47v-13.2c0-1.12-0.17-2-0.53-2.62
		c-0.35-0.63-0.84-1.07-1.48-1.33c-0.64-0.25-1.39-0.38-2.25-0.38c-0.75,0-1.41,0.13-1.98,0.39c-0.57,0.26-1.05,0.62-1.44,1.07
		s-0.69,0.96-0.9,1.54C411.79,153.83,411.69,154.44,411.69,155.1L411.69,155.1z M440.87,162.46c0-0.49-0.11-0.95-0.32-1.38
		c-0.22-0.43-0.65-0.81-1.3-1.16c-0.66-0.36-1.65-0.67-2.97-0.94c-1.48-0.31-2.77-0.7-3.85-1.17c-1.07-0.47-1.91-1.08-2.49-1.82
		c-0.59-0.75-0.88-1.66-0.88-2.76c0-1.06,0.3-2.03,0.92-2.91c0.61-0.89,1.47-1.6,2.59-2.13c1.12-0.54,2.42-0.8,3.91-0.8
		c1.6,0,2.98,0.28,4.12,0.84c1.15,0.56,2.02,1.31,2.62,2.26c0.6,0.94,0.9,1.98,0.9,3.13h-3.46c0-0.82-0.36-1.61-1.09-2.35
		c-0.72-0.74-1.76-1.11-3.1-1.11c-0.94,0-1.7,0.15-2.29,0.43c-0.59,0.3-1.01,0.67-1.27,1.12c-0.27,0.45-0.4,0.92-0.4,1.41
		c0,0.5,0.12,0.93,0.37,1.29c0.25,0.36,0.7,0.69,1.36,0.97c0.66,0.28,1.62,0.57,2.88,0.86c1.65,0.37,3,0.81,4.06,1.33
		c1.06,0.52,1.85,1.16,2.37,1.91c0.52,0.75,0.77,1.67,0.77,2.76c0,1.16-0.32,2.18-0.96,3.08c-0.65,0.89-1.54,1.59-2.7,2.09
		c-1.16,0.5-2.53,0.75-4.1,0.75c-1.76,0-3.26-0.32-4.48-0.95c-1.22-0.63-2.14-1.44-2.77-2.44c-0.63-0.99-0.94-2.04-0.94-3.15h3.46
		c0.06,0.94,0.34,1.68,0.83,2.23c0.48,0.55,1.08,0.94,1.8,1.17c0.71,0.23,1.41,0.36,2.11,0.36c0.94,0,1.73-0.13,2.36-0.38
		c0.64-0.25,1.12-0.6,1.45-1.04C440.7,163.52,440.87,163.02,440.87,162.46L440.87,162.46z M440.87,162.46"/>
	<g>
		<defs>
			<rect id="SVGID_3_" x="464.64" y="44.27" width="258.68" height="112.67"/>
		</defs>
		<clipPath id="SVGID_4_">
			<use xlink:href="#SVGID_3_"  style="overflow:visible;"/>
		</clipPath>
		<path class="st2" d="M723.07,145.08l-9.29-14.69c-0.31-0.49-0.85-0.75-1.45-0.74l-76.02,4.48l-21.59-53.82c0,0,0,0,0,0l0-0.02
			c-0.07-0.19-0.22-0.33-0.35-0.47c-0.05-0.05-0.06-0.12-0.12-0.16v0L574.69,46.8c-0.04-0.04-0.11-0.05-0.15-0.08
			c-0.12-0.08-0.23-0.14-0.37-0.19c-0.09-0.03-0.18-0.05-0.28-0.06c-0.07-0.01-0.13-0.04-0.2-0.04l-44.52-0.65
			c-0.04,0-0.06,0.02-0.09,0.02c-0.07,0-0.12,0.02-0.2,0.02c-0.61,0.08-1.05,0.47-1.23,1.02c-0.01,0.02-0.02,0.04-0.03,0.05
			l-1.03,3.23l-7.42-5.48l-0.1-0.07c-0.03-0.02-0.08-0.02-0.11-0.05c-0.14-0.09-0.3-0.16-0.48-0.2c-0.09-0.02-0.17-0.02-0.26-0.03
			c-0.07,0-0.14-0.03-0.22-0.02l-51.87,4.11c-0.83,0.07-1.48,0.77-1.48,1.6v20.75c0,0.22,0.05,0.43,0.13,0.63l4.65,10.91
			c0.1,0.24,0.27,0.43,0.47,0.6c0.05,0.04,0.09,0.06,0.14,0.09c0.09,0.06,0.18,0.14,0.28,0.18l32.55,12.62l5.28,12.18l-0.83,2.6
			L488,116.97c-0.68,0.23-1.12,0.87-1.09,1.59c0.03,0.71,0.52,1.32,1.22,1.49l16.64,4.1c0.13,0.03,0.26,0.04,0.38,0.05h0
			c0.13,0,0.26-0.01,0.39-0.05l20.39-5.15l13.5-0.82l20.66,16.25l-18.72,19.69c-0.46,0.48-0.57,1.19-0.29,1.79
			c0.26,0.57,0.83,0.93,1.45,0.93c0.03,0,0.07,0,0.1,0l60.7-3.68l39.56,3.68c0.02,0,0.04-0.01,0.06-0.01c0.03,0,0.05,0.02,0.08,0.02
			c18.12,0.07,30.34,0.1,38.57,0.1c16.73,0,17.06-0.11,17.27-0.18c0.66-0.22,19.64-7.81,23.43-9.32c0.44-0.18,0.78-0.54,0.93-1
			C723.39,145.98,723.33,145.49,723.07,145.08L723.07,145.08z M503.02,92.37l-27.01-10.47l12.06-3.32l16.24-2.11l2.97,1.13
			L503.02,92.37z M508.18,74.52l-3.1-1.18c-0.25-0.09-0.52-0.13-0.78-0.09l-16.07,2.1l-11.24-24.61l38.95-3.09L508.18,74.52z
			 M467.86,51.46l5.73-0.45l11.47,25.09l-13.22,3.62l-3.97-9.32V51.46z M505.78,94.39l13.25-45.86l6.54,4.83l-15.93,49.93
			L505.78,94.39z M506.11,114.32l-2.03,6.36l-9.8-2.42L506.11,114.32z M526.93,59.59l-2.79,56.55l-16.58,4.19L526.93,59.59z
			 M530.67,49.02l40.44,0.59L538.92,115l-11.54,0.7L530.67,49.02z M541.97,116.09l32.24-65.52l36.67,30.45l-48.55,51.08
			L541.97,116.09z M610.95,85.6l-8.87,64.44l-55.57,3.35L610.95,85.6z M605.31,150.14l8.68-63.04l26.59,66.3L605.31,150.14z
			 M698.16,153.65c-1.58,0.14-32.76,0.07-54.03-0.01l-3.03-7.55l75.12-5.82l3.11,4.91C710.44,148.73,698.5,153.49,698.16,153.65
			L698.16,153.65z M698.16,153.65"/>
	</g>
</g>
</svg>
