<?xml version="1.0" encoding="UTF-8" standalone="no"?>
<svg
   version="1.1"
   width="1220"
   height="310"
   viewBox="0 0 1220 310"
   id="svg11"
   sodipodi:docname="logos.svg"
   inkscape:version="1.3 (0e150ed6c4, 2023-07-21)"
   xmlns:inkscape="http://www.inkscape.org/namespaces/inkscape"
   xmlns:sodipodi="http://sodipodi.sourceforge.net/DTD/sodipodi-0.dtd"
   xmlns="http://www.w3.org/2000/svg"
   xmlns:svg="http://www.w3.org/2000/svg">
  <defs
     id="defs11" />
  <sodipodi:namedview
     id="namedview11"
     pagecolor="#ffffff"
     bordercolor="#000000"
     borderopacity="0.25"
     inkscape:showpageshadow="2"
     inkscape:pageopacity="0.0"
     inkscape:pagecheckerboard="0"
     inkscape:deskcolor="#d1d1d1"
     inkscape:zoom="0.2615"
     inkscape:cx="-546.84513"
     inkscape:cy="149.13958"
     inkscape:window-width="1920"
     inkscape:window-height="1009"
     inkscape:window-x="-8"
     inkscape:window-y="-8"
     inkscape:window-maximized="1"
     inkscape:current-layer="svg11">
    <inkscape:page
       x="0"
       y="0"
       width="1220"
       height="310"
       id="page8"
       margin="0"
       bleed="0"
       inkscape:export-filename="logo-3lines.svg"
       inkscape:export-xdpi="96"
       inkscape:export-ydpi="96" />
  </sodipodi:namedview>
  <path
     d="M 191.51536,99.518945 V 81.619729 q 0,-3.10602 -1.8429,-4.96146 -1.8429,-1.8426 -5.4487,-1.8426 v 0 q -2.2107,0 -3.8958,0.76305 -1.698,0.77675 -2.6184,2.0269 -0.9353,1.26372 -0.9353,2.73755 v 0 h -6.0138 q 0,-2.51384 1.7104,-4.86955 1.6979,-2.35567 4.8037,-3.8826 3.0934,-1.52669 7.3041,-1.52669 v 0 q 3.7909,0 6.7117,1.27658 2.9231,1.28968 4.5809,3.86949 1.6578,2.59294 1.6578,6.4753 v 0 16.201486 q 0,1.73683 0.3026,3.697795 0.3025,1.96094 0.9229,3.36927 v 0 0.51336 h -6.2664 q -0.4603,-1.02672 -0.7103,-2.75044 -0.2625,-1.71083 -0.2625,-3.198225 z m 1.0402,-15.135246 0.05,4.18515 h -5.977 q -5.0656,0 -7.8288,1.60577 -2.7659,1.60533 -2.7659,4.817126 v 0 q 0,2.51357 1.6857,4.23754 1.6851,1.737535 4.9358,1.737535 v 0 q 2.7232,0 4.8161,-1.158225 2.0806,-1.15863 3.3035,-2.85592 1.225,-1.69796 1.3153,-3.27732 v 0 l 2.5805,2.8562 q -0.2225,1.35563 -1.2228,2.98739 -1.0002,1.644895 -2.6607,3.132035 -1.6455,1.50052 -3.9085,2.47429 -2.2629,0.98717 -5.0935,0.98717 v 0 q -3.5409,0 -6.1838,-1.36877 -2.6607,-1.36877 -4.1211,-3.71134 -1.4594,-2.342805 -1.4594,-5.198735 v 0 q 0,-5.632996 4.2384,-8.541316 4.251,-2.90858 11.4103,-2.90858 v 0 z m 20.8072,-28.26999 v 49.353901 h -6.0011 V 56.113709 Z m 16.0036,0 v 49.353901 h -6.0139 V 56.113709 Z m 46.2872,43.405236 V 81.619729 q 0,-3.10602 -1.8424,-4.96146 -1.843,-1.8426 -5.4488,-1.8426 v 0 q -2.2111,0 -3.8955,0.76305 -1.6979,0.77675 -2.6194,2.0269 -0.9343,1.26372 -0.9343,2.73755 v 0 h -6.0134 q 0,-2.51384 1.7103,-4.86955 1.6978,-2.35567 4.8032,-3.8826 3.0927,-1.52669 7.3042,-1.52669 v 0 q 3.7905,0 6.7125,1.27658 2.9345,1.28968 4.5799,3.86949 1.6583,2.59294 1.6583,6.4753 v 0 16.201486 q 0,1.73683 0.3027,3.697795 0.3026,1.96094 0.9214,3.36927 v 0 0.51336 h -6.2647 q -0.4477,-1.02672 -0.7108,-2.75044 -0.2632,-1.71083 -0.2632,-3.198225 z m 1.0395,-15.135246 0.052,4.18515 h -5.975 q -5.0668,0 -7.8306,1.60577 -2.7639,1.60533 -2.7639,4.817126 v 0 q 0,2.51357 1.6845,4.23754 1.6847,1.737535 4.9354,1.737535 v 0 q 2.7244,0 4.8169,-1.158225 2.0926,-1.15863 3.3038,-2.85592 1.2236,-1.69796 1.3156,-3.27732 v 0 l 2.5798,2.8562 q -0.2237,1.35563 -1.2241,2.98739 -1.0001,1.644895 -2.6454,3.132035 -1.6583,1.50052 -3.9219,2.47429 -2.2637,0.98717 -5.0932,0.98717 v 0 q -3.5403,0 -6.186,-1.36877 -2.6588,-1.36877 -4.119,-3.71134 -1.4602,-2.342805 -1.4602,-5.198735 v 0 q 0,-5.632996 4.2381,-8.541316 4.25,-2.90858 11.4096,-2.90858 v 0 z m 14.293,-28.26999 h 6.0015 v 42.602236 l -0.5133,6.751665 h -5.4882 z m 29.4675,31.67881 v 0.67127 q 0,5.080086 -1.5793,9.067786 -1.5793,3.987855 -4.5928,6.277595 -3.0271,2.30327 -7.3308,2.30327 v 0 q -4.4353,0 -7.3833,-2.01361 -2.9614,-2.0005 -4.6063,-5.685405 -1.6324,-3.6718 -2.1456,-8.725926 v 0 -3.11914 q 0.5132,-5.10651 2.1456,-8.79145 1.6449,-3.69847 4.5798,-5.71207 2.948,-2.00051 7.3438,-2.00051 v 0 q 4.3697,0 7.3968,2.21109 3.0135,2.21132 4.5928,6.2123 1.5793,4.00056 1.5793,9.3048 z m -6.0146,0.67127 v -0.67127 q 0,-3.46148 -0.8684,-6.37021 -0.8685,-2.9086 -2.843,-4.64542 -1.974,-1.73751 -5.3432,-1.73751 v 0 q -2.2241,0 -3.8825,0.77633 -1.6453,0.76346 -2.8035,2.06629 -1.158,1.30298 -1.8819,2.9614 -0.7239,1.64488 -1.0791,3.42169 v 0 7.80452 q 0.5134,2.250606 1.6714,4.316886 1.1581,2.07933 3.1322,3.39572 1.9744,1.316095 4.8959,1.316095 v 0 q 3.2247,0 5.1987,-1.724405 1.974,-1.71084 2.8824,-4.57988 0.921,-2.855906 0.921,-6.330236 z m 11.9506,0 v -0.73724 q 0,-5.04082 1.9216,-9.02825 1.9345,-3.97499 5.4617,-6.30428 3.5403,-2.32969 8.3968,-2.32969 v 0 q 4.909,0 8.4754,2.32969 3.5668,2.32929 5.4753,6.30428 1.9215,3.98743 1.9215,9.02825 v 0 0.73724 q 0,5.014136 -1.9215,9.015116 -1.9085,4.000995 -5.4618,6.317135 -3.5404,2.3164 -8.4233,2.3164 v 0 q -4.896,0 -8.4364,-2.3164 -3.5532,-2.31614 -5.4877,-6.317135 -1.9216,-4.00098 -1.9216,-9.015116 z m 6.0012,-0.73724 v 0.73724 q 0,3.44791 1.0924,6.369776 1.0922,2.92145 3.2638,4.68538 2.1716,1.776375 5.4883,1.776375 v 0 q 3.2772,0 5.4358,-1.776375 2.1711,-1.76393 3.2637,-4.68538 1.0925,-2.921866 1.0925,-6.369776 v 0 -0.73724 q 0,-3.43479 -1.0925,-6.3569 -1.0926,-2.92146 -3.2773,-4.71138 -2.1846,-1.77678 -5.4878,-1.77678 v 0 q -3.2511,0 -5.4358,1.77678 -2.1846,1.78992 -3.2636,4.71138 -1.0795,2.92211 -1.0795,6.3569 z m 54.3683,9.712826 V 70.696069 h 6.0146 v 34.771541 h -5.7249 z m 1.1321,-7.330706 2.5003,-0.0643 q 0,4.632456 -1.3161,8.264776 -1.3158,3.619385 -4.3038,5.711835 -2.9875,2.0927 -8.0016,2.0927 v 0 q -5.1067,0 -8.2652,-3.02708 -3.1456,-3.0135 -3.1456,-9.962625 v 0 -22.426406 h 6.0145 v 22.491926 q 0,3.15869 0.9085,4.86994 0.9209,1.72399 2.3817,2.381675 1.4613,0.65843 3.0667,0.65843 v 0 q 3.7904,0 6.0145,-1.460745 2.2112,-1.46115 3.1721,-3.975 0.974,-2.50028 0.974,-5.553896 z m 28.49364,-19.4126 v 4.54056 h -18.83364 v -4.54056 z m -12.5029,-8.44913 h 6.0146 v 34.613126 q 0,1.7899 0.5394,2.69842 0.5526,0.894945 1.4216,1.184185 0.8554,0.28966 1.8554,0.28966 v 0 q 0.737,0 1.5663,-0.13022 0.816,-0.11654 1.1977,-0.22369 v 0 l 0.04,4.79045 q -0.7109,0.22411 -1.856,0.43425 -1.1316,0.21058 -2.7504,0.21058 v 0 q -2.1846,0 -4.0141,-0.86853 -1.8294,-0.86828 -2.922,-2.90835 -1.092,-2.04002 -1.092,-5.514365 v 0 z M 461.514,98.715945 V 56.113709 h 6.0145 v 49.353901 h -5.4882 z M 438.16613,88.463789 v -0.67127 q 0,-5.30424 1.7112,-9.3048 1.724,-4.00098 4.8036,-6.2123 3.093,-2.21109 7.2387,-2.21109 v 0 q 4.3692,0 7.29127,2.00051 2.9214,2.0136 4.5798,5.71207 1.6453,3.68494 2.132,8.79145 v 0 3.11914 q -0.4867,5.054126 -2.1186,8.725926 -1.6453,3.684905 -4.5803,5.685405 -2.93497,2.01361 -7.37027,2.01361 v 0 q -4.0796,0 -7.1726,-2.30327 -3.0796,-2.28974 -4.8036,-6.277595 -1.7112,-3.9877 -1.7112,-9.067786 z m 6.0015,-0.67127 v 0.67127 q 0,3.47433 0.9475,6.330236 0.9479,2.86904 2.9745,4.57988 2.027,1.724405 5.2381,1.724405 v 0 q 2.9611,0 4.8696,-1.250595 1.90847,-1.25015 3.06647,-3.31616 1.1582,-2.05317 1.803,-4.461946 v 0 -7.80452 q -0.3947,-1.77681 -1.1186,-3.42169 -0.7109,-1.65842 -1.8555,-2.9614 -1.1451,-1.30283 -2.80337,-2.06629 -1.6453,-0.77633 -3.8955,-0.77633 v 0 q -3.2512,0 -5.2912,1.73751 -2.0396,1.73682 -2.9875,4.64542 -0.9475,2.90873 -0.9475,6.37021 z M 497.2463,99.518945 V 81.619729 q 0,-3.10602 -1.8425,-4.96146 -1.8559,-1.8426 -5.4487,-1.8426 v 0 q -2.2241,0 -3.909,0.76305 -1.6844,0.77675 -2.6189,2.0269 -0.9345,1.26372 -0.9345,2.73755 v 0 h -6.0015 q 0,-2.51384 1.6978,-4.86955 1.7109,-2.35567 4.8039,-3.8826 3.1057,-1.52669 7.3174,-1.52669 v 0 q 3.7905,0 6.7123,1.27658 2.9216,1.28968 4.5799,3.86949 1.6584,2.59294 1.6584,6.4753 v 0 16.201486 q 0,1.73683 0.3026,3.697795 0.3028,1.96094 0.9081,3.36927 v 0 0.51336 h -6.2648 q -0.4472,-1.02672 -0.6973,-2.75044 -0.2632,-1.71083 -0.2632,-3.198225 z m 1.0265,-15.135246 0.064,4.18515 h -5.975 q -5.0802,0 -7.8441,1.60577 -2.7633,1.60533 -2.7633,4.817126 v 0 q 0,2.51357 1.6973,4.23754 1.6848,1.737535 4.9226,1.737535 v 0 q 2.7373,0 4.8169,-1.158225 2.0926,-1.15863 3.3166,-2.85592 1.2237,-1.69796 1.3158,-3.27732 v 0 l 2.5668,2.8562 q -0.2241,1.35563 -1.2111,2.98739 -1,1.644895 -2.6584,3.132035 -1.6584,1.50052 -3.922,2.47429 -2.2636,0.98717 -5.0935,0.98717 v 0 q -3.527,0 -6.1857,-1.36877 -2.6454,-1.36877 -4.1062,-3.71134 -1.4608,-2.342805 -1.4608,-5.198735 v 0 q 0,-5.632996 4.2378,-8.541316 4.2381,-2.90858 11.4108,-2.90858 v 0 z m 20.268,-6.77808 v 27.861991 h -6.0016 V 70.696069 h 5.6859 z m -1.2107,9.13376 -2.8034,-0.10385 q 0.04,-4.75132 1.6318,-8.48864 1.5793,-3.75115 4.712,-5.92268 3.1456,-2.15865 7.8044,-2.15865 v 0 q 4.8825,0 8.0547,2.8562 3.1846,2.85589 3.1846,9.38357 v 0 23.163511 h -6.0146 V 82.594939 q 0,-2.73727 -0.9079,-4.39571 -0.9215,-1.6453 -2.5929,-2.40877 -1.6714,-0.74992 -3.9085,-0.74992 v 0 q -2.6063,0 -4.3568,0.9345 -1.7504,0.93448 -2.8164,2.56638 -1.0525,1.64476 -1.5262,3.75101 -0.4608,2.09243 -0.4608,4.44811 z m 22.5185,-3.27704 -4.014,1.21103 q 0.026,-3.79043 1.6188,-7.13369 1.5924,-3.32974 4.672,-5.40891 3.093,-2.06644 7.5282,-2.06644 v 0 q 3.7244,0 6.3303,1.31612 2.5929,1.31635 3.9485,4.08006 1.3552,2.76355 1.3552,7.15969 v 0 22.847411 H 555.273 V 82.554249 q 0,-2.92188 -0.9209,-4.5539 -0.908,-1.64488 -2.5663,-2.303 -1.6584,-0.65797 -3.909,-0.65797 v 0 q -1.948,0 -3.4483,0.67126 -1.4872,0.68438 -2.5003,1.8557 -1.0135,1.17108 -1.5532,2.67176 -0.5264,1.51337 -0.5264,3.22424 z m 50.6435,12.779556 v 0 q 0,-1.27684 -0.5657,-2.39523 -0.5658,-1.105786 -2.2638,-2.013606 -1.7108,-0.92139 -5.146,-1.63246 v 0 q -3.856,-0.80276 -6.6725,-2.04002 -2.8033,-1.23702 -4.3302,-3.15844 -1.5268,-1.93454 -1.5268,-4.79045 v 0 q 0,-2.76396 1.5929,-5.0537 1.5922,-2.30326 4.5008,-3.69846 2.9089,-1.3952 6.7914,-1.3952 v 0 q 4.1717,0 7.1462,1.46073 2.9745,1.4614 4.5538,3.92216 1.5663,2.44805 1.5663,5.43572 v 0 h -6.0015 q 0,-2.14552 -1.882,-4.08006 -1.882,-1.92139 -5.3828,-1.92139 v 0 q -2.4482,0 -3.975,0.75033 -1.5263,0.7632 -2.2106,1.93452 -0.6979,1.17108 -0.6979,2.44765 v 0 q 0,1.29011 0.6448,2.23772 0.6448,0.94738 2.3692,1.68418 1.7109,0.73748 4.9882,1.48739 v 0 q 4.277,0.96093 7.041,2.30327 2.764,1.35565 4.1196,3.31661 1.3422,1.960946 1.3422,4.790436 v 0 q 0,3.01411 -1.6714,5.343795 -1.6713,2.32926 -4.6853,3.63222 -3.0271,1.30283 -7.1071,1.30283 v 0 q -4.593,0 -7.7781,-1.64487 -3.1716,-1.63201 -4.8169,-4.22469 -1.632,-2.579815 -1.632,-5.475285 v 0 h 6.0012 q 0.1563,2.44808 1.4347,3.86953 1.2636,1.434745 3.1191,2.040035 1.8425,0.61816 3.672,0.61816 v 0 q 2.4481,0 4.093,-0.6577 1.6584,-0.657985 2.5138,-1.803045 0.8554,-1.1451 0.8554,-2.59268 z"
     opacity="1"
     fill="#000000"
     class="undefined-text-1"
     data-fill-palette-color="secondary"
     id="text-1-9"
     style="fill:#000000;stroke-width:1.31607" />
  <path
     fill="#000000"
     d="m 1205.4641,255.59743 -21.0177,-33.23944 c -0.704,-1.11766 -1.916,-1.69824 -3.2804,-1.68374 L 1009.2208,230.813 960.39221,109.08987 v -0.007 l -0.014,-0.029 c -0.1669,-0.42821 -0.479,-0.75479 -0.7839,-1.07414 -0.1014,-0.11608 -0.145,-0.2685 -0.2612,-0.36286 l -0.01,-0.007 v 0 l -89.4559,-74.301819 c -0.1015,-0.0871 -0.2395,-0.10167 -0.3484,-0.17424 -0.2612,-0.17426 -0.5298,-0.31933 -0.8419,-0.42819 -0.2103,-0.0726 -0.4136,-0.10886 -0.6313,-0.13787 -0.1525,-0.0216 -0.2904,-0.0943 -0.45,-0.0943 l -100.6982,-1.466 c -0.08,0 -0.145,0.029 -0.2178,0.029 -0.1524,0.007 -0.283,0.0364 -0.4354,0.0582 -1.3935,0.16684 -2.3878,1.05961 -2.7942,2.3079 -0.014,0.0436 -0.051,0.0797 -0.065,0.12327 l -2.3296,7.30106 -16.7794,-12.38133 v 0 l -0.2178,-0.15964 c -0.073,-0.0582 -0.1743,-0.0582 -0.2541,-0.10898 -0.3338,-0.21038 -0.6967,-0.37014 -1.0958,-0.45724 -0.1961,-0.0436 -0.3847,-0.0579 -0.5879,-0.0725 -0.1668,-0.007 -0.3193,-0.0726 -0.5008,-0.0582 l -117.3178,9.28962 c -1.8869,0.15247 -3.3384,1.72729 -3.3384,3.62151 v 46.927131 c 0,0.48626 0.1015,0.97251 0.2903,1.42248 l 10.5089,24.682828 c 0.2321,0.54432 0.6169,0.97976 1.0668,1.3499 0.1089,0.0872 0.2104,0.13787 0.3266,0.2104 0.2104,0.13787 0.3919,0.31207 0.6314,0.40642 l 73.6203,28.53658 11.9386,27.54955 -1.8724,5.87859 -43.683,14.55859 c -1.5314,0.50804 -2.5402,1.96679 -2.4748,3.5852 0.065,1.61118 1.1902,2.99012 2.7578,3.37476 l 37.6375,9.28236 c 0.2903,0.0726 0.5806,0.10167 0.8637,0.10886 h 0.01 v 0 0 h 0.01 c 0.2903,0 0.5878,-0.029 0.8781,-0.10886 l 46.1216,-11.64831 30.5324,-1.85067 46.7311,36.75207 -42.3331,44.53942 c -1.0305,1.08137 -1.2918,2.68528 -0.6604,4.03517 0.5951,1.28461 1.8797,2.09744 3.2876,2.09744 0.073,0 0.1453,0 0.2178,-0.007 l 137.2906,-8.31711 89.45619,8.31711 c 0.051,0 0.094,-0.0215 0.145,-0.0215 0.065,0.007 0.1161,0.0364 0.1815,0.0364 40.9977,0.15965 68.6126,0.22499 87.2426,0.22499 37.8335,0 38.5883,-0.254 39.0673,-0.41368 1.495,-0.49349 44.4087,-17.65754 52.9944,-21.09036 1.0015,-0.39914 1.7708,-1.22652 2.1046,-2.25709 0.3339,-1.03058 0.1961,-2.14822 -0.3846,-3.06266 z m -26.0109,-27.54954 6.1399,9.70331 -168.3528,13.05628 -5.1673,-12.88938 z m -471.68809,-91.66248 -61.0938,-23.68131 27.281,-7.49703 36.7376,-4.7682 6.7204,2.56194 z m 11.6628,-40.395378 -7.0107,-2.67076 c -0.5589,-0.21039 -1.1685,-0.28306 -1.7564,-0.20321 l -36.3529,4.75366 -25.423,-55.650661 88.099,-6.97449 z m -91.198,-52.138031 12.9547,-1.02332 25.9311,56.753831 -29.9082,8.186458 -8.9776,-21.090328 z m 85.7694,97.098389 14.9832,-51.862248 14.9831,-51.862271 14.7763,10.90807 -36.0263,112.934279 z m 0.7548,45.06194 -4.594,14.39167 -22.1717,-5.47218 z m 47.1013,-123.769779 -6.3213,127.913819 -37.5069,9.47108 z m 8.455,-23.92804 91.452,1.33537 -72.7929,147.915559 -26.1125,1.58214 z m 25.5393,151.711219 17.95238,-36.4801 54.97112,-111.703959 82.9317,68.881129 -109.8135,115.51072 z m 156.0294,-68.96096 -20.0598,145.74552 -125.6785,7.57685 96.1174,-101.11923 z m -12.766,145.96327 19.6244,-142.56675 60.15029,149.94038 z m 210.01819,7.93971 c -3.578,0.31932 -74.1138,0.16684 -122.2094,-0.0215 l -6.8439,-17.07694 169.9059,-13.1724 7.018,11.09676 c -20.1179,8.04132 -47.1086,18.81874 -47.8706,19.17436 z"
     data-fill-palette-color="accent"
     id="path6-0"
     style="fill:#000000;stroke:#000000;stroke-width:4.93941;stroke-dasharray:none;stroke-opacity:1;paint-order:stroke markers fill"
     sodipodi:nodetypes="ccccccccccccsccccccsccccccccccssccccccccccccccccsccccccscccccsccsccccccccccccccccccccccccccccccccccccccccccccccccccccccccccccccccccc" />
  <path
     d="m 49.400963,221.98535 h -22.6316 l -0.1254,-15.48871 h 18.2958 q 7.1428,0 10.025,-2.18045 2.8822,-2.15539 2.8822,-6.5163 v 0 q 0,-5.13785 -3.0075,-7.29324 -2.9824,-2.18044 -9.7243,-2.18044 v 0 h -9.6742 v 70.55138 h -23.0075 v -89.09775 h 32.6817 q 16.7669,0 26.2156,6.16541 9.4736,6.14035 9.4736,18.69675 v 0 q 0,5.43859 -2.3308,10.30076 -2.3308,4.86214 -7.8697,7.86967 -5.5388,2.98245 -15.213,2.93232 v 0 z m -0.8521,36.89224 h -27.3434 l 7.8196,-18.47117 h 19.5238 q 6.1654,0 8.6215,-2.58146 2.4562,-2.55639 2.4562,-5.93985 v 0 q 0,-3.10778 -1.0025,-5.31329 -1.0276,-2.20551 -3.2582,-3.40852 -2.2306,-1.17795 -5.9649,-1.17795 v 0 h -18.3459 l 0.1254,-15.48871 h 21.6542 l 5.3884,6.31579 q 9.2231,-0.62657 14.5113,2.23058 5.3133,2.83208 7.5439,7.51878 2.2306,4.68673 2.2306,9.69926 v 0 q 0,13.28322 -8.5715,19.94987 -8.5714,6.66667 -25.3884,6.66667 z m 78.120297,-17.7945 v -25.71428 q 0,-3.65914 -1.5539,-5.8396 -1.5539,-2.18045 -5.3634,-2.18045 v 0 q -2.005,0 -3.3835,0.62656 -1.3784,0.60151 -2.0802,1.9549 -0.7017,1.35338 -0.7017,3.60901 v 0 H 91.556363 q 0,-6.49121 3.609,-11.45361 3.609,-4.93737 10.225597,-7.79449 6.5915,-2.83208 15.5388,-2.83208 v 0 q 7.9449,0 14.2607,2.65664 6.2907,2.65664 9.9749,8.02004 3.6592,5.33834 3.6592,13.3584 v 0 26.14034 q 0,7.14287 0.7769,10.40101 0.7519,3.23308 2.1053,5.73935 v 0 1.10276 h -22.0301 q -1.5288,-3.23308 -2.2556,-7.94486 -0.7519,-4.71179 -0.7519,-9.84964 z m 2.6315,-22.90726 0.1253,12.00502 h -8.4963 q -5.213,0 -7.0426,2.80702 -1.8295,2.83207 -1.8295,5.93984 v 0 q 0,2.25564 1.6792,3.63409 1.6792,1.37844 4.1854,1.37844 v 0 q 3.1329,0 5.2882,-1.12782 2.1805,-1.12782 3.2832,-2.65664 1.1028,-1.52881 0.9274,-2.6817 v 0 l 4.7117,9.22305 q -1.228,2.38095 -2.7318,4.73685 -1.5037,2.35589 -3.7092,4.31077 -2.2056,1.97996 -5.3885,3.1579 -3.183,1.20302 -7.6943,1.20302 v 0 q -6.0651,0 -11.228,-2.50628 -5.162897,-2.50626 -8.295797,-7.04259 -3.1328,-4.53635 -3.1328,-10.52634 v 0 q 0,-10.22556 7.5439,-16.04009 7.518797,-5.81454 23.608997,-5.81454 v 0 z m 52.381,-7.81955 v 48.52131 h -22.0301 v -66.21555 h 20.5514 z m 19.0977,-18.17043 -0.3759,21.52883 q -1.2782,-0.12539 -3.4586,-0.30074 -2.1805,-0.17545 -3.5088,-0.17545 v 0 q -4.6617,0 -7.5689,1.17795 -2.9073,1.20301 -4.1855,3.70926 -1.2782,2.50628 -1.2281,6.61654 v 0 l -3.8596,-3.30826 q 0,-8.9975 2.2807,-15.76442 2.2556,-6.76691 6.391,-10.50124 4.1353,-3.70927 9.6992,-3.70927 v 0 q 1.5288,0 3.0827,0.15036 1.5539,0.15039 2.7318,0.57644 z m 28.8722,18.17043 v 48.52131 h -22.03 v -66.21555 h 20.5513 z m 19.0727,-18.17043 -0.3509,21.52883 q -1.2782,-0.12539 -3.4586,-0.30074 -2.1805,-0.17545 -3.5338,-0.17545 v 0 q -4.6366,0 -7.5439,1.17795 -2.9073,1.20301 -4.1855,3.70926 -1.3032,2.50628 -1.228,6.61654 v 0 l -3.8597,-3.30826 q 0,-8.9975 2.2557,-15.76442 2.2807,-6.76691 6.416,-10.50124 4.1103,-3.70927 9.6742,-3.70927 v 0 q 1.5539,0 3.1077,0.15036 1.5539,0.15039 2.7068,0.57644 z m 40.9273,48.89724 v -25.71428 q 0,-3.65914 -1.5539,-5.8396 -1.5539,-2.18045 -5.3383,-2.18045 v 0 q -2.0301,0 -3.4086,0.62656 -1.3784,0.60151 -2.0802,1.9549 -0.7017,1.35338 -0.7017,3.60901 v 0 h -22.03 q 0,-6.49121 3.609,-11.45361 3.609,-4.93737 10.2255,-7.79449 6.6165,-2.83208 15.5388,-2.83208 v 0 q 7.9449,0 14.2607,2.65664 6.2907,2.65664 9.9749,8.02004 3.6592,5.33834 3.6592,13.3584 v 0 26.14034 q 0,7.14287 0.7769,10.40101 0.7519,3.23308 2.1053,5.73935 v 0 1.10276 h -22.0301 q -1.5288,-3.23308 -2.2556,-7.94486 -0.7519,-4.71179 -0.7519,-9.84964 z m 2.6316,-22.90726 0.1254,12.00502 h -8.4963 q -5.213,0 -7.0426,2.80702 -1.8296,2.83207 -1.8296,5.93984 v 0 q 0,2.25564 1.6792,3.63409 1.6792,1.37844 4.1855,1.37844 v 0 q 3.1328,0 5.3133,-1.12782 2.1554,-1.12782 3.2581,-2.65664 1.1028,-1.52881 0.9273,-2.6817 v 0 l 4.7118,9.22305 q -1.228,2.38095 -2.7318,4.73685 -1.5038,2.35589 -3.7093,4.31077 -2.1804,1.97996 -5.3634,3.1579 -3.183,1.20302 -7.7193,1.20302 v 0 q -6.0651,0 -11.228,-2.50628 -5.1629,-2.50626 -8.2958,-7.04259 -3.1077,-4.53635 -3.1077,-10.52634 v 0 q 0,-10.22556 7.5188,-16.04009 7.5188,-5.81454 23.6089,-5.81454 v 0 z m 71.5288,-25.51379 h 20.0251 v 63.33334 q 0,9.29824 -4.3359,15.76442 -4.3107,6.4411 -12.0802,9.79951 -7.7694,3.33332 -18.0451,3.33332 v 0 q -4.411,0 -9.0977,-1.10275 -4.6617,-1.10276 -8.797,-3.25817 -4.1354,-2.13031 -6.8923,-5.18795 v 0 l 9.173,-13.65915 q 2.3308,2.40602 6.0902,4.31077 3.7845,1.92983 8.797,1.92983 v 0 q 6.3659,0 9.6992,-3.20803 3.3334,-3.20802 3.3334,-8.97243 v 0 -47.16792 z m -43.7343,33.90978 v -1.2782 q 0,-10.05012 3.2832,-17.66916 3.3083,-7.61906 9.4737,-11.90476 6.1403,-4.26065 14.5864,-4.26065 v 0 q 6.9173,0 11.2782,2.70676 4.386,2.73183 6.9925,7.56892 2.5815,4.8371 4.0351,11.22807 1.4286,6.39097 2.4812,13.73434 v 0 -0.72683 q -1.4035,9.04762 -4.1604,16.84211 -2.7569,7.79449 -7.7444,12.55639 -4.9874,4.73686 -13.0075,4.73686 v 0 q -8.3709,0 -14.5113,-4.38598 -6.1152,-4.3609 -9.4235,-11.95488 -3.2832,-7.59399 -3.2832,-17.19299 z m 22.0802,-1.2782 v 1.2782 q 0,4.46115 1.203,8.04512 1.1779,3.58396 3.5589,5.66416 2.406,2.0802 6.0651,2.0802 v 0 q 4.2356,0 6.792,-1.77946 2.5815,-1.77945 3.6842,-5.13784 1.1028,-3.3584 0.777,-8.07017 v 0 -2.08021 q 0.2005,-4.23558 -0.401,-7.29323 -0.5765,-3.05764 -1.9549,-4.98747 -1.3785,-1.92981 -3.5339,-2.88221 -2.1804,-0.92731 -5.2381,-0.92731 v 0 q -3.5589,0 -5.9899,2.0802 -2.4562,2.08021 -3.7093,5.68922 -1.2531,3.60903 -1.2531,8.3208 z m 75.86464,-32.63158 v 66.21555 h -22.08024 v -66.21555 z m -23.30824,-16.76692 v 0 q 0,-4.88721 3.3584,-7.94486 3.3583,-3.05763 8.74684,-3.05763 v 0 q 5.4637,0 8.797,3.05763 3.3334,3.05765 3.3334,7.94486 v 0 q 0,4.83711 -3.3334,7.94487 -3.3333,3.08272 -8.797,3.08272 v 0 q -5.38854,0 -8.74684,-3.08272 -3.3584,-3.10776 -3.3584,-7.94487 z m 69.44864,64.08522 v 0 q 0,-1.52882 -1.0777,-2.50626 -1.0777,-1.0025 -3.7594,-1.8797 -2.7068,-0.87719 -7.594,-1.92982 v 0 q -6.3659,-1.40351 -11.6792,-4.01002 -5.3383,-2.60654 -8.4712,-6.76692 -3.1579,-4.16041 -3.1579,-10.02506 v 0 q 0,-5.68923 3.2331,-10.57646 3.2582,-4.91228 9.4236,-7.86967 6.1905,-2.95738 14.9874,-2.95738 v 0 q 9.0727,0 15.6642,2.73182 6.6165,2.75689 10.2005,7.66917 3.584,4.88721 3.584,11.42857 v 0 h -22.0301 q 0,-3.60902 -1.6541,-5.26316 -1.6542,-1.65413 -5.8146,-1.65413 v 0 q -1.7042,0 -3.2832,0.62657 -1.5539,0.60151 -2.5063,1.75438 -0.9523,1.17795 -0.9523,2.9574 v 0 q 0,1.52882 1.1528,2.70677 1.1279,1.20301 3.3835,2.05513 2.2556,0.85214 5.7644,1.40352 v 0 q 6.5414,1.10275 12.4311,3.30827 5.9148,2.20551 9.6491,6.49122 3.7344,4.28572 3.7344,11.67921 v 0 q 0,5.88972 -3.584,10.6015 -3.584,4.71177 -10.2005,7.41855 -6.5915,2.73183 -15.589,2.73183 v 0 q -9.6742,0 -16.2907,-3.48371 -6.5915,-3.48372 -10,-8.79701 -3.3835,-5.28821 -3.3835,-10.6015 v 0 h 20.5514 q 0.1254,2.63159 1.3283,4.36091 1.178,1.75438 3.3334,2.63158 2.1303,0.90224 5.0626,0.90224 v 0 q 2.5063,0 4.1604,-0.62656 1.6542,-0.6015 2.5063,-1.77944 0.8772,-1.15288 0.8772,-2.73184 z m 66.1403,-47.3183 v 15.91479 h -40.7017 v -15.91479 z m -32.6315,-16.44109 h 22.03 v 59.82455 q 0,2.33084 0.5514,3.65916 0.5514,1.30326 1.98,1.85464 1.4536,0.55138 3.9599,0.55138 v 0 q 1.7042,0 2.8822,-0.0501 1.1528,-0.0752 2.1303,-0.25063 v 0 l -0.05,16.39098 q -2.8321,0.97744 -5.6892,1.45362 -2.8822,0.45114 -6.3158,0.45114 v 0 q -6.8421,0 -11.6542,-2.18046 -4.812,-2.18045 -7.3183,-6.79197 -2.5062,-4.61153 -2.5062,-11.90476 v 0 z m 73.7844,64.86214 v -25.71428 q 0,-3.65914 -1.5539,-5.8396 -1.5538,-2.18045 -5.3634,-2.18045 v 0 q -2.005,0 -3.3834,0.62656 -1.3785,0.60151 -2.0802,1.9549 -0.7018,1.35338 -0.7018,3.60901 v 0 h -22.0301 q 0,-6.49121 3.6091,-11.45361 3.609,-4.93737 10.2255,-7.79449 6.5915,-2.83208 15.5389,-2.83208 v 0 q 7.9448,0 14.2606,2.65664 6.2908,2.65664 9.975,8.02004 3.6591,5.33834 3.6591,13.3584 v 0 26.14034 q 0,7.14287 0.777,10.40101 0.7518,3.23308 2.1052,5.73935 v 0 1.10276 h -22.0301 q -1.5288,-3.23308 -2.2556,-7.94486 -0.7519,-4.71179 -0.7519,-9.84964 z m 2.6316,-22.90726 0.1252,12.00502 h -8.4962 q -5.213,0 -7.0426,2.80702 -1.8296,2.83207 -1.8296,5.93984 v 0 q 0,2.25564 1.6792,3.63409 1.6792,1.37844 4.1855,1.37844 v 0 q 3.1328,0 5.2882,-1.12782 2.1804,-1.12782 3.2832,-2.65664 1.1028,-1.52881 0.9273,-2.6817 v 0 l 4.7118,9.22305 q -1.2281,2.38095 -2.7318,4.73685 -1.5038,2.35589 -3.7093,4.31077 -2.2055,1.97996 -5.3885,3.1579 -3.1829,1.20302 -7.6942,1.20302 v 0 q -6.0652,0 -11.2281,-2.50628 -5.1629,-2.50626 -8.2957,-7.04259 -3.1078,-4.53635 -3.1078,-10.52634 v 0 q 0,-10.22556 7.5188,-16.04009 7.5188,-5.81454 23.609,-5.81454 v 0 z"
     opacity="1"
     fill="#000000"
     class="undefined-text-0"
     data-fill-palette-color="primary"
     id="text-0-2"
     style="fill:#000000;stroke-width:2.50628" />
</svg>
