<?xml version="1.0" encoding="UTF-8" standalone="no"?>
<svg
   version="1.1"
   width="1000"
   height="194"
   viewBox="0 0 1000 194"
   id="svg11"
   sodipodi:docname="logo-no-background.svg"
   inkscape:version="1.3 (0e150ed6c4, 2023-07-21)"
   xmlns:inkscape="http://www.inkscape.org/namespaces/inkscape"
   xmlns:sodipodi="http://sodipodi.sourceforge.net/DTD/sodipodi-0.dtd"
   xmlns="http://www.w3.org/2000/svg"
   xmlns:svg="http://www.w3.org/2000/svg">
  <defs
     id="defs11" />
  <sodipodi:namedview
     id="namedview11"
     pagecolor="#ffffff"
     bordercolor="#000000"
     borderopacity="0.25"
     inkscape:showpageshadow="2"
     inkscape:pageopacity="0.0"
     inkscape:pagecheckerboard="0"
     inkscape:deskcolor="#d1d1d1"
     inkscape:zoom="0.73963369"
     inkscape:cx="619.22544"
     inkscape:cy="63.544969"
     inkscape:window-width="1920"
     inkscape:window-height="1009"
     inkscape:window-x="1912"
     inkscape:window-y="-8"
     inkscape:window-maximized="1"
     inkscape:current-layer="tight-bounds" />
  <g
     transform="matrix(1,0,0,1,-0.6060606060606233,-0.5055116407911129)"
     id="g10">
    <svg
       viewBox="0 0 396 77"
       data-background-color="#f7d65a"
       preserveAspectRatio="xMidYMid meet"
       height="194"
       width="1000"
       version="1.1"
       id="svg10">
      <g
         id="tight-bounds"
         transform="matrix(1,0,0,1,0.2400000000000091,0.20064121825214443)">
        <svg
           viewBox="0 0 395.52 76.59871756349573"
           height="76.59871756349573"
           width="395.52"
           version="1.1"
           id="svg9"
           style="fill:#ffffff">
          <g
             id="g9"
             style="fill:#ffffff">
            <svg
               viewBox="0 0 659.1325899013952 127.6514742383506"
               height="76.59871756349573"
               width="395.52"
               version="1.1"
               id="svg8"
               style="fill:#ffffff">
              <g
                 id="g6"
                 style="fill:#ffffff">
                <svg
                   viewBox="0 0 395.52 127.6514742383506"
                   height="127.6514742383506"
                   width="395.52"
                   version="1.1"
                   id="svg6"
                   style="fill:#ffffff">
                  <g
                     id="g5"
                     style="fill:#ffffff">
                    <svg
                       viewBox="0 0 395.52 127.6514742383506"
                       height="127.6514742383506"
                       width="395.52"
                       version="1.1"
                       id="svg5"
                       style="fill:#ffffff">
                      <g
                         id="g2"
                         style="fill:#ffffff">
                        <svg
                           viewBox="0 0 395.52 81.25023255813953"
                           height="81.25023255813953"
                           width="395.52"
                           version="1.1"
                           id="svg2"
                           style="fill:#ffffff">
                          <g
                             transform="matrix(1,0,0,1,0,0)"
                             id="g1"
                             style="fill:#ffffff">
                            <svg
                               width="395.52"
                               viewBox="2.509999990463257 -37.5 233.04000854492188 47.880001068115234"
                               height="81.25023255813953"
                               data-palette-color="#000000"
                               version="1.1"
                               id="svg1"
                               style="fill:#ffffff">
                              <path
                                 d="M17.26-14.72L8.23-14.72 8.18-20.9 15.48-20.9Q18.33-20.9 19.48-21.77 20.63-22.63 20.63-24.37L20.63-24.37Q20.63-26.42 19.43-27.28 18.24-28.15 15.55-28.15L15.55-28.15 11.69-28.15 11.69 0 2.51 0 2.51-35.55 15.55-35.55Q22.24-35.55 26.01-33.09 29.79-30.64 29.79-25.63L29.79-25.63Q29.79-23.46 28.86-21.52 27.93-19.58 25.72-18.38 23.51-17.19 19.65-17.21L19.65-17.21 17.26-14.72ZM16.92 0L6.01 0 9.13-7.37 16.92-7.37Q19.38-7.37 20.36-8.4 21.34-9.42 21.34-10.77L21.34-10.77Q21.34-12.01 20.94-12.89 20.53-13.77 19.64-14.25 18.75-14.72 17.26-14.72L17.26-14.72 9.94-14.72 9.99-20.9 18.63-20.9 20.78-18.38Q24.46-18.63 26.57-17.49 28.69-16.36 29.58-14.49 30.47-12.62 30.47-10.62L30.47-10.62Q30.47-5.32 27.05-2.66 23.63 0 16.92 0L16.92 0ZM48.09-7.1L48.09-17.36Q48.09-18.82 47.47-19.69 46.85-20.56 45.33-20.56L45.33-20.56Q44.53-20.56 43.98-20.31 43.43-20.07 43.15-19.53 42.87-18.99 42.87-18.09L42.87-18.09 34.08-18.09Q34.08-20.68 35.52-22.66 36.96-24.63 39.6-25.77 42.23-26.9 45.8-26.9L45.8-26.9Q48.97-26.9 51.49-25.84 54-24.78 55.47-22.64 56.93-20.51 56.93-17.31L56.93-17.31 56.93-6.88Q56.93-4.03 57.24-2.73 57.54-1.44 58.08-0.44L58.08-0.44 58.08 0 49.29 0Q48.68-1.29 48.39-3.17 48.09-5.05 48.09-7.1L48.09-7.1ZM49.14-16.24L49.19-11.45 45.8-11.45Q43.72-11.45 42.99-10.33 42.26-9.2 42.26-7.96L42.26-7.96Q42.26-7.06 42.93-6.51 43.6-5.96 44.6-5.96L44.6-5.96Q45.85-5.96 46.71-6.41 47.58-6.86 48.02-7.47 48.46-8.08 48.39-8.54L48.39-8.54 50.27-4.86Q49.78-3.91 49.18-2.97 48.58-2.03 47.7-1.25 46.82-0.46 45.55 0.01 44.28 0.49 42.48 0.49L42.48 0.49Q40.06 0.49 38-0.51 35.94-1.51 34.69-3.32 33.44-5.13 33.44-7.52L33.44-7.52Q33.44-11.6 36.45-13.92 39.45-16.24 45.87-16.24L45.87-16.24 49.14-16.24ZM70.04-19.36L70.04 0 61.25 0 61.25-26.42 69.45-26.42 70.04-19.36ZM77.66-26.61L77.51-18.02Q77-18.07 76.13-18.14 75.26-18.21 74.73-18.21L74.73-18.21Q72.87-18.21 71.71-17.74 70.55-17.26 70.04-16.26 69.53-15.26 69.55-13.62L69.55-13.62 68.01-14.94Q68.01-18.53 68.92-21.23 69.82-23.93 71.47-25.42 73.12-26.9 75.34-26.9L75.34-26.9Q75.95-26.9 76.57-26.84 77.19-26.78 77.66-26.61L77.66-26.61ZM89.18-19.36L89.18 0 80.39 0 80.39-26.42 88.59-26.42 89.18-19.36ZM96.79-26.61L96.65-18.02Q96.14-18.07 95.27-18.14 94.4-18.21 93.86-18.21L93.86-18.21Q92.01-18.21 90.85-17.74 89.69-17.26 89.18-16.26 88.66-15.26 88.69-13.62L88.69-13.62 87.15-14.94Q87.15-18.53 88.05-21.23 88.96-23.93 90.61-25.42 92.25-26.9 94.47-26.9L94.47-26.9Q95.09-26.9 95.71-26.84 96.33-26.78 96.79-26.61L96.79-26.61ZM113.12-7.1L113.12-17.36Q113.12-18.82 112.5-19.69 111.88-20.56 110.37-20.56L110.37-20.56Q109.56-20.56 109.01-20.31 108.46-20.07 108.18-19.53 107.9-18.99 107.9-18.09L107.9-18.09 99.11-18.09Q99.11-20.68 100.55-22.66 101.99-24.63 104.63-25.77 107.27-26.9 110.83-26.9L110.83-26.9Q114-26.9 116.52-25.84 119.03-24.78 120.5-22.64 121.96-20.51 121.96-17.31L121.96-17.31 121.96-6.88Q121.96-4.03 122.27-2.73 122.57-1.44 123.11-0.44L123.11-0.44 123.11 0 114.32 0Q113.71-1.29 113.42-3.17 113.12-5.05 113.12-7.1L113.12-7.1ZM114.17-16.24L114.22-11.45 110.83-11.45Q108.75-11.45 108.02-10.33 107.29-9.2 107.29-7.96L107.29-7.96Q107.29-7.06 107.96-6.51 108.63-5.96 109.63-5.96L109.63-5.96Q110.88-5.96 111.75-6.41 112.61-6.86 113.05-7.47 113.49-8.08 113.42-8.54L113.42-8.54 115.3-4.86Q114.81-3.91 114.21-2.97 113.61-2.03 112.73-1.25 111.86-0.46 110.59 0.01 109.32 0.49 107.51 0.49L107.51 0.49Q105.09 0.49 103.03-0.51 100.97-1.51 99.72-3.32 98.48-5.13 98.48-7.52L98.48-7.52Q98.48-11.6 101.48-13.92 104.48-16.24 110.9-16.24L110.9-16.24 114.17-16.24ZM142.71-26.42L150.7-26.42 150.7-1.15Q150.7 2.56 148.97 5.14 147.25 7.71 144.15 9.05 141.05 10.38 136.95 10.38L136.95 10.38Q135.19 10.38 133.32 9.94 131.46 9.5 129.81 8.64 128.16 7.79 127.06 6.57L127.06 6.57 130.72 1.12Q131.65 2.08 133.15 2.84 134.66 3.61 136.66 3.61L136.66 3.61Q139.2 3.61 140.53 2.33 141.86 1.05 141.86-1.25L141.86-1.25 141.86-20.07 142.71-26.42ZM125.26-12.89L125.26-13.4Q125.26-17.41 126.57-20.45 127.89-23.49 130.35-25.2 132.8-26.9 136.17-26.9L136.17-26.9Q138.93-26.9 140.67-25.82 142.42-24.73 143.46-22.8 144.49-20.87 145.07-18.32 145.64-15.77 146.06-12.84L146.06-12.84 146.06-13.13Q145.5-9.52 144.4-6.41 143.3-3.3 141.31-1.4 139.32 0.49 136.12 0.49L136.12 0.49Q132.78 0.49 130.33-1.26 127.89-3 126.57-6.03 125.26-9.06 125.26-12.89L125.26-12.89ZM134.07-13.4L134.07-12.89Q134.07-11.11 134.55-9.68 135.02-8.25 135.97-7.42 136.93-6.59 138.39-6.59L138.39-6.59Q140.08-6.59 141.1-7.3 142.13-8.01 142.57-9.35 143.01-10.69 142.88-12.57L142.88-12.57 142.88-13.4Q142.96-15.09 142.72-16.31 142.49-17.53 141.94-18.3 141.39-19.07 140.53-19.45 139.66-19.82 138.44-19.82L138.44-19.82Q137.02-19.82 136.05-18.99 135.07-18.16 134.57-16.72 134.07-15.28 134.07-13.4L134.07-13.4ZM164.34-26.42L164.34 0 155.53 0 155.53-26.42 164.34-26.42ZM155.04-33.11L155.04-33.11Q155.04-35.06 156.38-36.28 157.72-37.5 159.87-37.5L159.87-37.5Q162.05-37.5 163.38-36.28 164.71-35.06 164.71-33.11L164.71-33.11Q164.71-31.18 163.38-29.94 162.05-28.71 159.87-28.71L159.87-28.71Q157.72-28.71 156.38-29.94 155.04-31.18 155.04-33.11ZM182.75-7.54L182.75-7.54Q182.75-8.15 182.32-8.54 181.89-8.94 180.82-9.29 179.74-9.64 177.79-10.06L177.79-10.06Q175.25-10.62 173.13-11.66 171-12.7 169.75-14.36 168.49-16.02 168.49-18.36L168.49-18.36Q168.49-20.63 169.78-22.58 171.08-24.54 173.54-25.72 176.01-26.9 179.52-26.9L179.52-26.9Q183.14-26.9 185.77-25.81 188.41-24.71 189.84-22.75 191.27-20.8 191.27-18.19L191.27-18.19 182.48-18.19Q182.48-19.63 181.82-20.29 181.16-20.95 179.5-20.95L179.5-20.95Q178.82-20.95 178.19-20.7 177.57-20.46 177.19-20 176.81-19.53 176.81-18.82L176.81-18.82Q176.81-18.21 177.27-17.74 177.72-17.26 178.62-16.92 179.52-16.58 180.92-16.36L180.92-16.36Q183.53-15.92 185.88-15.04 188.24-14.16 189.73-12.45 191.22-10.74 191.22-7.79L191.22-7.79Q191.22-5.44 189.79-3.56 188.36-1.68 185.72-0.6 183.09 0.49 179.5 0.49L179.5 0.49Q175.64 0.49 173-0.9 170.37-2.29 169.01-4.41 167.66-6.52 167.66-8.64L167.66-8.64 175.86-8.64Q175.91-7.59 176.39-6.9 176.86-6.2 177.72-5.85 178.57-5.49 179.74-5.49L179.74-5.49Q180.74-5.49 181.4-5.74 182.06-5.98 182.4-6.45 182.75-6.91 182.75-7.54ZM209.14-26.42L209.14-20.07 192.9-20.07 192.9-26.42 209.14-26.42ZM196.12-32.98L204.91-32.98 204.91-9.11Q204.91-8.18 205.13-7.65 205.35-7.13 205.92-6.91 206.5-6.69 207.5-6.69L207.5-6.69Q208.18-6.69 208.65-6.71 209.11-6.74 209.5-6.81L209.5-6.81 209.48-0.27Q208.35 0.12 207.21 0.31 206.06 0.49 204.69 0.49L204.69 0.49Q201.96 0.49 200.04-0.38 198.12-1.25 197.12-3.09 196.12-4.93 196.12-7.84L196.12-7.84 196.12-32.98ZM225.56-7.1L225.56-17.36Q225.56-18.82 224.94-19.69 224.32-20.56 222.8-20.56L222.8-20.56Q222-20.56 221.45-20.31 220.9-20.07 220.62-19.53 220.34-18.99 220.34-18.09L220.34-18.09 211.55-18.09Q211.55-20.68 212.99-22.66 214.43-24.63 217.07-25.77 219.7-26.9 223.27-26.9L223.27-26.9Q226.44-26.9 228.96-25.84 231.47-24.78 232.94-22.64 234.4-20.51 234.4-17.31L234.4-17.31 234.4-6.88Q234.4-4.03 234.71-2.73 235.01-1.44 235.55-0.44L235.55-0.44 235.55 0 226.76 0Q226.15-1.29 225.86-3.17 225.56-5.05 225.56-7.1L225.56-7.1ZM226.61-16.24L226.66-11.45 223.27-11.45Q221.19-11.45 220.46-10.33 219.73-9.2 219.73-7.96L219.73-7.96Q219.73-7.06 220.4-6.51 221.07-5.96 222.07-5.96L222.07-5.96Q223.32-5.96 224.18-6.41 225.05-6.86 225.49-7.47 225.93-8.08 225.86-8.54L225.86-8.54 227.74-4.86Q227.25-3.91 226.65-2.97 226.05-2.03 225.17-1.25 224.29-0.46 223.02 0.01 221.75 0.49 219.95 0.49L219.95 0.49Q217.53 0.49 215.47-0.51 213.41-1.51 212.16-3.32 210.92-5.13 210.92-7.52L210.92-7.52Q210.92-11.6 213.92-13.92 216.92-16.24 223.34-16.24L223.34-16.24 226.61-16.24Z"
                                 opacity="1"
                                 transform="matrix(1,0,0,1,0,0)"
                                 fill="#000000"
                                 class="undefined-text-0"
                                 data-fill-palette-color="primary"
                                 id="text-0"
                                 style="fill:#ffffff" />
                            </svg>
                          </g>
                        </svg>
                      </g>
                      <g
                         transform="matrix(1,0,0,1,163.310208,100.43146245953488)"
                         id="g4"
                         style="fill:#ffffff">
                        <svg
                           viewBox="0 0 232.209792 27.220011778815728"
                           height="27.220011778815728"
                           width="232.209792"
                           version="1.1"
                           id="svg4"
                           style="fill:#ffffff">
                          <g
                             transform="matrix(1,0,0,1,0,0)"
                             id="g3"
                             style="fill:#ffffff">
                            <svg
                               width="232.209792"
                               viewBox="2.6600000858306885 -37.5 324.0400085449219 37.9900016784668"
                               height="27.220011778815728"
                               data-palette-color="#000000"
                               version="1.1"
                               id="svg3"
                               style="fill:#ffffff">
                              <path
                                 d="M18.99-4.52L18.99-18.12Q18.99-20.48 17.59-21.89 16.19-23.29 13.45-23.29L13.45-23.29Q11.77-23.29 10.49-22.71 9.2-22.12 8.5-21.17 7.79-20.21 7.79-19.09L7.79-19.09 3.22-19.09Q3.22-21 4.52-22.79 5.81-24.58 8.17-25.74 10.52-26.9 13.72-26.9L13.72-26.9Q16.6-26.9 18.82-25.93 21.04-24.95 22.3-22.99 23.56-21.02 23.56-18.07L23.56-18.07 23.56-5.76Q23.56-4.44 23.79-2.95 24.02-1.46 24.49-0.39L24.49-0.39 24.49 0 19.73 0Q19.38-0.78 19.19-2.09 18.99-3.39 18.99-4.52L18.99-4.52ZM19.78-16.02L19.82-12.84 15.28-12.84Q11.43-12.84 9.33-11.62 7.23-10.4 7.23-7.96L7.23-7.96Q7.23-6.05 8.51-4.74 9.79-3.42 12.26-3.42L12.26-3.42Q14.33-3.42 15.92-4.3 17.5-5.18 18.43-6.47 19.36-7.76 19.43-8.96L19.43-8.96 21.39-6.79Q21.22-5.76 20.46-4.52 19.7-3.27 18.44-2.14 17.19-1 15.47-0.26 13.75 0.49 11.6 0.49L11.6 0.49Q8.91 0.49 6.9-0.55 4.88-1.59 3.77-3.37 2.66-5.15 2.66-7.32L2.66-7.32Q2.66-11.6 5.88-13.81 9.11-16.02 14.55-16.02L14.55-16.02 19.78-16.02ZM35.59-37.5L35.59 0 31.03 0 31.03-37.5 35.59-37.5ZM47.75-37.5L47.75 0 43.18 0 43.18-37.5 47.75-37.5ZM82.92-4.52L82.92-18.12Q82.92-20.48 81.52-21.89 80.12-23.29 77.38-23.29L77.38-23.29Q75.7-23.29 74.42-22.71 73.13-22.12 72.43-21.17 71.72-20.21 71.72-19.09L71.72-19.09 67.15-19.09Q67.15-21 68.45-22.79 69.74-24.58 72.1-25.74 74.45-26.9 77.65-26.9L77.65-26.9Q80.53-26.9 82.75-25.93 84.98-24.95 86.23-22.99 87.49-21.02 87.49-18.07L87.49-18.07 87.49-5.76Q87.49-4.44 87.72-2.95 87.95-1.46 88.42-0.39L88.42-0.39 88.42 0 83.66 0Q83.32-0.78 83.12-2.09 82.92-3.39 82.92-4.52L82.92-4.52ZM83.71-16.02L83.75-12.84 79.21-12.84Q75.36-12.84 73.26-11.62 71.16-10.4 71.16-7.96L71.16-7.96Q71.16-6.05 72.44-4.74 73.72-3.42 76.19-3.42L76.19-3.42Q78.26-3.42 79.85-4.3 81.44-5.18 82.36-6.47 83.29-7.76 83.36-8.96L83.36-8.96 85.32-6.79Q85.15-5.76 84.39-4.52 83.63-3.27 82.38-2.14 81.12-1 79.4-0.26 77.68 0.49 75.53 0.49L75.53 0.49Q72.84 0.49 70.83-0.55 68.81-1.59 67.7-3.37 66.59-5.15 66.59-7.32L66.59-7.32Q66.59-11.6 69.81-13.81 73.04-16.02 78.48-16.02L78.48-16.02 83.71-16.02ZM94.57-37.5L99.13-37.5 99.13-5.13 98.74 0 94.57 0 94.57-37.5ZM116.96-13.43L116.96-12.92Q116.96-9.06 115.76-6.03 114.56-3 112.27-1.26 109.97 0.49 106.7 0.49L106.7 0.49Q103.33 0.49 101.09-1.04 98.84-2.56 97.59-5.36 96.35-8.15 95.96-11.99L95.96-11.99 95.96-14.36Q96.35-18.24 97.59-21.04 98.84-23.85 101.07-25.38 103.31-26.9 106.65-26.9L106.65-26.9Q109.97-26.9 112.27-25.22 114.56-23.54 115.76-20.5 116.96-17.46 116.96-13.43L116.96-13.43ZM112.39-12.92L112.39-13.43Q112.39-16.06 111.73-18.27 111.07-20.48 109.57-21.8 108.07-23.12 105.51-23.12L105.51-23.12Q103.82-23.12 102.56-22.53 101.31-21.95 100.43-20.96 99.55-19.97 99-18.71 98.45-17.46 98.18-16.11L98.18-16.11 98.18-10.18Q98.57-8.47 99.45-6.9 100.33-5.32 101.83-4.32 103.33-3.32 105.55-3.32L105.55-3.32Q108-3.32 109.5-4.63 111-5.93 111.69-8.11 112.39-10.28 112.39-12.92L112.39-12.92ZM121.47-12.92L121.47-13.48Q121.47-17.31 122.93-20.34 124.4-23.36 127.08-25.13 129.77-26.9 133.46-26.9L133.46-26.9Q137.19-26.9 139.9-25.13 142.61-23.36 144.06-20.34 145.52-17.31 145.52-13.48L145.52-13.48 145.52-12.92Q145.52-9.11 144.06-6.07 142.61-3.03 139.91-1.27 137.22 0.49 133.51 0.49L133.51 0.49Q129.79 0.49 127.1-1.27 124.4-3.03 122.93-6.07 121.47-9.11 121.47-12.92L121.47-12.92ZM126.03-13.48L126.03-12.92Q126.03-10.3 126.86-8.08 127.69-5.86 129.34-4.52 130.99-3.17 133.51-3.17L133.51-3.17Q136-3.17 137.64-4.52 139.29-5.86 140.12-8.08 140.95-10.3 140.95-12.92L140.95-12.92 140.95-13.48Q140.95-16.09 140.12-18.31 139.29-20.53 137.63-21.89 135.97-23.24 133.46-23.24L133.46-23.24Q130.99-23.24 129.33-21.89 127.67-20.53 126.85-18.31 126.03-16.09 126.03-13.48L126.03-13.48ZM167.34-6.1L167.34-26.42 171.91-26.42 171.91 0 167.56 0 167.34-6.1ZM168.2-11.67L170.1-11.72Q170.1-8.2 169.1-5.44 168.1-2.69 165.83-1.1 163.56 0.49 159.75 0.49L159.75 0.49Q155.87 0.49 153.47-1.81 151.08-4.1 151.08-9.38L151.08-9.38 151.08-26.42 155.65-26.42 155.65-9.33Q155.65-6.93 156.34-5.63 157.04-4.32 158.15-3.82 159.26-3.32 160.48-3.32L160.48-3.32Q163.36-3.32 165.05-4.43 166.73-5.54 167.46-7.45 168.2-9.35 168.2-11.67L168.2-11.67ZM189.85-26.42L189.85-22.97 175.54-22.97 175.54-26.42 189.85-26.42ZM180.35-32.84L184.92-32.84 184.92-6.54Q184.92-5.18 185.33-4.49 185.75-3.81 186.41-3.59 187.06-3.37 187.82-3.37L187.82-3.37Q188.38-3.37 189.01-3.47 189.63-3.56 189.92-3.64L189.92-3.64 189.95 0Q189.41 0.17 188.54 0.33 187.68 0.49 186.45 0.49L186.45 0.49Q184.79 0.49 183.4-0.17 182.01-0.83 181.18-2.38 180.35-3.93 180.35-6.57L180.35-6.57 180.35-32.84ZM224.14-5.13L224.14-37.5 228.71-37.5 228.71 0 224.54 0 224.14-5.13ZM206.4-12.92L206.4-13.43Q206.4-17.46 207.7-20.5 209.01-23.54 211.35-25.22 213.7-26.9 216.85-26.9L216.85-26.9Q220.17-26.9 222.39-25.38 224.61-23.85 225.87-21.04 227.12-18.24 227.49-14.36L227.49-14.36 227.49-11.99Q227.12-8.15 225.88-5.36 224.63-2.56 222.4-1.04 220.17 0.49 216.8 0.49L216.8 0.49Q213.7 0.49 211.35-1.26 209.01-3 207.7-6.03 206.4-9.06 206.4-12.92L206.4-12.92ZM210.96-13.43L210.96-12.92Q210.96-10.28 211.68-8.11 212.4-5.93 213.94-4.63 215.48-3.32 217.92-3.32L217.92-3.32Q220.17-3.32 221.62-4.27 223.07-5.22 223.95-6.79 224.83-8.35 225.32-10.18L225.32-10.18 225.32-16.11Q225.02-17.46 224.47-18.71 223.93-19.97 223.06-20.96 222.19-21.95 220.93-22.53 219.68-23.12 217.97-23.12L217.97-23.12Q215.5-23.12 213.95-21.8 212.4-20.48 211.68-18.27 210.96-16.06 210.96-13.43L210.96-13.43ZM251.29-4.52L251.29-18.12Q251.29-20.48 249.89-21.89 248.48-23.29 245.75-23.29L245.75-23.29Q244.06-23.29 242.78-22.71 241.5-22.12 240.79-21.17 240.08-20.21 240.08-19.09L240.08-19.09 235.52-19.09Q235.52-21 236.81-22.79 238.11-24.58 240.46-25.74 242.82-26.9 246.02-26.9L246.02-26.9Q248.9-26.9 251.12-25.93 253.34-24.95 254.6-22.99 255.86-21.02 255.86-18.07L255.86-18.07 255.86-5.76Q255.86-4.44 256.09-2.95 256.32-1.46 256.78-0.39L256.78-0.39 256.78 0 252.02 0Q251.68-0.78 251.49-2.09 251.29-3.39 251.29-4.52L251.29-4.52ZM252.07-16.02L252.12-12.84 247.58-12.84Q243.72-12.84 241.62-11.62 239.52-10.4 239.52-7.96L239.52-7.96Q239.52-6.05 240.81-4.74 242.09-3.42 244.55-3.42L244.55-3.42Q246.63-3.42 248.21-4.3 249.8-5.18 250.73-6.47 251.66-7.76 251.73-8.96L251.73-8.96 253.68-6.79Q253.51-5.76 252.76-4.52 252-3.27 250.74-2.14 249.48-1 247.76-0.26 246.04 0.49 243.89 0.49L243.89 0.49Q241.21 0.49 239.19-0.55 237.18-1.59 236.07-3.37 234.96-5.15 234.96-7.32L234.96-7.32Q234.96-11.6 238.18-13.81 241.4-16.02 246.85-16.02L246.85-16.02 252.07-16.02ZM267.47-21.17L267.47 0 262.91 0 262.91-26.42 267.23-26.42 267.47-21.17ZM266.55-14.23L264.42-14.31Q264.45-17.92 265.66-20.76 266.86-23.61 269.24-25.26 271.63-26.9 275.17-26.9L275.17-26.9Q278.88-26.9 281.29-24.73 283.71-22.56 283.71-17.6L283.71-17.6 283.71 0 279.14 0 279.14-17.38Q279.14-19.46 278.45-20.72 277.75-21.97 276.48-22.55 275.21-23.12 273.51-23.12L273.51-23.12Q271.53-23.12 270.2-22.41 268.87-21.7 268.06-20.46 267.26-19.21 266.9-17.61 266.55-16.02 266.55-14.23L266.55-14.23ZM283.66-16.72L280.61-15.8Q280.63-18.68 281.84-21.22 283.05-23.75 285.39-25.33 287.74-26.9 291.11-26.9L291.11-26.9Q293.94-26.9 295.92-25.9 297.89-24.9 298.92-22.8 299.95-20.7 299.95-17.36L299.95-17.36 299.95 0 295.38 0 295.38-17.41Q295.38-19.63 294.68-20.87 293.99-22.12 292.73-22.62 291.47-23.12 289.76-23.12L289.76-23.12Q288.28-23.12 287.14-22.61 286.01-22.09 285.24-21.2 284.47-20.31 284.06-19.17 283.66-18.02 283.66-16.72L283.66-16.72ZM322.14-7.01L322.14-7.01Q322.14-7.98 321.71-8.83 321.28-9.67 319.99-10.36 318.69-11.06 316.08-11.6L316.08-11.6Q313.15-12.21 311.01-13.15 308.88-14.09 307.72-15.55 306.56-17.02 306.56-19.19L306.56-19.19Q306.56-21.29 307.77-23.03 308.98-24.78 311.19-25.84 313.4-26.9 316.35-26.9L316.35-26.9Q319.52-26.9 321.78-25.79 324.04-24.68 325.24-22.81 326.43-20.95 326.43-18.68L326.43-18.68 321.87-18.68Q321.87-20.31 320.44-21.78 319.01-23.24 316.35-23.24L316.35-23.24Q314.49-23.24 313.33-22.67 312.17-22.09 311.65-21.2 311.12-20.31 311.12-19.34L311.12-19.34Q311.12-18.36 311.61-17.64 312.1-16.92 313.41-16.36 314.71-15.8 317.2-15.23L317.2-15.23Q320.45-14.5 322.55-13.48 324.65-12.45 325.68-10.96 326.7-9.47 326.7-7.32L326.7-7.32Q326.7-5.03 325.43-3.26 324.16-1.49 321.87-0.5 319.57 0.49 316.47 0.49L316.47 0.49Q312.98 0.49 310.56-0.76 308.15-2 306.9-3.97 305.66-5.93 305.66-8.13L305.66-8.13 310.22-8.13Q310.34-6.27 311.31-5.19 312.27-4.1 313.68-3.64 315.08-3.17 316.47-3.17L316.47-3.17Q318.33-3.17 319.58-3.67 320.84-4.17 321.49-5.04 322.14-5.91 322.14-7.01Z"
                                 opacity="1"
                                 transform="matrix(1,0,0,1,0,0)"
                                 fill="#000000"
                                 class="undefined-text-1"
                                 data-fill-palette-color="secondary"
                                 id="text-1"
                                 style="fill:#ffffff" />
                            </svg>
                          </g>
                        </svg>
                      </g>
                    </svg>
                  </g>
                </svg>
              </g>
              <g
                 transform="matrix(1,0,0,1,414.7012299013953,10.592278778101495)"
                 id="g8"
                 style="fill:#ffffff">
                <svg
                   viewBox="0 0 244.43135999999998 106.46691668214761"
                   height="106.46691668214761"
                   width="244.43135999999998"
                   version="1.1"
                   id="svg7"
                   style="fill:#ffffff">
                  <g
                     id="g7"
                     style="fill:#ffffff">
                    <svg
                       version="1.1"
                       x="0"
                       y="0"
                       viewBox="9.691994667053223 32.4437141418457 80.6146011352539 35.113285064697266"
                       enable-background="new 0 0 100 100"
                       xml:space="preserve"
                       height="106.46691668214761"
                       width="244.43135999999998"
                       class="icon-icon-0"
                       data-fill-palette-color="accent"
                       id="icon-0"
                       style="fill:#ffffff"><path
                         fill="#000000"
                         d="M90.229 63.861l-2.896-4.58c-0.097-0.154-0.264-0.234-0.452-0.232l-23.692 1.397-6.728-16.772c0 0 0 0 0-0.001l-0.002-0.004c-0.023-0.059-0.066-0.104-0.108-0.148-0.014-0.016-0.02-0.037-0.036-0.05l-0.001-0.001 0 0L43.988 33.232c-0.014-0.012-0.033-0.014-0.048-0.024-0.036-0.024-0.073-0.044-0.116-0.059-0.029-0.01-0.057-0.015-0.087-0.019-0.021-0.003-0.04-0.013-0.062-0.013l-13.875-0.202c-0.011 0-0.02 0.004-0.03 0.004-0.021 0.001-0.039 0.005-0.06 0.008-0.192 0.023-0.329 0.146-0.385 0.318-0.002 0.006-0.007 0.011-0.009 0.017l-0.321 1.006-2.312-1.706 0 0-0.03-0.022c-0.01-0.008-0.024-0.008-0.035-0.015-0.046-0.029-0.096-0.051-0.151-0.063-0.027-0.006-0.053-0.008-0.081-0.01-0.023-0.001-0.044-0.01-0.069-0.008l-16.165 1.28c-0.26 0.021-0.46 0.238-0.46 0.499v6.466c0 0.067 0.014 0.134 0.04 0.196l1.448 3.401c0.032 0.075 0.085 0.135 0.147 0.186 0.015 0.012 0.029 0.019 0.045 0.029 0.029 0.019 0.054 0.043 0.087 0.056l10.144 3.932 1.645 3.796-0.258 0.81-6.019 2.006c-0.211 0.07-0.35 0.271-0.341 0.494 0.009 0.222 0.164 0.412 0.38 0.465l5.186 1.279c0.04 0.01 0.08 0.014 0.119 0.015 0 0 0.001 0 0.001 0l0 0c0 0 0 0 0 0 0 0 0.001 0 0.001 0 0.04 0 0.081-0.004 0.121-0.015l6.355-1.605 4.207-0.255 6.439 5.064-5.833 6.137c-0.142 0.149-0.178 0.37-0.091 0.556 0.082 0.177 0.259 0.289 0.453 0.289 0.01 0 0.02 0 0.03-0.001l18.917-1.146 12.326 1.146c0.007 0 0.013-0.003 0.02-0.003 0.009 0.001 0.016 0.005 0.025 0.005 5.649 0.022 9.454 0.031 12.021 0.031 5.213 0 5.317-0.035 5.383-0.057 0.206-0.068 6.119-2.433 7.302-2.906 0.138-0.055 0.244-0.169 0.29-0.311C90.328 64.141 90.309 63.987 90.229 63.861zM86.645 60.065l0.846 1.337-23.197 1.799-0.712-1.776L86.645 60.065zM21.652 47.435l-8.418-3.263 3.759-1.033 5.062-0.657 0.926 0.353L21.652 47.435zM23.259 41.869l-0.966-0.368c-0.077-0.029-0.161-0.039-0.242-0.028l-5.009 0.655-3.503-7.668 12.139-0.961L23.259 41.869zM10.693 34.685l1.785-0.141 3.573 7.82-4.121 1.128-1.237-2.906V34.685zM22.511 48.064l4.129-14.292 2.036 1.503-4.964 15.561L22.511 48.064zM22.615 54.273l-0.633 1.983-3.055-0.754L22.615 54.273zM29.105 37.219l-0.871 17.625-5.168 1.305L29.105 37.219zM30.27 33.922l12.601 0.184-10.03 20.381-3.598 0.218L30.27 33.922zM33.789 54.826l10.048-20.418 11.427 9.491L40.133 59.815 33.789 54.826zM55.288 45.324l-2.764 20.082-17.317 1.044L55.288 45.324zM53.529 65.436l2.704-19.644 8.288 20.66L53.529 65.436zM82.467 66.53c-0.493 0.044-10.212 0.023-16.839-0.003l-0.943-2.353 23.411-1.815 0.967 1.529C86.291 64.996 82.572 66.481 82.467 66.53z"
                         data-fill-palette-color="accent"
                         id="path6"
                         style="fill:#ffffff" /></svg>
                  </g>
                </svg>
              </g>
            </svg>
          </g>
          <defs
             id="defs9" />
        </svg>
      </g>
    </svg>
  </g>
</svg>
