<?xml version="1.0" encoding="UTF-8" standalone="no"?>
<svg
   version="1.1"
   width="620"
   height="620"
   viewBox="0 0 620 620.00001"
   id="svg11"
   sodipodi:docname="logos.svg"
   inkscape:version="1.3 (0e150ed6c4, 2023-07-21)"
   xmlns:inkscape="http://www.inkscape.org/namespaces/inkscape"
   xmlns:sodipodi="http://sodipodi.sourceforge.net/DTD/sodipodi-0.dtd"
   xmlns="http://www.w3.org/2000/svg"
   xmlns:svg="http://www.w3.org/2000/svg">
  <defs
     id="defs11">
    <defs
       id="defs9" />
  </defs>
  <sodipodi:namedview
     id="namedview11"
     pagecolor="#ffffff"
     bordercolor="#000000"
     borderopacity="0.25"
     inkscape:showpageshadow="2"
     inkscape:pageopacity="0.0"
     inkscape:pagecheckerboard="0"
     inkscape:deskcolor="#d1d1d1"
     inkscape:zoom="0.2615"
     inkscape:cx="-546.84513"
     inkscape:cy="455.06692"
     inkscape:window-width="1920"
     inkscape:window-height="1009"
     inkscape:window-x="-8"
     inkscape:window-y="-8"
     inkscape:window-maximized="1"
     inkscape:current-layer="svg11">
    <inkscape:page
       x="0"
       y="0"
       width="620"
       height="620"
       id="page1"
       margin="0 363.69354 0 0"
       bleed="0" />
    <inkscape:page
       x="-1401.5297"
       y="0"
       width="1220"
       height="310"
       id="page8"
       margin="0"
       bleed="0"
       inkscape:export-filename="logo-rect-2lines.svg"
       inkscape:export-xdpi="96"
       inkscape:export-ydpi="96" />
    <inkscape:page
       x="0"
       y="707.45697"
       width="620"
       height="480"
       id="page9"
       margin="0"
       bleed="0" />
  </sodipodi:namedview>
  <svg
     viewBox="0 0 244.43136 106.46692"
     height="106.46692"
     width="244.43137"
     version="1.1"
     id="svg7"
     style="fill:#000000"
     transform="translate(0,-728.48949)" />
  <path
     d="m 174.09566,567.30428 v -17.89915 q 0,-3.10602 -1.84237,-4.96137 -1.84254,-1.84264 -5.44889,-1.84264 v 0 q -2.21106,0 -3.89549,0.76299 -1.69788,0.77682 -2.61929,2.02697 -0.93446,1.26364 -0.93446,2.73751 v 0 h -6.01462 q 0,-2.51387 1.71098,-4.86955 1.69778,-2.3557 4.80384,-3.8826 3.0931,-1.52672 7.3043,-1.52672 v 0 q 3.79045,0 6.71249,1.27664 2.92146,1.2897 4.57982,3.86947 1.65826,2.59301 1.65826,6.47531 v 0 16.20137 q 0,1.73681 0.30286,3.69795 0.30249,1.96092 0.92128,3.36921 v 0 0.51331 h -6.2647 q -0.46075,-1.02663 -0.71084,-2.75049 -0.26317,-1.71077 -0.26317,-3.19821 z m 1.03955,-15.13518 0.0515,4.18511 h -5.97548 q -5.06672,0 -7.8305,1.60584 -2.76402,1.60538 -2.76402,4.81704 v 0 q 0,2.51369 1.6849,4.2376 1.68436,1.73745 4.93504,1.73745 v 0 q 2.72443,0 4.81691,-1.15811 2.07957,-1.15858 3.30375,-2.85595 1.22365,-1.69796 1.31602,-3.27728 v 0 l 2.57955,2.85608 q -0.22377,1.35563 -1.22423,2.9874 -1.00007,1.64492 -2.65841,3.13214 -1.64532,1.50042 -3.90888,2.47432 -2.2636,0.98702 -5.09321,0.98702 v 0 q -3.54023,0 -6.18558,-1.36868 -2.6587,-1.36878 -4.11961,-3.7114 -1.45988,-2.34277 -1.45988,-5.19865 v 0 q 0,-5.63296 4.23773,-8.54139 4.25115,-2.90854 11.41083,-2.90854 v 0 z m 20.80786,-28.27 v 49.35388 h -6.00125 V 523.8991 Z m 16.00363,0 v 49.35388 h -6.01458 V 523.8991 Z m 46.28765,43.40518 v -17.89915 q 0,-3.10602 -1.84239,-4.96137 -1.84298,-1.84264 -5.44875,-1.84264 v 0 q -2.21113,0 -3.89561,0.76299 -1.69787,0.77682 -2.61926,2.02697 -0.93453,1.26364 -0.93453,2.73751 v 0 h -6.01462 q 0,-2.51387 1.71093,-4.86955 1.698,-2.3557 4.8039,-3.8826 3.09271,-1.52672 7.30432,-1.52672 v 0 q 3.79041,0 6.71238,1.27664 2.93452,1.2897 4.57987,3.86947 1.65835,2.59301 1.65835,6.47531 v 0 16.20137 q 0,1.73681 0.30274,3.69795 0.30259,1.96092 0.92148,3.36921 v 0 0.51331 h -6.26478 q -0.44777,-1.02663 -0.71085,-2.75049 -0.26318,-1.71077 -0.26318,-3.19821 z m 1.03953,-15.13518 0.0515,4.18511 h -5.97502 q -5.06665,0 -7.83056,1.60584 -2.76384,1.60538 -2.76384,4.81704 v 0 q 0,2.51369 1.68434,4.2376 1.68481,1.73745 4.93558,1.73745 v 0 q 2.72433,0 4.81703,-1.15811 2.09243,-1.15858 3.30359,-2.85595 1.22359,-1.69796 1.31571,-3.27728 v 0 l 2.57985,2.85608 q -0.22378,1.35563 -1.2241,2.9874 -1.00002,1.64492 -2.64537,3.13214 -1.65847,1.50042 -3.92218,2.47432 -2.26352,0.98702 -5.09302,0.98702 v 0 q -3.54029,0 -6.18568,-1.36868 -2.65876,-1.36878 -4.11954,-3.7114 -1.46076,-2.34277 -1.46076,-5.19865 v 0 q 0,-5.63296 4.23763,-8.54139 4.25115,-2.90854 11.41078,-2.90854 v 0 z m 14.29292,-28.27 h 6.00156 v 42.6023 l -0.51326,6.75158 h -5.4883 z m 29.46757,31.67881 v 0.67125 q 0,5.08007 -1.57928,9.06774 -1.57936,3.98794 -4.59284,6.27761 -3.02711,2.30325 -7.33074,2.30325 v 0 q -4.43543,0 -7.38329,-2.01357 -2.9615,-2.00035 -4.60642,-5.68528 -1.63238,-3.67196 -2.14562,-8.72601 v 0 -3.11905 q 0.51324,-5.10669 2.14562,-8.7916 1.64492,-3.69834 4.5799,-5.71199 2.94794,-2.00054 7.34367,-2.00054 v 0 q 4.36977,0 7.39688,2.21112 3.01348,2.21124 4.59284,6.21226 1.57928,4.00067 1.57928,9.30481 z m -6.01461,0.67125 v -0.67125 q 0,-3.46145 -0.86833,-6.37025 -0.86838,-2.90855 -2.84302,-4.64542 -1.97407,-1.73744 -5.34327,-1.73744 v 0 q -2.22419,0 -3.88253,0.77634 -1.64526,0.76337 -2.80341,2.06623 -1.15816,1.30308 -1.8819,2.96151 -0.7239,1.64489 -1.07906,3.42165 v 0 7.80449 q 0.51328,2.25069 1.67129,4.31682 1.1581,2.07947 3.13221,3.39568 1.97434,1.3163 4.89589,1.3163 v 0 q 3.22471,0 5.1988,-1.72457 1.97388,-1.71077 2.88237,-4.57991 0.92096,-2.85583 0.92096,-6.33018 z m 11.9506,0 v -0.73729 q 0,-5.04066 1.92156,-9.02806 1.93455,-3.97499 5.46174,-6.30449 3.54032,-2.3296 8.39684,-2.3296 v 0 q 4.90902,0 8.4753,2.3296 3.56686,2.3295 5.47529,6.30449 1.92152,3.9874 1.92152,9.02806 v 0 0.73729 q 0,5.01417 -1.92152,9.01509 -1.90843,4.00105 -5.46174,6.31721 -3.54033,2.3163 -8.42334,2.3163 v 0 q -4.89592,0 -8.4363,-2.3163 -3.55324,-2.31616 -5.48779,-6.31721 -1.92156,-4.00092 -1.92156,-9.01509 z m 6.00121,-0.73729 v 0.73729 q 0,3.4479 1.09245,6.36985 1.09205,2.92148 3.26372,4.68527 2.17162,1.7765 5.48827,1.7765 v 0 q 3.27728,0 5.43585,-1.7765 2.17125,-1.76379 3.26366,-4.68527 1.09266,-2.92195 1.09266,-6.36985 v 0 -0.73729 q 0,-3.43477 -1.09266,-6.3568 -1.09241,-2.92146 -3.27716,-4.71131 -2.18467,-1.77694 -5.48786,-1.77694 v 0 q -3.25114,0 -5.43578,1.77694 -2.18461,1.78985 -3.26373,4.71131 -1.07942,2.92203 -1.07942,6.3568 z m 54.3684,9.71294 v -26.74333 h 6.01451 v 34.7715 h -5.72493 z m 1.13203,-7.33073 2.50031,-0.065 q 0,4.63235 -1.31628,8.26485 -1.31567,3.61927 -4.30359,5.71182 -2.98764,2.09262 -8.0017,2.09262 v 0 q -5.10663,0 -8.26521,-3.02713 -3.14554,-3.01346 -3.14554,-9.96254 v 0 -22.42651 h 6.01455 v 22.49198 q 0,3.15869 0.90856,4.86996 0.92084,1.72394 2.38162,2.38172 1.46114,0.65835 3.06665,0.65835 v 0 q 3.7904,0 6.01444,-1.46065 2.21123,-1.46126 3.17231,-3.975 0.97388,-2.50037 0.97388,-5.55393 z m 28.49357,-19.4126 v 4.54048 h -18.83358 v -4.54048 z m -12.50293,-8.44921 h 6.01467 v 34.61325 q 0,1.78993 0.53933,2.69843 0.5527,0.89496 1.42168,1.18412 0.85539,0.28961 1.8554,0.28961 v 0 q 0.73688,0 1.56635,-0.13023 0.81582,-0.1169 1.19755,-0.22355 v 0 l 0.0391,4.79032 q -0.71093,0.22414 -1.85599,0.4343 -1.13161,0.21058 -2.75043,0.21058 v 0 q -2.18461,0 -4.01393,-0.86846 -1.82953,-0.8684 -2.92208,-2.9085 -1.09197,-2.04001 -1.09197,-5.51437 v 0 z m 57.63211,36.46913 v -42.6023 h 6.0146 v 49.35388 H 444.621 Z m -23.3479,-10.25224 v -0.67125 q 0,-5.30414 1.71138,-9.30481 1.72388,-4.00102 4.80348,-6.21226 3.09298,-2.21112 7.23859,-2.21112 v 0 q 4.36931,0 7.29137,2.00054 2.92154,2.01365 4.57985,5.71199 1.64529,3.68491 2.13205,8.7916 v 0 3.11905 q -0.48676,5.05405 -2.11858,8.72601 -1.64538,3.68493 -4.58038,5.68528 -2.935,2.01357 -7.37028,2.01357 v 0 q -4.07964,0 -7.17262,-2.30325 -3.0796,-2.28967 -4.80348,-6.27761 -1.71138,-3.98767 -1.71138,-9.06774 z m 6.00156,-0.67125 v 0.67125 q 0,3.47435 0.9474,6.33018 0.94799,2.86914 2.97452,4.57991 2.02713,1.72457 5.23824,1.72457 v 0 q 2.96104,0 4.86961,-1.25072 1.90842,-1.25015 3.06646,-3.31622 1.1581,-2.053 1.80293,-4.46186 v 0 -7.80449 q -0.39454,-1.77676 -1.11859,-3.42165 -0.71076,-1.65843 -1.85548,-2.96151 -1.14506,-1.30286 -2.80338,-2.06623 -1.64538,-0.77634 -3.89553,-0.77634 v 0 q -3.25114,0 -5.29117,1.73744 -2.03962,1.73687 -2.98761,4.64542 -0.9474,2.9088 -0.9474,6.37025 z m 53.0788,11.72637 v -17.89915 q 0,-3.10602 -1.84257,-4.96137 -1.85596,-1.84264 -5.44884,-1.84264 v 0 q -2.22403,0 -3.90889,0.76299 -1.68439,0.77682 -2.61878,2.02697 -0.9346,1.26364 -0.9346,2.73751 v 0 h -6.00151 q 0,-2.51387 1.69776,-4.86955 1.71088,-2.3557 4.80398,-3.8826 3.10562,-1.52672 7.31725,-1.52672 v 0 q 3.79056,0 6.71246,1.27664 2.92157,1.2897 4.5799,3.86947 1.65837,2.59301 1.65837,6.47531 v 0 16.20137 q 0,1.73681 0.30259,3.69795 0.30275,1.96092 0.90803,3.36921 v 0 0.51331 h -6.26475 q -0.44728,-1.02663 -0.6974,-2.75049 -0.263,-1.71077 -0.263,-3.19821 z m 1.02642,-15.13518 0.0649,4.18511 h -5.97505 q -5.08016,0 -7.84405,1.60584 -2.76354,1.60538 -2.76354,4.81704 v 0 q 0,2.51369 1.69749,4.2376 1.68486,1.73745 4.92241,1.73745 v 0 q 2.73751,0 4.81721,-1.15811 2.09243,-1.15858 3.31653,-2.85595 1.22371,-1.69796 1.31565,-3.27728 v 0 l 2.56695,2.85608 q -0.22407,1.35563 -1.21126,2.9874 -1.00007,1.64492 -2.65834,3.13214 -1.65831,1.50042 -3.92202,2.47432 -2.26361,0.98702 -5.09346,0.98702 v 0 q -3.52696,0 -6.18568,-1.36868 -2.64555,-1.36878 -4.10625,-3.7114 -1.46073,-2.34277 -1.46073,-5.19865 v 0 q 0,-5.63296 4.23778,-8.54139 4.23801,-2.90854 11.41088,-2.90854 v 0 z m 20.26797,-6.77802 v 27.8619 h -6.00157 v -34.7715 h 5.68577 z m -1.21077,9.13372 -2.80333,-0.10347 q 0.039,-4.75144 1.63183,-8.48881 1.57931,-3.75105 4.71196,-5.92263 3.14556,-2.15855 7.80441,-2.15855 v 0 q 4.8826,0 8.0546,2.85606 3.18477,2.85591 3.18477,9.38367 v 0 23.16343 h -6.01466 v -22.87387 q 0,-2.73733 -0.90791,-4.39574 -0.92155,-1.6453 -2.59287,-2.40866 -1.67132,-0.74991 -3.90859,-0.74991 v 0 q -2.60629,0 -4.35668,0.93445 -1.75039,0.93438 -2.81626,2.56633 -1.05276,1.64483 -1.5264,3.75096 -0.46087,2.09248 -0.46087,4.44826 z m 22.51858,-3.27711 -4.01405,1.21117 q 0.0268,-3.79053 1.61883,-7.13377 1.59244,-3.32967 4.6719,-5.40885 3.09309,-2.06652 7.52837,-2.06652 v 0 q 3.7244,0 6.33027,1.31614 2.59285,1.31627 3.94859,4.0801 1.35517,2.76339 1.35517,7.15973 v 0 22.84729 h -6.01461 v -22.91337 q 0,-2.9219 -0.92081,-4.55382 -0.9081,-1.64486 -2.56642,-2.3031 -1.65836,-0.65789 -3.90907,-0.65789 v 0 q -1.94796,0 -3.44825,0.6713 -1.48717,0.68438 -2.50034,1.85562 -1.01348,1.17102 -1.55326,2.67177 -0.52632,1.51333 -0.52632,3.2242 z m 50.64369,12.77956 v 0 q 0,-1.27673 -0.56585,-2.39527 -0.56579,-1.10564 -2.26375,-2.01351 -1.71091,-0.92149 -5.14605,-1.6324 v 0 q -3.85598,-0.80285 -6.67246,-2.04001 -2.80341,-1.23706 -4.33026,-3.15859 -1.52663,-1.93451 -1.52663,-4.79048 v 0 q 0,-2.76388 1.59263,-5.05362 1.59246,-2.30324 4.50092,-3.69846 2.90888,-1.39519 6.7915,-1.39519 v 0 q 4.17156,0 7.14604,1.46079 2.97454,1.4613 4.55398,3.92201 1.56617,2.44822 1.56617,5.43581 v 0 h -6.00155 q 0,-2.14559 -1.88202,-4.08004 -1.88195,-1.92147 -5.38262,-1.92147 v 0 q -2.44838,0 -3.975,0.75032 -1.52638,0.76334 -2.21073,1.93458 -0.69788,1.17102 -0.69788,2.44758 v 0 q 0,1.29008 0.64481,2.23776 0.64482,0.94731 2.3692,1.68429 1.71084,0.73751 4.98813,1.48742 v 0 q 4.27712,0.96081 7.04104,2.3031 2.76399,1.35564 4.1197,3.31672 1.34212,1.9608 1.34212,4.79044 v 0 q 0,3.01407 -1.67129,5.34369 -1.67141,2.32925 -4.68546,3.6323 -3.02711,1.30274 -7.10718,1.30274 v 0 q -4.59287,0 -7.77799,-1.64481 -3.1717,-1.63191 -4.81699,-4.22466 -1.63182,-2.57981 -1.63182,-5.47532 v 0 h 6.00118 q 0.15608,2.44816 1.43466,3.86949 1.26366,1.43472 3.11909,2.04002 1.8425,0.6183 3.67187,0.6183 v 0 q 2.44823,0 4.09313,-0.6578 1.65846,-0.65792 2.5138,-1.80298 0.85556,-1.14512 0.85556,-2.59275 z"
     opacity="1"
     fill="#000000"
     class="undefined-text-1"
     data-fill-palette-color="secondary"
     id="text-1"
     style="fill:#000000;stroke-width:1.31611" />
  <path
     fill="#000000"
     d="m 601.96815,286.60378 -21.01776,-33.23944 c -0.70401,-1.11766 -1.91601,-1.69824 -3.2804,-1.68374 l -171.9452,10.13875 -48.82862,-121.72313 v -0.007 l -0.0143,-0.029 c -0.16683,-0.42821 -0.47901,-0.75479 -0.78383,-1.07414 -0.10144,-0.11608 -0.14505,-0.2685 -0.26125,-0.36286 l -0.007,-0.007 v 0 l -89.4559,-74.301813 c -0.10145,-0.0871 -0.23947,-0.10167 -0.34836,-0.17424 -0.26125,-0.17426 -0.52979,-0.31933 -0.84188,-0.42819 -0.21038,-0.0726 -0.41367,-0.10886 -0.63139,-0.13787 -0.15246,-0.0216 -0.29031,-0.0943 -0.44996,-0.0943 l -100.69815,-1.466 c -0.0796,0 -0.14505,0.029 -0.21781,0.029 -0.15247,0.007 -0.28306,0.0364 -0.43547,0.0582 -1.39342,0.16684 -2.38772,1.05961 -2.79414,2.3079 -0.0143,0.0436 -0.0508,0.0797 -0.0654,0.12327 l -2.32965,7.30106 -16.77938,-12.38133 v 0 l -0.21782,-0.15964 c -0.0726,-0.0582 -0.17425,-0.0582 -0.25404,-0.10898 -0.33381,-0.21038 -0.69671,-0.37014 -1.09586,-0.45724 -0.19604,-0.0436 -0.38464,-0.0579 -0.58785,-0.0725 -0.16684,-0.007 -0.31934,-0.0726 -0.50079,-0.0582 l -117.317811,9.28962 c -1.886967,0.15247 -3.338448,1.72729 -3.338448,3.62151 V 118.4336 c 0,0.48626 0.101482,0.97251 0.290291,1.42248 l 10.508897,24.68283 c 0.232175,0.54432 0.616893,0.97976 1.066859,1.3499 0.108906,0.0872 0.210394,0.13787 0.326578,0.2104 0.210394,0.13787 0.391898,0.31207 0.631398,0.40642 l 73.620296,28.53658 11.93862,27.54955 -1.87244,5.87859 -43.682998,14.55859 c -1.531363,0.50804 -2.540145,1.96679 -2.474829,3.5852 0.06539,1.61118 1.190219,2.99012 2.757859,3.37476 l 37.637508,9.28236 c 0.29028,0.0726 0.5806,0.10167 0.86365,0.10886 h 0.008 v 0 0 h 0.007 c 0.2903,0 0.58785,-0.029 0.87817,-0.10886 l 46.12155,-11.64831 30.53237,-1.85067 46.73119,36.75207 -42.33313,44.53942 c -1.03056,1.08137 -1.29184,2.68528 -0.66044,4.03517 0.59514,1.28461 1.87972,2.09744 3.28766,2.09744 0.0726,0 0.14529,0 0.21781,-0.007 l 137.29052,-8.31711 89.45622,8.31711 c 0.0508,0 0.0943,-0.0215 0.14506,-0.0215 0.0654,0.007 0.11608,0.0364 0.18143,0.0364 40.99772,0.15965 68.61259,0.22499 87.24264,0.22499 37.83347,0 38.58826,-0.254 39.06726,-0.41368 1.49504,-0.49349 44.40875,-17.65754 52.99442,-21.09036 1.00154,-0.39914 1.77083,-1.22652 2.10465,-2.25709 0.33386,-1.03058 0.19604,-2.14822 -0.38464,-3.06266 z m -26.01096,-27.54954 6.13988,9.70331 -168.35274,13.05628 -5.16734,-12.88938 z m -471.68806,-91.66248 -61.093822,-23.68131 27.281008,-7.49703 36.737574,-4.7682 6.72045,2.56194 z m 11.66282,-40.39538 -7.01076,-2.67076 c -0.55884,-0.21039 -1.16847,-0.28306 -1.75634,-0.20321 L 70.811929,128.87607 45.388853,73.225417 133.48789,66.250927 Z M 24.733948,74.858357 37.688613,73.835037 63.619746,130.58886 33.71149,138.77532 24.733948,117.68499 Z m 85.769382,97.098383 14.98315,-51.86225 14.98314,-51.862263 14.77631,10.90807 -36.02631,112.934273 z m 0.75478,45.06194 -4.59401,14.39167 -22.171727,-5.47218 z m 47.1013,-123.769773 -6.32131,127.913813 -37.50687,9.47108 z m 8.45502,-23.92804 91.45202,1.33537 -72.79293,147.915553 -26.11256,1.58214 z m 25.53922,151.711213 72.92358,-148.184053 82.9317,68.881123 -109.81356,115.51072 z m 156.02945,-68.96096 -20.05979,145.74552 -125.6785,7.57685 96.11738,-101.11923 z m -12.76598,145.96327 19.62434,-142.56675 60.15033,149.94039 z m 210.01815,7.93971 c -3.57794,0.31933 -74.11379,0.16684 -122.2094,-0.0215 l -6.84385,-17.07694 169.90585,-13.1724 7.01802,11.09676 c -20.11786,8.04132 -47.10857,18.81874 -47.87062,19.17436 z"
     data-fill-palette-color="accent"
     id="path6"
     style="fill:#000000;stroke:#000000;stroke-width:4.93941;stroke-dasharray:none;stroke-opacity:1;paint-order:stroke markers fill"
     sodipodi:nodetypes="ccccccccccccsccccccsccccccccccssccccccccccccccccsccccccscccccsccscccccccccccccccccccccccccccccccccccccccccccccccccccccccccccccccccc" />
  <path
     d="M 54.937365,416.99176 H 32.305782 l -0.12539,-15.48871 h 18.295747 q 7.142852,0 10.02506,-2.18045 2.882208,-2.15539 2.882208,-6.5163 v 0 q 0,-5.13785 -3.00751,-7.29324 -2.98246,-2.18044 -9.724315,-2.18044 v 0 H 40.977393 V 453.884 H 17.969876 v -89.09775 h 32.681706 q 16.766914,0 26.215534,6.16541 9.473686,6.14035 9.473686,18.69675 v 0 q 0,5.43859 -2.330819,10.30076 -2.330829,4.86214 -7.869674,7.86967 -5.53886,2.98245 -15.213034,2.93232 v 0 z M 54.085241,453.884 H 26.741874 l 7.819547,-18.47117 h 19.52382 q 6.165413,0 8.621545,-2.58146 2.456145,-2.55639 2.456145,-5.93985 v 0 q 0,-3.10778 -1.002503,-5.31329 -1.027566,-2.20551 -3.258142,-3.40852 -2.230576,-1.17795 -5.964921,-1.17795 v 0 h -18.34586 l 0.125391,-15.48871 h 21.654128 l 5.388479,6.31579 q 9.223049,-0.62657 14.511277,2.23058 5.313274,2.83208 7.543869,7.51878 2.230575,4.68673 2.230575,9.69926 v 0 q 0,13.28322 -8.571435,19.94987 -8.571432,6.66667 -25.388473,6.66667 z m 78.120299,-17.7945 v -25.71428 q 0,-3.65914 -1.55389,-5.8396 -1.5539,-2.18045 -5.36341,-2.18045 v 0 q -2.00501,0 -3.38346,0.62656 -1.37844,0.60151 -2.0802,1.9549 -0.70176,1.35338 -0.70176,3.60901 v 0 H 97.092755 q 0,-6.49121 3.609025,-11.45361 3.60901,-4.93737 10.22557,-7.79449 6.59147,-2.83208 15.53883,-2.83208 v 0 q 7.94487,0 14.26066,2.65664 6.29073,2.65664 9.97494,8.02004 3.65915,5.33834 3.65915,13.3584 v 0 26.14034 q 0,7.14287 0.77693,10.40101 0.75189,3.23308 2.10528,5.73935 v 0 1.10276 h -22.03008 q -1.52883,-3.23308 -2.25564,-7.94486 -0.75188,-4.71179 -0.75188,-9.84964 z m 2.63157,-22.90726 0.12524,12.00502 h -8.49624 q -5.21304,0 -7.0426,2.80702 -1.82958,2.83207 -1.82958,5.93984 v 0 q 0,2.25564 1.6792,3.63409 1.6792,1.37844 4.18547,1.37844 v 0 q 3.13283,0 5.28821,-1.12782 2.18046,-1.12782 3.2832,-2.65664 1.10276,-1.52881 0.92734,-2.6817 v 0 l 4.71176,9.22305 q -1.22806,2.38095 -2.73183,4.73685 -1.50375,2.35589 -3.70926,4.31077 -2.20551,1.97996 -5.38848,3.1579 -3.18295,1.20302 -7.69423,1.20302 v 0 q -6.06515,0 -11.22807,-2.50628 -5.1629,-2.50626 -8.295732,-7.04259 -3.132841,-4.53635 -3.132841,-10.52634 v 0 q 0,-10.22556 7.543873,-16.04009 7.51879,-5.81454 23.60902,-5.81454 v 0 z m 52.38095,-7.81955 V 453.884 h -22.03007 v -66.21555 h 20.55139 z m 19.09775,-18.17043 -0.37594,21.52883 q -1.2782,-0.12539 -3.45865,-0.30074 -2.18044,-0.17545 -3.50877,-0.17545 v 0 q -4.66165,0 -7.56892,1.17795 -2.90727,1.20301 -4.18547,3.70926 -1.27819,2.50628 -1.22806,6.61654 v 0 l -3.85966,-3.30826 q 0,-8.9975 2.28071,-15.76442 2.25564,-6.76691 6.39098,-10.50124 4.13533,-3.70927 9.69925,-3.70927 v 0 q 1.52882,0 3.0827,0.15036 1.55388,0.15039 2.73183,0.57644 z M 235.188,405.36269 V 453.884 h -22.03008 v -66.21555 h 20.55138 z m 19.07268,-18.17043 -0.35088,21.52883 q -1.2782,-0.12539 -3.45865,-0.30074 -2.18045,-0.17545 -3.53383,-0.17545 v 0 q -4.6366,0 -7.54386,1.17795 -2.90727,1.20301 -4.18546,3.70926 -1.30327,2.50628 -1.22808,6.61654 v 0 l -3.85965,-3.30826 q 0,-8.9975 2.25565,-15.76442 2.2807,-6.76691 6.41604,-10.50124 4.11027,-3.70927 9.67417,-3.70927 v 0 q 1.5539,0 3.10778,0.15036 1.55388,0.15039 2.70677,0.57644 z m 40.92731,48.89724 v -25.71428 q 0,-3.65914 -1.55388,-5.8396 -1.55388,-2.18045 -5.33834,-2.18045 v 0 q -2.03008,0 -3.40852,0.62656 -1.37846,0.60151 -2.08021,1.9549 -0.70174,1.35338 -0.70174,3.60901 v 0 h -22.03008 q 0,-6.49121 3.60901,-11.45361 3.60903,-4.93737 10.22557,-7.79449 6.61654,-2.83208 15.53885,-2.83208 v 0 q 7.94487,0 14.26064,2.65664 6.29073,2.65664 9.97496,8.02004 3.65914,5.33834 3.65914,13.3584 v 0 26.14034 q 0,7.14287 0.77694,10.40101 0.75187,3.23308 2.10526,5.73935 v 0 1.10276 h -22.03008 q -1.52881,-3.23308 -2.25563,-7.94486 -0.75189,-4.71179 -0.75189,-9.84964 z m 2.63158,-22.90726 0.1254,12.00502 h -8.49624 q -5.21304,0 -7.04262,2.80702 -1.82958,2.83207 -1.82958,5.93984 v 0 q 0,2.25564 1.6792,3.63409 1.6792,1.37844 4.18547,1.37844 v 0 q 3.13282,0 5.31329,-1.12782 2.15539,-1.12782 3.25815,-2.65664 1.10275,-1.52881 0.9273,-2.6817 v 0 l 4.7118,9.22305 q -1.22808,2.38095 -2.73183,4.73685 -1.50377,2.35589 -3.70929,4.31077 -2.18045,1.97996 -5.3634,3.1579 -3.18297,1.20302 -7.71931,1.20302 v 0 q -6.06516,0 -11.22806,-2.50628 -5.1629,-2.50626 -8.29574,-7.04259 -3.10776,-4.53635 -3.10776,-10.52634 v 0 q 0,-10.22556 7.51878,-16.04009 7.51881,-5.81454 23.60902,-5.81454 v 0 z m 71.52883,-25.51379 h 20.02506 v 63.33334 q 0,9.29824 -4.33584,15.76442 -4.31077,6.4411 -12.0802,9.79951 -7.76942,3.33332 -18.04512,3.33332 v 0 q -4.41102,0 -9.09773,-1.10275 -4.66166,-1.10276 -8.79701,-3.25817 -4.13532,-2.13031 -6.89223,-5.18795 v 0 l 9.17294,-13.65915 q 2.33083,2.40602 6.09023,4.31077 3.78447,1.92983 8.797,1.92983 v 0 q 6.36591,0 9.69923,-3.20803 3.33335,-3.20802 3.33335,-8.97243 v 0 -47.16792 z m -43.73435,33.90978 v -1.2782 q 0,-10.05012 3.28323,-17.66916 3.30827,-7.61906 9.47368,-11.90476 6.14035,-4.26065 14.58646,-4.26065 v 0 q 6.9173,0 11.2782,2.70676 4.38596,2.73183 6.99247,7.56892 2.58147,4.8371 4.03509,11.22807 1.42859,6.39097 2.48122,13.73434 v 0 -0.72683 q -1.40352,9.04762 -4.16042,16.84211 -2.75688,7.79449 -7.74435,12.55639 -4.98747,4.73686 -13.00752,4.73686 v 0 q -8.37093,0 -14.51127,-4.38598 -6.11529,-4.3609 -9.42356,-11.95488 -3.28323,-7.59399 -3.28323,-17.19299 z m 22.08021,-1.2782 v 1.2782 q 0,4.46115 1.20301,8.04512 1.17795,3.58396 3.5589,5.66416 2.40601,2.0802 6.06516,2.0802 v 0 q 4.23558,0 6.79199,-1.77946 2.58144,-1.77945 3.6842,-5.13784 1.10276,-3.3584 0.77695,-8.07017 v 0 -2.08021 q 0.2005,-4.23558 -0.40101,-7.29323 -0.57644,-3.05764 -1.95488,-4.98747 -1.37844,-1.92981 -3.53385,-2.88221 -2.18045,-0.92731 -5.23808,-0.92731 v 0 q -3.55891,0 -5.98999,2.0802 -2.45612,2.08021 -3.70927,5.68922 -1.25313,3.60903 -1.25313,8.3208 z m 75.86468,-32.63158 V 453.884 h -22.08021 v -66.21555 z m -23.30828,-16.76692 v 0 q 0,-4.88721 3.35839,-7.94486 3.3584,-3.05763 8.74686,-3.05763 v 0 q 5.46367,0 8.79701,3.05763 3.33333,3.05765 3.33333,7.94486 v 0 q 0,4.83711 -3.33333,7.94487 -3.33334,3.08272 -8.79701,3.08272 v 0 q -5.38846,0 -8.74686,-3.08272 -3.35839,-3.10776 -3.35839,-7.94487 z m 69.44863,64.08522 v 0 q 0,-1.52882 -1.07771,-2.50626 -1.07769,-1.0025 -3.75939,-1.8797 -2.70677,-0.87719 -7.59399,-1.92982 v 0 q -6.36591,-1.40351 -11.6792,-4.01002 -5.33834,-2.60654 -8.47118,-6.76692 -3.15789,-4.16041 -3.15789,-10.02506 v 0 q 0,-5.68923 3.23308,-10.57646 3.25816,-4.91228 9.42357,-7.86967 6.19047,-2.95738 14.98746,-2.95738 v 0 q 9.07269,0 15.66416,2.73182 6.61654,2.75689 10.2005,7.66917 3.58397,4.88721 3.58397,11.42857 v 0 h -22.03008 q 0,-3.60902 -1.65413,-5.26316 -1.65413,-1.65413 -5.81455,-1.65413 v 0 q -1.70425,0 -3.2832,0.62657 -1.55388,0.60151 -2.50627,1.75438 -0.95237,1.17795 -0.95237,2.9574 v 0 q 0,1.52882 1.15287,2.70677 1.12782,1.20301 3.38347,2.05513 2.25563,0.85214 5.76441,1.40352 v 0 q 6.54135,1.10275 12.43108,3.30827 5.91478,2.20551 9.64912,6.49122 3.73433,4.28572 3.73433,11.67921 v 0 q 0,5.88972 -3.58396,10.6015 -3.58396,4.71177 -10.20051,7.41855 -6.59147,2.73183 -15.58897,2.73183 v 0 q -9.67418,0 -16.29072,-3.48371 -6.59147,-3.48372 -9.99999,-8.79701 -3.38347,-5.28821 -3.38347,-10.6015 v 0 h 20.55138 q 0.12539,2.63159 1.32833,4.36091 1.17794,1.75438 3.33332,2.63158 2.13033,0.90224 5.06266,0.90224 v 0 q 2.50628,0 4.16041,-0.62656 1.65413,-0.6015 2.50626,-1.77944 0.8772,-1.15288 0.8772,-2.73184 z m 66.14034,-47.3183 v 15.91479 h -40.70175 v -15.91479 z m -32.63158,-16.44109 h 22.03008 v 59.82455 q 0,2.33084 0.55138,3.65916 0.55138,1.30326 1.97994,1.85464 1.45365,0.55138 3.9599,0.55138 v 0 q 1.70426,0 2.88221,-0.0501 1.15288,-0.0752 2.13033,-0.25063 v 0 l -0.0501,16.39098 q -2.83208,0.97744 -5.68922,1.45362 -2.88221,0.45114 -6.3158,0.45114 v 0 q -6.8421,0 -11.65413,-2.18046 -4.81204,-2.18045 -7.3183,-6.79197 -2.50627,-4.61153 -2.50627,-11.90476 v 0 z m 73.78447,64.86214 v -25.71428 q 0,-3.65914 -1.55389,-5.8396 -1.55388,-2.18045 -5.36341,-2.18045 v 0 q -2.00501,0 -3.38346,0.62656 -1.37843,0.60151 -2.0802,1.9549 -0.70175,1.35338 -0.70175,3.60901 v 0 h -22.03008 q 0,-6.49121 3.60902,-11.45361 3.60904,-4.93737 10.22558,-7.79449 6.59147,-2.83208 15.53883,-2.83208 v 0 q 7.94487,0 14.26066,2.65664 6.29074,2.65664 9.97494,8.02004 3.65915,5.33834 3.65915,13.3584 v 0 26.14034 q 0,7.14287 0.77694,10.40101 0.75188,3.23308 2.10527,5.73935 v 0 1.10276 h -22.03008 q -1.52883,-3.23308 -2.25563,-7.94486 -0.75189,-4.71179 -0.75189,-9.84964 z m 2.63158,-22.90726 0.12523,12.00502 h -8.49624 q -5.21302,0 -7.0426,2.80702 -1.82957,2.83207 -1.82957,5.93984 v 0 q 0,2.25564 1.67919,3.63409 1.6792,1.37844 4.18548,1.37844 v 0 q 3.13282,0 5.28821,-1.12782 2.18044,-1.12782 3.2832,-2.65664 1.10276,-1.52881 0.92733,-2.6817 v 0 l 4.71177,9.22305 q -1.22806,2.38095 -2.73183,4.73685 -1.50375,2.35589 -3.70927,4.31077 -2.2055,1.97996 -5.38847,3.1579 -3.18295,1.20302 -7.69423,1.20302 v 0 q -6.06516,0 -11.22808,-2.50628 -5.1629,-2.50626 -8.29574,-7.04259 -3.10777,-4.53635 -3.10777,-10.52634 v 0 q 0,-10.22556 7.51881,-16.04009 7.51879,-5.81454 23.60902,-5.81454 v 0 z"
     opacity="1"
     fill="#000000"
     class="undefined-text-0"
     data-fill-palette-color="primary"
     id="text-0"
     style="fill:#000000;stroke-width:2.50628" />
  <path
     d="M -1210.0143,99.518945 V 81.619729 q 0,-3.10602 -1.8429,-4.96146 -1.8429,-1.8426 -5.4487,-1.8426 v 0 q -2.2107,0 -3.8958,0.76305 -1.698,0.77675 -2.6184,2.0269 -0.9353,1.26372 -0.9353,2.73755 v 0 h -6.0138 q 0,-2.51384 1.7104,-4.86955 1.6979,-2.35567 4.8037,-3.8826 3.0934,-1.52669 7.3041,-1.52669 v 0 q 3.7909,0 6.7117,1.27658 2.9231,1.28968 4.5809,3.86949 1.6578,2.59294 1.6578,6.4753 v 0 16.201486 q 0,1.73683 0.3026,3.697795 0.3025,1.96094 0.9229,3.36927 v 0 0.51336 h -6.2664 q -0.4603,-1.02672 -0.7103,-2.75044 -0.2625,-1.71083 -0.2625,-3.198225 z m 1.0402,-15.135246 0.05,4.18515 h -5.977 q -5.0656,0 -7.8288,1.60577 -2.7659,1.60533 -2.7659,4.817126 v 0 q 0,2.51357 1.6857,4.23754 1.6851,1.737535 4.9358,1.737535 v 0 q 2.7232,0 4.8161,-1.158225 2.0806,-1.15863 3.3035,-2.85592 1.225,-1.69796 1.3153,-3.27732 v 0 l 2.5805,2.8562 q -0.2225,1.35563 -1.2228,2.98739 -1.0002,1.644895 -2.6607,3.132035 -1.6455,1.50052 -3.9085,2.47429 -2.2629,0.98717 -5.0935,0.98717 v 0 q -3.5409,0 -6.1838,-1.36877 -2.6607,-1.36877 -4.1211,-3.71134 -1.4594,-2.342805 -1.4594,-5.198735 v 0 q 0,-5.632996 4.2384,-8.541316 4.251,-2.90858 11.4103,-2.90858 v 0 z m 20.8072,-28.26999 v 49.353901 h -6.0011 V 56.113709 Z m 16.0036,0 v 49.353901 h -6.0139 V 56.113709 Z m 46.2872,43.405236 V 81.619729 q 0,-3.10602 -1.8424,-4.96146 -1.843,-1.8426 -5.4488,-1.8426 v 0 q -2.2111,0 -3.8955,0.76305 -1.6979,0.77675 -2.6194,2.0269 -0.9343,1.26372 -0.9343,2.73755 v 0 h -6.0134 q 0,-2.51384 1.7103,-4.86955 1.6978,-2.35567 4.8032,-3.8826 3.0927,-1.52669 7.3042,-1.52669 v 0 q 3.7905,0 6.7125,1.27658 2.9345,1.28968 4.5799,3.86949 1.6583,2.59294 1.6583,6.4753 v 0 16.201486 q 0,1.73683 0.3027,3.697795 0.3026,1.96094 0.9214,3.36927 v 0 0.51336 h -6.2647 q -0.4477,-1.02672 -0.7108,-2.75044 -0.2632,-1.71083 -0.2632,-3.198225 z m 1.0395,-15.135246 0.052,4.18515 h -5.975 q -5.0668,0 -7.8306,1.60577 -2.7639,1.60533 -2.7639,4.817126 v 0 q 0,2.51357 1.6845,4.23754 1.6847,1.737535 4.9354,1.737535 v 0 q 2.7244,0 4.8169,-1.158225 2.0926,-1.15863 3.3038,-2.85592 1.2236,-1.69796 1.3156,-3.27732 v 0 l 2.5798,2.8562 q -0.2237,1.35563 -1.2241,2.98739 -1.0001,1.644895 -2.6454,3.132035 -1.6583,1.50052 -3.9219,2.47429 -2.2637,0.98717 -5.0932,0.98717 v 0 q -3.5403,0 -6.186,-1.36877 -2.6588,-1.36877 -4.119,-3.71134 -1.4602,-2.342805 -1.4602,-5.198735 v 0 q 0,-5.632996 4.2381,-8.541316 4.25,-2.90858 11.4096,-2.90858 v 0 z m 14.293,-28.26999 h 6.0015 v 42.602236 l -0.5133,6.751665 h -5.4882 z m 29.4675,31.67881 v 0.67127 q 0,5.080086 -1.5793,9.067786 -1.5793,3.987855 -4.5928,6.277595 -3.0271,2.30327 -7.3308,2.30327 v 0 q -4.4353,0 -7.3833,-2.01361 -2.9614,-2.0005 -4.6063,-5.685405 -1.6324,-3.6718 -2.1456,-8.725926 v 0 -3.11914 q 0.5132,-5.10651 2.1456,-8.79145 1.6449,-3.69847 4.5798,-5.71207 2.948,-2.00051 7.3438,-2.00051 v 0 q 4.3697,0 7.3968,2.21109 3.0135,2.21132 4.5928,6.2123 1.5793,4.00056 1.5793,9.3048 z m -6.0146,0.67127 v -0.67127 q 0,-3.46148 -0.8684,-6.37021 -0.8685,-2.9086 -2.843,-4.64542 -1.974,-1.73751 -5.3432,-1.73751 v 0 q -2.2241,0 -3.8825,0.77633 -1.6453,0.76346 -2.8035,2.06629 -1.158,1.30298 -1.8819,2.9614 -0.7239,1.64488 -1.0791,3.42169 v 0 7.80452 q 0.5134,2.250606 1.6714,4.316886 1.1581,2.07933 3.1322,3.39572 1.9744,1.316095 4.8959,1.316095 v 0 q 3.2247,0 5.1987,-1.724405 1.974,-1.71084 2.8824,-4.57988 0.921,-2.855906 0.921,-6.330236 z m 11.9506,0 v -0.73724 q 0,-5.04082 1.9216,-9.02825 1.9345,-3.97499 5.4617,-6.30428 3.5403,-2.32969 8.3968,-2.32969 v 0 q 4.909,0 8.4754,2.32969 3.5668,2.32929 5.4753,6.30428 1.9215,3.98743 1.9215,9.02825 v 0 0.73724 q 0,5.014136 -1.9215,9.015116 -1.9085,4.000995 -5.4618,6.317135 -3.5404,2.3164 -8.4233,2.3164 v 0 q -4.896,0 -8.4364,-2.3164 -3.5532,-2.31614 -5.4877,-6.317135 -1.9216,-4.00098 -1.9216,-9.015116 z m 6.0012,-0.73724 v 0.73724 q 0,3.44791 1.0924,6.369776 1.0922,2.92145 3.2638,4.68538 2.1716,1.776375 5.4883,1.776375 v 0 q 3.2772,0 5.4358,-1.776375 2.1711,-1.76393 3.2637,-4.68538 1.0925,-2.921866 1.0925,-6.369776 v 0 -0.73724 q 0,-3.43479 -1.0925,-6.3569 -1.0926,-2.92146 -3.2773,-4.71138 -2.1846,-1.77678 -5.4878,-1.77678 v 0 q -3.2511,0 -5.4358,1.77678 -2.1846,1.78992 -3.2636,4.71138 -1.0795,2.92211 -1.0795,6.3569 z m 54.3683,9.712826 V 70.696069 h 6.0146 v 34.771541 h -5.7249 z m 1.1321,-7.330706 2.5003,-0.0643 q 0,4.632456 -1.3161,8.264776 -1.3158,3.619385 -4.3038,5.711835 -2.9875,2.0927 -8.0016,2.0927 v 0 q -5.1067,0 -8.2652,-3.02708 -3.1456,-3.0135 -3.1456,-9.962625 v 0 -22.426406 h 6.0145 v 22.491926 q 0,3.15869 0.9085,4.86994 0.9209,1.72399 2.3817,2.381675 1.4613,0.65843 3.0667,0.65843 v 0 q 3.7904,0 6.0145,-1.460745 2.2112,-1.46115 3.1721,-3.975 0.974,-2.50028 0.974,-5.553896 z m 28.49364,-19.4126 v 4.54056 h -18.83364 v -4.54056 z m -12.5029,-8.44913 h 6.0146 v 34.613126 q 0,1.7899 0.5394,2.69842 0.5526,0.894945 1.4216,1.184185 0.8554,0.28966 1.8554,0.28966 v 0 q 0.737,0 1.5663,-0.13022 0.816,-0.11654 1.1977,-0.22369 v 0 l 0.04,4.79045 q -0.7109,0.22411 -1.856,0.43425 -1.1316,0.21058 -2.7504,0.21058 v 0 q -2.1846,0 -4.0141,-0.86853 -1.8294,-0.86828 -2.922,-2.90835 -1.092,-2.04002 -1.092,-5.514365 v 0 z m 57.6321,36.469006 V 56.113709 h 6.0145 v 49.353901 h -5.4882 z m -23.34787,-10.252156 v -0.67127 q 0,-5.30424 1.7112,-9.3048 1.724,-4.00098 4.8036,-6.2123 3.093,-2.21109 7.2387,-2.21109 v 0 q 4.3692,0 7.29127,2.00051 2.9214,2.0136 4.5798,5.71207 1.6453,3.68494 2.132,8.79145 v 0 3.11914 q -0.4867,5.054126 -2.1186,8.725926 -1.6453,3.684905 -4.5803,5.685405 -2.93497,2.01361 -7.37027,2.01361 v 0 q -4.0796,0 -7.1726,-2.30327 -3.0796,-2.28974 -4.8036,-6.277595 -1.7112,-3.9877 -1.7112,-9.067786 z m 6.0015,-0.67127 v 0.67127 q 0,3.47433 0.9475,6.330236 0.9479,2.86904 2.9745,4.57988 2.027,1.724405 5.2381,1.724405 v 0 q 2.9611,0 4.8696,-1.250595 1.90847,-1.25015 3.06647,-3.31616 1.1582,-2.05317 1.803,-4.461946 v 0 -7.80452 q -0.3947,-1.77681 -1.1186,-3.42169 -0.7109,-1.65842 -1.8555,-2.9614 -1.1451,-1.30283 -2.80337,-2.06629 -1.6453,-0.77633 -3.8955,-0.77633 v 0 q -3.2512,0 -5.2912,1.73751 -2.0396,1.73682 -2.9875,4.64542 -0.9475,2.90873 -0.9475,6.37021 z m 53.07867,11.726426 V 81.619729 q 0,-3.10602 -1.8425,-4.96146 -1.8559,-1.8426 -5.4487,-1.8426 v 0 q -2.2241,0 -3.909,0.76305 -1.6844,0.77675 -2.6189,2.0269 -0.9345,1.26372 -0.9345,2.73755 v 0 h -6.0015 q 0,-2.51384 1.6978,-4.86955 1.7109,-2.35567 4.8039,-3.8826 3.1057,-1.52669 7.3174,-1.52669 v 0 q 3.7905,0 6.7123,1.27658 2.9216,1.28968 4.5799,3.86949 1.6584,2.59294 1.6584,6.4753 v 0 16.201486 q 0,1.73683 0.3026,3.697795 0.3028,1.96094 0.9081,3.36927 v 0 0.51336 h -6.2648 q -0.4472,-1.02672 -0.6973,-2.75044 -0.2632,-1.71083 -0.2632,-3.198225 z m 1.0265,-15.135246 0.064,4.18515 h -5.975 q -5.0802,0 -7.8441,1.60577 -2.7633,1.60533 -2.7633,4.817126 v 0 q 0,2.51357 1.6973,4.23754 1.6848,1.737535 4.9226,1.737535 v 0 q 2.7373,0 4.8169,-1.158225 2.0926,-1.15863 3.3166,-2.85592 1.2237,-1.69796 1.3158,-3.27732 v 0 l 2.5668,2.8562 q -0.2241,1.35563 -1.2111,2.98739 -1,1.644895 -2.6584,3.132035 -1.6584,1.50052 -3.922,2.47429 -2.2636,0.98717 -5.0935,0.98717 v 0 q -3.527,0 -6.1857,-1.36877 -2.6454,-1.36877 -4.1062,-3.71134 -1.4608,-2.342805 -1.4608,-5.198735 v 0 q 0,-5.632996 4.2378,-8.541316 4.2381,-2.90858 11.4108,-2.90858 v 0 z m 20.268,-6.77808 v 27.861991 h -6.0016 V 70.696069 h 5.6859 z m -1.2107,9.13376 -2.8034,-0.10385 q 0.04,-4.75132 1.6318,-8.48864 1.5793,-3.75115 4.712,-5.92268 3.1456,-2.15865 7.8044,-2.15865 v 0 q 4.8825,0 8.0547,2.8562 3.1846,2.85589 3.1846,9.38357 v 0 23.163511 h -6.0146 V 82.594939 q 0,-2.73727 -0.9079,-4.39571 -0.9215,-1.6453 -2.5929,-2.40877 -1.6714,-0.74992 -3.9085,-0.74992 v 0 q -2.6063,0 -4.3568,0.9345 -1.7504,0.93448 -2.8164,2.56638 -1.0525,1.64476 -1.5262,3.75101 -0.4608,2.09243 -0.4608,4.44811 z m 22.5185,-3.27704 -4.014,1.21103 q 0.026,-3.79043 1.6188,-7.13369 1.5924,-3.32974 4.672,-5.40891 3.093,-2.06644 7.5282,-2.06644 v 0 q 3.7244,0 6.3303,1.31612 2.5929,1.31635 3.9485,4.08006 1.3552,2.76355 1.3552,7.15969 v 0 22.847411 h -6.0146 V 82.554249 q 0,-2.92188 -0.9209,-4.5539 -0.908,-1.64488 -2.5663,-2.303 -1.6584,-0.65797 -3.909,-0.65797 v 0 q -1.948,0 -3.4483,0.67126 -1.4872,0.68438 -2.5003,1.8557 -1.0135,1.17108 -1.5532,2.67176 -0.5264,1.51337 -0.5264,3.22424 z m 50.6435,12.779556 v 0 q 0,-1.27684 -0.5657,-2.39523 -0.5658,-1.105786 -2.2638,-2.013606 -1.7108,-0.92139 -5.146,-1.63246 v 0 q -3.856,-0.80276 -6.6725,-2.04002 -2.8033,-1.23702 -4.3302,-3.15844 -1.5268,-1.93454 -1.5268,-4.79045 v 0 q 0,-2.76396 1.5929,-5.0537 1.5922,-2.30326 4.5008,-3.69846 2.9089,-1.3952 6.7914,-1.3952 v 0 q 4.1717,0 7.1462,1.46073 2.9745,1.4614 4.5538,3.92216 1.5663,2.44805 1.5663,5.43572 v 0 h -6.0015 q 0,-2.14552 -1.882,-4.08006 -1.882,-1.92139 -5.3828,-1.92139 v 0 q -2.4482,0 -3.975,0.75033 -1.5263,0.7632 -2.2106,1.93452 -0.6979,1.17108 -0.6979,2.44765 v 0 q 0,1.29011 0.6448,2.23772 0.6448,0.94738 2.3692,1.68418 1.7109,0.73748 4.9882,1.48739 v 0 q 4.277,0.96093 7.041,2.30327 2.764,1.35565 4.1196,3.31661 1.3422,1.960946 1.3422,4.790436 v 0 q 0,3.01411 -1.6714,5.343795 -1.6713,2.32926 -4.6853,3.63222 -3.0271,1.30283 -7.1071,1.30283 v 0 q -4.593,0 -7.7781,-1.64487 -3.1716,-1.63201 -4.8169,-4.22469 -1.632,-2.579815 -1.632,-5.475285 v 0 h 6.0012 q 0.1563,2.44808 1.4347,3.86953 1.2636,1.434745 3.1191,2.040035 1.8425,0.61816 3.672,0.61816 v 0 q 2.4481,0 4.093,-0.6577 1.6584,-0.657985 2.5138,-1.803045 0.8554,-1.1451 0.8554,-2.59268 z"
     opacity="1"
     fill="#000000"
     class="undefined-text-1"
     data-fill-palette-color="secondary"
     id="text-1-9"
     style="fill:#000000;stroke-width:1.31607" />
  <path
     fill="#000000"
     d="m -196.06555,255.59743 -21.0177,-33.23944 c -0.704,-1.11766 -1.916,-1.69824 -3.2804,-1.68374 l -171.9452,10.13875 -48.8286,-121.72313 v -0.007 l -0.014,-0.029 c -0.1669,-0.42821 -0.479,-0.75479 -0.7839,-1.07414 -0.1014,-0.11608 -0.145,-0.2685 -0.2612,-0.36286 l -0.01,-0.007 v 0 l -89.4559,-74.301819 c -0.1015,-0.0871 -0.2395,-0.10167 -0.3484,-0.17424 -0.2612,-0.17426 -0.5298,-0.31933 -0.8419,-0.42819 -0.2103,-0.0726 -0.4136,-0.10886 -0.6313,-0.13787 -0.1525,-0.0216 -0.2904,-0.0943 -0.45,-0.0943 l -100.6982,-1.466 c -0.08,0 -0.145,0.029 -0.2178,0.029 -0.1524,0.007 -0.283,0.0364 -0.4354,0.0582 -1.3935,0.16684 -2.3878,1.05961 -2.7942,2.3079 -0.014,0.0436 -0.051,0.0797 -0.065,0.12327 l -2.3296,7.30106 -16.7794,-12.38133 v 0 l -0.2178,-0.15964 c -0.073,-0.0582 -0.1743,-0.0582 -0.2541,-0.10898 -0.3338,-0.21038 -0.6967,-0.37014 -1.0958,-0.45724 -0.1961,-0.0436 -0.3847,-0.0579 -0.5879,-0.0725 -0.1668,-0.007 -0.3193,-0.0726 -0.5008,-0.0582 l -117.3178,9.28962 c -1.8869,0.15247 -3.3384,1.72729 -3.3384,3.62151 v 46.927131 c 0,0.48626 0.1015,0.97251 0.2903,1.42248 l 10.5089,24.682828 c 0.2321,0.54432 0.6169,0.97976 1.0668,1.3499 0.1089,0.0872 0.2104,0.13787 0.3266,0.2104 0.2104,0.13787 0.3919,0.31207 0.6314,0.40642 l 73.6203,28.53658 11.9386,27.54955 -1.8724,5.87859 -43.683,14.55859 c -1.5314,0.50804 -2.5402,1.96679 -2.4748,3.5852 0.065,1.61118 1.1902,2.99012 2.7578,3.37476 l 37.6375,9.28236 c 0.2903,0.0726 0.5806,0.10167 0.8637,0.10886 h 0.01 v 0 0 h 0.01 c 0.2903,0 0.5878,-0.029 0.8781,-0.10886 l 46.1216,-11.64831 30.5324,-1.85067 46.7311,36.75207 -42.3331,44.53942 c -1.0305,1.08137 -1.2918,2.68528 -0.6604,4.03517 0.5951,1.28461 1.8797,2.09744 3.2876,2.09744 0.073,0 0.1453,0 0.2178,-0.007 l 137.2906,-8.31711 89.4562,8.31711 c 0.051,0 0.094,-0.0215 0.145,-0.0215 0.065,0.007 0.1161,0.0364 0.1815,0.0364 40.9977,0.15965 68.6126,0.22499 87.2426,0.22499 37.8335,0 38.5883,-0.254 39.0673,-0.41368 1.495,-0.49349 44.4087,-17.65754 52.9944,-21.09036 1.0015,-0.39914 1.7708,-1.22652 2.1046,-2.25709 0.3339,-1.03058 0.1961,-2.14822 -0.3846,-3.06266 z m -26.0109,-27.54954 6.1399,9.70331 -168.3528,13.05628 -5.1673,-12.88938 z m -471.6881,-91.66248 -61.0938,-23.68131 27.281,-7.49703 36.7376,-4.7682 6.7204,2.56194 z m 11.6628,-40.395378 -7.0107,-2.67076 c -0.5589,-0.21039 -1.1685,-0.28306 -1.7564,-0.20321 l -36.3529,4.75366 -25.423,-55.650661 88.099,-6.97449 z m -91.198,-52.138031 12.9547,-1.02332 25.9311,56.753831 -29.9082,8.186458 -8.9776,-21.090328 z m 85.7694,97.098389 14.9832,-51.862248 14.9831,-51.862271 14.7763,10.90807 -36.0263,112.934279 z m 0.7548,45.06194 -4.594,14.39167 -22.1717,-5.47218 z m 47.1013,-123.769779 -6.3213,127.913819 -37.5069,9.47108 z m 8.455,-23.92804 91.452,1.33537 -72.7929,147.915559 -26.1125,1.58214 z m 25.5393,151.711219 17.95238,-36.4801 54.97112,-111.703959 82.9317,68.881129 -109.8135,115.51072 z m 156.0294,-68.96096 -20.0598,145.74552 -125.6785,7.57685 96.1174,-101.11923 z m -12.766,145.96327 19.6244,-142.56675 60.1503,149.94038 z m 210.0182,7.93971 c -3.578,0.31932 -74.1138,0.16684 -122.2094,-0.0215 l -6.8439,-17.07694 169.9059,-13.1724 7.018,11.09676 c -20.1179,8.04132 -47.1086,18.81874 -47.8706,19.17436 z"
     data-fill-palette-color="accent"
     id="path6-0"
     style="fill:#000000;stroke:#000000;stroke-width:4.93941;stroke-dasharray:none;stroke-opacity:1;paint-order:stroke markers fill"
     sodipodi:nodetypes="ccccccccccccsccccccsccccccccccssccccccccccccccccsccccccscccccsccsccccccccccccccccccccccccccccccccccccccccccccccccccccccccccccccccccc" />
  <path
     d="m -1352.1287,221.98535 h -22.6316 l -0.1254,-15.48871 h 18.2958 q 7.1428,0 10.025,-2.18045 2.8822,-2.15539 2.8822,-6.5163 v 0 q 0,-5.13785 -3.0075,-7.29324 -2.9824,-2.18044 -9.7243,-2.18044 v 0 h -9.6742 v 70.55138 h -23.0075 v -89.09775 h 32.6817 q 16.7669,0 26.2156,6.16541 9.4736,6.14035 9.4736,18.69675 v 0 q 0,5.43859 -2.3308,10.30076 -2.3308,4.86214 -7.8697,7.86967 -5.5388,2.98245 -15.213,2.93232 v 0 z m -0.8521,36.89224 h -27.3434 l 7.8196,-18.47117 h 19.5238 q 6.1654,0 8.6215,-2.58146 2.4562,-2.55639 2.4562,-5.93985 v 0 q 0,-3.10778 -1.0025,-5.31329 -1.0276,-2.20551 -3.2582,-3.40852 -2.2306,-1.17795 -5.9649,-1.17795 v 0 h -18.3459 l 0.1254,-15.48871 h 21.6542 l 5.3884,6.31579 q 9.2231,-0.62657 14.5113,2.23058 5.3133,2.83208 7.5439,7.51878 2.2306,4.68673 2.2306,9.69926 v 0 q 0,13.28322 -8.5715,19.94987 -8.5714,6.66667 -25.3884,6.66667 z m 78.1203,-17.7945 v -25.71428 q 0,-3.65914 -1.5539,-5.8396 -1.5539,-2.18045 -5.3634,-2.18045 v 0 q -2.005,0 -3.3835,0.62656 -1.3784,0.60151 -2.0802,1.9549 -0.7017,1.35338 -0.7017,3.60901 v 0 h -22.0301 q 0,-6.49121 3.609,-11.45361 3.609,-4.93737 10.2256,-7.79449 6.5915,-2.83208 15.5388,-2.83208 v 0 q 7.9449,0 14.2607,2.65664 6.2907,2.65664 9.9749,8.02004 3.6592,5.33834 3.6592,13.3584 v 0 26.14034 q 0,7.14287 0.7769,10.40101 0.7519,3.23308 2.1053,5.73935 v 0 1.10276 h -22.0301 q -1.5288,-3.23308 -2.2556,-7.94486 -0.7519,-4.71179 -0.7519,-9.84964 z m 2.6315,-22.90726 0.1253,12.00502 h -8.4963 q -5.213,0 -7.0426,2.80702 -1.8295,2.83207 -1.8295,5.93984 v 0 q 0,2.25564 1.6792,3.63409 1.6792,1.37844 4.1854,1.37844 v 0 q 3.1329,0 5.2882,-1.12782 2.1805,-1.12782 3.2832,-2.65664 1.1028,-1.52881 0.9274,-2.6817 v 0 l 4.7117,9.22305 q -1.228,2.38095 -2.7318,4.73685 -1.5037,2.35589 -3.7092,4.31077 -2.2056,1.97996 -5.3885,3.1579 -3.183,1.20302 -7.6943,1.20302 v 0 q -6.0651,0 -11.228,-2.50628 -5.1629,-2.50626 -8.2958,-7.04259 -3.1328,-4.53635 -3.1328,-10.52634 v 0 q 0,-10.22556 7.5439,-16.04009 7.5188,-5.81454 23.609,-5.81454 v 0 z m 52.381,-7.81955 v 48.52131 h -22.0301 v -66.21555 h 20.5514 z m 19.0977,-18.17043 -0.3759,21.52883 q -1.2782,-0.12539 -3.4586,-0.30074 -2.1805,-0.17545 -3.5088,-0.17545 v 0 q -4.6617,0 -7.5689,1.17795 -2.9073,1.20301 -4.1855,3.70926 -1.2782,2.50628 -1.2281,6.61654 v 0 l -3.8596,-3.30826 q 0,-8.9975 2.2807,-15.76442 2.2556,-6.76691 6.391,-10.50124 4.1353,-3.70927 9.6992,-3.70927 v 0 q 1.5288,0 3.0827,0.15036 1.5539,0.15039 2.7318,0.57644 z m 28.8722,18.17043 v 48.52131 h -22.03 v -66.21555 h 20.5513 z m 19.0727,-18.17043 -0.3509,21.52883 q -1.2782,-0.12539 -3.4586,-0.30074 -2.1805,-0.17545 -3.5338,-0.17545 v 0 q -4.6366,0 -7.5439,1.17795 -2.9073,1.20301 -4.1855,3.70926 -1.3032,2.50628 -1.228,6.61654 v 0 l -3.8597,-3.30826 q 0,-8.9975 2.2557,-15.76442 2.2807,-6.76691 6.416,-10.50124 4.1103,-3.70927 9.6742,-3.70927 v 0 q 1.5539,0 3.1077,0.15036 1.5539,0.15039 2.7068,0.57644 z m 40.9273,48.89724 v -25.71428 q 0,-3.65914 -1.5539,-5.8396 -1.5539,-2.18045 -5.3383,-2.18045 v 0 q -2.0301,0 -3.4086,0.62656 -1.3784,0.60151 -2.0802,1.9549 -0.7017,1.35338 -0.7017,3.60901 v 0 h -22.03 q 0,-6.49121 3.609,-11.45361 3.609,-4.93737 10.2255,-7.79449 6.6165,-2.83208 15.5388,-2.83208 v 0 q 7.9449,0 14.2607,2.65664 6.2907,2.65664 9.9749,8.02004 3.6592,5.33834 3.6592,13.3584 v 0 26.14034 q 0,7.14287 0.7769,10.40101 0.7519,3.23308 2.1053,5.73935 v 0 1.10276 h -22.0301 q -1.5288,-3.23308 -2.2556,-7.94486 -0.7519,-4.71179 -0.7519,-9.84964 z m 2.6316,-22.90726 0.1254,12.00502 h -8.4963 q -5.213,0 -7.0426,2.80702 -1.8296,2.83207 -1.8296,5.93984 v 0 q 0,2.25564 1.6792,3.63409 1.6792,1.37844 4.1855,1.37844 v 0 q 3.1328,0 5.3133,-1.12782 2.1554,-1.12782 3.2581,-2.65664 1.1028,-1.52881 0.9273,-2.6817 v 0 l 4.7118,9.22305 q -1.228,2.38095 -2.7318,4.73685 -1.5038,2.35589 -3.7093,4.31077 -2.1804,1.97996 -5.3634,3.1579 -3.183,1.20302 -7.7193,1.20302 v 0 q -6.0651,0 -11.228,-2.50628 -5.1629,-2.50626 -8.2958,-7.04259 -3.1077,-4.53635 -3.1077,-10.52634 v 0 q 0,-10.22556 7.5188,-16.04009 7.5188,-5.81454 23.6089,-5.81454 v 0 z m 71.5288,-25.51379 h 20.0251 v 63.33334 q 0,9.29824 -4.3359,15.76442 -4.3107,6.4411 -12.0802,9.79951 -7.7694,3.33332 -18.0451,3.33332 v 0 q -4.411,0 -9.0977,-1.10275 -4.6617,-1.10276 -8.797,-3.25817 -4.1354,-2.13031 -6.8923,-5.18795 v 0 l 9.173,-13.65915 q 2.3308,2.40602 6.0902,4.31077 3.7845,1.92983 8.797,1.92983 v 0 q 6.3659,0 9.6992,-3.20803 3.3334,-3.20802 3.3334,-8.97243 v 0 -47.16792 z m -43.7343,33.90978 v -1.2782 q 0,-10.05012 3.2832,-17.66916 3.3083,-7.61906 9.4737,-11.90476 6.1403,-4.26065 14.5864,-4.26065 v 0 q 6.9173,0 11.2782,2.70676 4.386,2.73183 6.9925,7.56892 2.5815,4.8371 4.0351,11.22807 1.4286,6.39097 2.4812,13.73434 v 0 -0.72683 q -1.4035,9.04762 -4.1604,16.84211 -2.7569,7.79449 -7.7444,12.55639 -4.9874,4.73686 -13.0075,4.73686 v 0 q -8.3709,0 -14.5113,-4.38598 -6.1152,-4.3609 -9.4235,-11.95488 -3.2832,-7.59399 -3.2832,-17.19299 z m 22.0802,-1.2782 v 1.2782 q 0,4.46115 1.203,8.04512 1.1779,3.58396 3.5589,5.66416 2.406,2.0802 6.0651,2.0802 v 0 q 4.2356,0 6.792,-1.77946 2.5815,-1.77945 3.6842,-5.13784 1.1028,-3.3584 0.777,-8.07017 v 0 -2.08021 q 0.2005,-4.23558 -0.401,-7.29323 -0.5765,-3.05764 -1.9549,-4.98747 -1.3785,-1.92981 -3.5339,-2.88221 -2.1804,-0.92731 -5.2381,-0.92731 v 0 q -3.5589,0 -5.9899,2.0802 -2.4562,2.08021 -3.7093,5.68922 -1.2531,3.60903 -1.2531,8.3208 z m 75.86464,-32.63158 v 66.21555 h -22.08024 v -66.21555 z m -23.30824,-16.76692 v 0 q 0,-4.88721 3.3584,-7.94486 3.3583,-3.05763 8.74684,-3.05763 v 0 q 5.4637,0 8.797,3.05763 3.3334,3.05765 3.3334,7.94486 v 0 q 0,4.83711 -3.3334,7.94487 -3.3333,3.08272 -8.797,3.08272 v 0 q -5.38854,0 -8.74684,-3.08272 -3.3584,-3.10776 -3.3584,-7.94487 z m 69.44864,64.08522 v 0 q 0,-1.52882 -1.0777,-2.50626 -1.0777,-1.0025 -3.7594,-1.8797 -2.7068,-0.87719 -7.594,-1.92982 v 0 q -6.3659,-1.40351 -11.6792,-4.01002 -5.3383,-2.60654 -8.4712,-6.76692 -3.1579,-4.16041 -3.1579,-10.02506 v 0 q 0,-5.68923 3.2331,-10.57646 3.2582,-4.91228 9.4236,-7.86967 6.1905,-2.95738 14.9874,-2.95738 v 0 q 9.0727,0 15.6642,2.73182 6.6165,2.75689 10.2005,7.66917 3.584,4.88721 3.584,11.42857 v 0 h -22.0301 q 0,-3.60902 -1.6541,-5.26316 -1.6542,-1.65413 -5.8146,-1.65413 v 0 q -1.7042,0 -3.2832,0.62657 -1.5539,0.60151 -2.5063,1.75438 -0.9523,1.17795 -0.9523,2.9574 v 0 q 0,1.52882 1.1528,2.70677 1.1279,1.20301 3.3835,2.05513 2.2556,0.85214 5.7644,1.40352 v 0 q 6.5414,1.10275 12.4311,3.30827 5.9148,2.20551 9.6491,6.49122 3.7344,4.28572 3.7344,11.67921 v 0 q 0,5.88972 -3.584,10.6015 -3.584,4.71177 -10.2005,7.41855 -6.5915,2.73183 -15.589,2.73183 v 0 q -9.6742,0 -16.2907,-3.48371 -6.5915,-3.48372 -10,-8.79701 -3.3835,-5.28821 -3.3835,-10.6015 v 0 h 20.5514 q 0.1254,2.63159 1.3283,4.36091 1.178,1.75438 3.3334,2.63158 2.1303,0.90224 5.0626,0.90224 v 0 q 2.5063,0 4.1604,-0.62656 1.6542,-0.6015 2.5063,-1.77944 0.8772,-1.15288 0.8772,-2.73184 z m 66.1403,-47.3183 v 15.91479 h -40.7017 v -15.91479 z m -32.6315,-16.44109 h 22.03 v 59.82455 q 0,2.33084 0.5514,3.65916 0.5514,1.30326 1.98,1.85464 1.4536,0.55138 3.9599,0.55138 v 0 q 1.7042,0 2.8822,-0.0501 1.1528,-0.0752 2.1303,-0.25063 v 0 l -0.05,16.39098 q -2.8321,0.97744 -5.6892,1.45362 -2.8822,0.45114 -6.3158,0.45114 v 0 q -6.8421,0 -11.6542,-2.18046 -4.812,-2.18045 -7.3183,-6.79197 -2.5062,-4.61153 -2.5062,-11.90476 v 0 z m 73.7844,64.86214 v -25.71428 q 0,-3.65914 -1.5539,-5.8396 -1.5538,-2.18045 -5.3634,-2.18045 v 0 q -2.005,0 -3.3834,0.62656 -1.3785,0.60151 -2.0802,1.9549 -0.7018,1.35338 -0.7018,3.60901 v 0 h -22.0301 q 0,-6.49121 3.6091,-11.45361 3.609,-4.93737 10.2255,-7.79449 6.5915,-2.83208 15.5389,-2.83208 v 0 q 7.9448,0 14.2606,2.65664 6.2908,2.65664 9.975,8.02004 3.6591,5.33834 3.6591,13.3584 v 0 26.14034 q 0,7.14287 0.777,10.40101 0.7518,3.23308 2.1052,5.73935 v 0 1.10276 h -22.0301 q -1.5288,-3.23308 -2.2556,-7.94486 -0.7519,-4.71179 -0.7519,-9.84964 z m 2.6316,-22.90726 0.1252,12.00502 h -8.4962 q -5.213,0 -7.0426,2.80702 -1.8296,2.83207 -1.8296,5.93984 v 0 q 0,2.25564 1.6792,3.63409 1.6792,1.37844 4.1855,1.37844 v 0 q 3.1328,0 5.2882,-1.12782 2.1804,-1.12782 3.2832,-2.65664 1.1028,-1.52881 0.9273,-2.6817 v 0 l 4.7118,9.22305 q -1.2281,2.38095 -2.7318,4.73685 -1.5038,2.35589 -3.7093,4.31077 -2.2055,1.97996 -5.3885,3.1579 -3.1829,1.20302 -7.6942,1.20302 v 0 q -6.0652,0 -11.2281,-2.50628 -5.1629,-2.50626 -8.2957,-7.04259 -3.1078,-4.53635 -3.1078,-10.52634 v 0 q 0,-10.22556 7.5188,-16.04009 7.5188,-5.81454 23.609,-5.81454 v 0 z"
     opacity="1"
     fill="#000000"
     class="undefined-text-0"
     data-fill-palette-color="primary"
     id="text-0-2"
     style="fill:#000000;stroke-width:2.50628" />
  <path
     fill="#000000"
     d="m 601.96814,962.77691 -21.01776,-33.23947 c -0.70401,-1.11766 -1.91601,-1.69824 -3.2804,-1.68374 l -171.9452,10.13875 -48.82862,-121.72313 v -0.007 l -0.0143,-0.029 c -0.16683,-0.42821 -0.47901,-0.75479 -0.78383,-1.07414 -0.10144,-0.11608 -0.14505,-0.2685 -0.26125,-0.36286 l -0.007,-0.007 v 0 l -89.4559,-74.30181 c -0.10145,-0.0871 -0.23947,-0.10167 -0.34836,-0.17424 -0.26125,-0.17426 -0.52979,-0.31933 -0.84188,-0.42819 -0.21038,-0.0726 -0.41367,-0.10886 -0.63139,-0.13787 -0.15246,-0.0216 -0.29031,-0.0943 -0.44996,-0.0943 l -100.69815,-1.466 c -0.0796,0 -0.14505,0.029 -0.21781,0.029 -0.15247,0.007 -0.28306,0.0364 -0.43547,0.0582 -1.39342,0.16684 -2.38772,1.05961 -2.79414,2.3079 -0.0143,0.0436 -0.0508,0.0797 -0.0654,0.12327 l -2.32965,7.30106 -16.77938,-12.38133 v 0 l -0.21782,-0.15964 c -0.0726,-0.0582 -0.17425,-0.0582 -0.25404,-0.10898 -0.33381,-0.21038 -0.69671,-0.37014 -1.09586,-0.45724 -0.19604,-0.0436 -0.38464,-0.0579 -0.58785,-0.0725 -0.16684,-0.007 -0.31934,-0.0726 -0.50079,-0.0582 l -117.317807,9.28962 c -1.88697,0.15247 -3.33845,1.72729 -3.33845,3.62151 v 46.92712 c 0,0.48626 0.10148,0.97251 0.29029,1.42248 l 10.5089,24.68283 c 0.23217,0.54432 0.61689,0.97976 1.06686,1.3499 0.1089,0.0872 0.21039,0.13787 0.32658,0.2104 0.21039,0.13787 0.39189,0.31207 0.63139,0.40642 l 73.620297,28.53658 11.93862,27.54955 -1.87244,5.87859 -43.682997,14.55859 c -1.53136,0.50804 -2.54014,1.96679 -2.47483,3.5852 0.0654,1.61118 1.19022,2.99012 2.75786,3.37476 l 37.637507,9.28236 c 0.29028,0.0726 0.5806,0.10167 0.86365,0.10886 h 0.008 v 0 0 h 0.007 c 0.2903,0 0.58785,-0.029 0.87817,-0.10886 l 46.12155,-11.64831 30.53237,-1.85067 46.73119,36.75207 -42.33313,44.53946 c -1.03056,1.0813 -1.29184,2.6852 -0.66044,4.0351 0.59514,1.2846 1.87972,2.0975 3.28766,2.0975 0.0726,0 0.14529,0 0.21781,-0.01 l 137.29052,-8.3171 89.45622,8.3171 c 0.0508,0 0.0943,-0.022 0.14506,-0.022 0.0654,0.01 0.11608,0.036 0.18143,0.036 40.99772,0.1596 68.61259,0.225 87.24264,0.225 37.83347,0 38.58826,-0.254 39.06726,-0.4137 1.49504,-0.4935 44.40875,-17.6576 52.99442,-21.0904 1.00154,-0.3991 1.77083,-1.2265 2.10465,-2.2571 0.33386,-1.0305 0.19604,-2.1482 -0.38464,-3.0626 z m -26.01096,-27.54957 6.13988,9.70331 -168.35274,13.05626 -5.16734,-12.88936 z m -471.68806,-91.66248 -61.093817,-23.68131 27.28101,-7.49703 36.737567,-4.7682 6.72045,2.56194 z m 11.66282,-40.39538 -7.01076,-2.67076 c -0.55884,-0.21039 -1.16847,-0.28306 -1.75634,-0.20321 l -36.352917,4.75366 -25.42308,-55.65065 88.099037,-6.97449 z m -91.197997,-52.13802 12.95466,-1.02332 25.93114,56.75382 -29.90826,8.18646 -8.97754,-21.09033 z m 85.769377,97.09838 14.98315,-51.86225 14.98314,-51.86226 14.77631,10.90807 -36.02631,112.93427 z m 0.75478,45.06194 -4.59401,14.39167 -22.171727,-5.47218 z m 47.1013,-123.76977 -6.32131,127.91381 -37.50687,9.47108 z m 8.45502,-23.92804 91.45202,1.33537 -72.79293,147.91555 -26.11256,1.58214 z m 25.53922,151.71121 72.92358,-148.18405 82.9317,68.88112 -109.81356,115.51072 z m 156.02945,-68.96096 -20.05979,145.74549 -125.6785,7.5769 96.11738,-101.11925 z m -12.76598,145.96329 19.62434,-142.56677 60.15033,149.94037 z m 210.01815,7.9397 c -3.57794,0.3193 -74.11379,0.1668 -122.2094,-0.022 l -6.84385,-17.0769 169.90585,-13.1724 7.01802,11.0967 c -20.11786,8.0413 -47.10857,18.8188 -47.87062,19.1744 z"
     data-fill-palette-color="accent"
     id="path6-1"
     style="fill:#000000;stroke:#000000;stroke-width:4.93941;stroke-dasharray:none;stroke-opacity:1;paint-order:stroke markers fill"
     sodipodi:nodetypes="ccccccccccccsccccccsccccccccccssccccccccccccccccsccccccscccccsccscccccccccccccccccccccccccccccccccccccccccccccccccccccccccccccccccc" />
  <path
     d="m 54.937353,1093.1649 h -22.63158 l -0.12539,-15.4888 h 18.29575 q 7.14285,0 10.02506,-2.1804 2.88221,-2.1554 2.88221,-6.5163 v 0 q 0,-5.1379 -3.00751,-7.2932 -2.98246,-2.1805 -9.72432,-2.1805 v 0 h -9.67419 v 70.5514 h -23.00751 v -89.0978 h 32.6817 q 16.76692,0 26.21554,6.1655 9.47368,6.1403 9.47368,18.6967 v 0 q 0,5.4386 -2.33082,10.3008 -2.33083,4.8621 -7.86967,7.8696 -5.53886,2.9825 -15.21303,2.9324 v 0 z m -0.85212,36.8922 h -27.34337 l 7.81955,-18.4712 h 19.52382 q 6.16541,0 8.62155,-2.5814 2.45614,-2.5564 2.45614,-5.9399 v 0 q 0,-3.1078 -1.0025,-5.3133 -1.02757,-2.2055 -3.25814,-3.4085 -2.23058,-1.1779 -5.96493,-1.1779 v 0 h -18.34586 l 0.1254,-15.4888 h 21.65412 l 5.38848,6.3158 q 9.22305,-0.6265 14.51128,2.2306 5.31327,2.8321 7.54387,7.5188 2.23057,4.6867 2.23057,9.6993 v 0 q 0,13.2832 -8.57143,19.9498 -8.57143,6.6667 -25.38847,6.6667 z m 78.120297,-17.7945 v -25.7143 q 0,-3.6591 -1.55389,-5.8396 -1.5539,-2.1804 -5.36341,-2.1804 v 0 q -2.00501,0 -3.38346,0.6265 -1.37844,0.6015 -2.0802,1.9549 -0.70176,1.3534 -0.70176,3.609 v 0 H 97.092753 q 0,-6.4912 3.609017,-11.4536 3.60901,-4.9373 10.22557,-7.7945 6.59147,-2.832 15.53883,-2.832 v 0 q 7.94487,0 14.26066,2.6566 6.29073,2.6566 9.97494,8.02 3.65915,5.3384 3.65915,13.3584 v 0 26.1404 q 0,7.1428 0.77693,10.401 0.75189,3.2331 2.10528,5.7393 v 0 1.1028 h -22.03008 q -1.52883,-3.2331 -2.25564,-7.9449 -0.75188,-4.7118 -0.75188,-9.8496 z m 2.63157,-22.9073 0.12524,12.0051 h -8.49624 q -5.21304,0 -7.0426,2.807 -1.82958,2.832 -1.82958,5.9398 v 0 q 0,2.2557 1.6792,3.6341 1.6792,1.3784 4.18547,1.3784 v 0 q 3.13283,0 5.28821,-1.1278 2.18046,-1.1278 3.2832,-2.6566 1.10276,-1.5288 0.92734,-2.6817 v 0 l 4.71176,9.223 q -1.22806,2.381 -2.73183,4.7369 -1.50375,2.3559 -3.70926,4.3108 -2.20551,1.9799 -5.38848,3.1579 -3.18295,1.203 -7.69423,1.203 v 0 q -6.06515,0 -11.22807,-2.5063 -5.1629,-2.5063 -8.295727,-7.0426 -3.13284,-4.5363 -3.13284,-10.5263 v 0 q 0,-10.2256 7.543867,-16.0401 7.51879,-5.8146 23.60902,-5.8146 v 0 z m 52.38095,-7.8195 v 48.5213 h -22.03007 v -66.2156 h 20.55139 z m 19.09775,-18.1704 -0.37594,21.5288 q -1.2782,-0.1254 -3.45865,-0.3008 -2.18044,-0.1754 -3.50877,-0.1754 v 0 q -4.66165,0 -7.56892,1.1779 -2.90727,1.2031 -4.18547,3.7093 -1.27819,2.5063 -1.22806,6.6165 v 0 l -3.85966,-3.3082 q 0,-8.9975 2.28071,-15.7644 2.25564,-6.767 6.39098,-10.5013 4.13533,-3.7092 9.69925,-3.7092 v 0 q 1.52882,0 3.0827,0.1503 1.55388,0.1504 2.73183,0.5765 z m 28.87219,18.1704 v 48.5213 h -22.03008 v -66.2156 h 20.55138 z m 19.07268,-18.1704 -0.35088,21.5288 q -1.2782,-0.1254 -3.45865,-0.3008 -2.18045,-0.1754 -3.53383,-0.1754 v 0 q -4.6366,0 -7.54386,1.1779 -2.90727,1.2031 -4.18546,3.7093 -1.30327,2.5063 -1.22808,6.6165 v 0 l -3.85965,-3.3082 q 0,-8.9975 2.25565,-15.7644 2.2807,-6.767 6.41604,-10.5013 4.11027,-3.7092 9.67417,-3.7092 v 0 q 1.5539,0 3.10778,0.1503 1.55388,0.1504 2.70677,0.5765 z m 40.92731,48.8972 v -25.7143 q 0,-3.6591 -1.55388,-5.8396 -1.55388,-2.1804 -5.33834,-2.1804 v 0 q -2.03008,0 -3.40852,0.6265 -1.37846,0.6015 -2.08021,1.9549 -0.70174,1.3534 -0.70174,3.609 v 0 h -22.03008 q 0,-6.4912 3.60901,-11.4536 3.60903,-4.9373 10.22557,-7.7945 6.61654,-2.832 15.53885,-2.832 v 0 q 7.94487,0 14.26064,2.6566 6.29073,2.6566 9.97496,8.02 3.65914,5.3384 3.65914,13.3584 v 0 26.1404 q 0,7.1428 0.77694,10.401 0.75187,3.2331 2.10526,5.7393 v 0 1.1028 H 298.1955 q -1.52881,-3.2331 -2.25563,-7.9449 -0.75189,-4.7118 -0.75189,-9.8496 z m 2.63158,-22.9073 0.1254,12.0051 h -8.49624 q -5.21304,0 -7.04262,2.807 -1.82958,2.832 -1.82958,5.9398 v 0 q 0,2.2557 1.6792,3.6341 1.6792,1.3784 4.18547,1.3784 v 0 q 3.13282,0 5.31329,-1.1278 2.15539,-1.1278 3.25815,-2.6566 1.10275,-1.5288 0.9273,-2.6817 v 0 l 4.7118,9.223 q -1.22808,2.381 -2.73183,4.7369 -1.50377,2.3559 -3.70929,4.3108 -2.18045,1.9799 -5.3634,3.1579 -3.18297,1.203 -7.71931,1.203 v 0 q -6.06516,0 -11.22806,-2.5063 -5.1629,-2.5063 -8.29574,-7.0426 -3.10776,-4.5363 -3.10776,-10.5263 v 0 q 0,-10.2256 7.51878,-16.0401 7.51881,-5.8146 23.60902,-5.8146 v 0 z m 71.52883,-25.5138 h 20.02506 v 63.3334 q 0,9.2982 -4.33584,15.7644 -4.31077,6.4411 -12.0802,9.7995 -7.76942,3.3333 -18.04512,3.3333 v 0 q -4.41102,0 -9.09773,-1.1027 -4.66166,-1.1028 -8.79701,-3.2582 -4.13532,-2.1303 -6.89223,-5.1879 v 0 l 9.17294,-13.6592 q 2.33083,2.406 6.09023,4.3108 3.78447,1.9298 8.797,1.9298 v 0 q 6.36591,0 9.69923,-3.208 3.33335,-3.208 3.33335,-8.9724 v 0 -47.168 z m -43.73435,33.9098 v -1.2782 q 0,-10.0501 3.28323,-17.6691 3.30827,-7.6191 9.47368,-11.9048 6.14035,-4.2606 14.58646,-4.2606 v 0 q 6.9173,0 11.2782,2.7067 4.38596,2.7318 6.99247,7.5689 2.58147,4.8371 4.03509,11.2281 1.42859,6.391 2.48122,13.7343 v 0 -0.7268 q -1.40352,9.0476 -4.16042,16.8421 -2.75688,7.7945 -7.74435,12.5564 -4.98747,4.7369 -13.00752,4.7369 v 0 q -8.37093,0 -14.51127,-4.386 -6.11529,-4.3609 -9.42356,-11.9549 -3.28323,-7.594 -3.28323,-17.193 z m 22.08021,-1.2782 v 1.2782 q 0,4.4612 1.20301,8.0451 1.17795,3.584 3.5589,5.6642 2.40601,2.0802 6.06516,2.0802 v 0 q 4.23558,0 6.79199,-1.7795 2.58144,-1.7794 3.6842,-5.1378 1.10276,-3.3584 0.77695,-8.0702 v 0 -2.0802 q 0.2005,-4.2356 -0.40101,-7.2932 -0.57644,-3.0576 -1.95488,-4.9875 -1.37844,-1.9298 -3.53385,-2.8822 -2.18045,-0.9273 -5.23808,-0.9273 v 0 q -3.55891,0 -5.98999,2.0802 -2.45612,2.0802 -3.70927,5.6892 -1.25313,3.6091 -1.25313,8.3208 z m 75.86468,-32.6316 v 66.2156 h -22.08021 v -66.2156 z m -23.30828,-16.7669 v 0 q 0,-4.8872 3.35839,-7.9448 3.3584,-3.0577 8.74686,-3.0577 v 0 q 5.46367,0 8.79701,3.0577 3.33333,3.0576 3.33333,7.9448 v 0 q 0,4.8371 -3.33333,7.9449 -3.33334,3.0827 -8.79701,3.0827 v 0 q -5.38846,0 -8.74686,-3.0827 -3.35839,-3.1078 -3.35839,-7.9449 z m 69.44863,64.0852 v 0 q 0,-1.5288 -1.07771,-2.5062 -1.07769,-1.0025 -3.75939,-1.8797 -2.70677,-0.8772 -7.59399,-1.9298 v 0 q -6.36591,-1.4035 -11.6792,-4.0101 -5.33834,-2.6065 -8.47118,-6.7669 -3.15789,-4.1604 -3.15789,-10.025 v 0 q 0,-5.6893 3.23308,-10.5765 3.25816,-4.9123 9.42357,-7.8697 6.19047,-2.9573 14.98746,-2.9573 v 0 q 9.07269,0 15.66416,2.7318 6.61654,2.7569 10.2005,7.6691 3.58397,4.8873 3.58397,11.4286 v 0 h -22.03008 q 0,-3.609 -1.65413,-5.2631 -1.65413,-1.6542 -5.81455,-1.6542 v 0 q -1.70425,0 -3.2832,0.6266 -1.55388,0.6015 -2.50627,1.7544 -0.95237,1.1779 -0.95237,2.9574 v 0 q 0,1.5288 1.15287,2.7067 1.12782,1.2031 3.38347,2.0552 2.25563,0.8521 5.76441,1.4035 v 0 q 6.54135,1.1027 12.43108,3.3083 5.91478,2.2055 9.64912,6.4912 3.73433,4.2857 3.73433,11.6792 v 0 q 0,5.8897 -3.58396,10.6015 -3.58396,4.7118 -10.20051,7.4185 -6.59147,2.7319 -15.58897,2.7319 v 0 q -9.67418,0 -16.29072,-3.4837 -6.59147,-3.4838 -9.99999,-8.797 -3.38347,-5.2883 -3.38347,-10.6015 v 0 h 20.55138 q 0.12539,2.6315 1.32833,4.3609 1.17794,1.7543 3.33332,2.6315 2.13033,0.9023 5.06266,0.9023 v 0 q 2.50628,0 4.16041,-0.6266 1.65413,-0.6015 2.50626,-1.7794 0.8772,-1.1529 0.8772,-2.7319 z m 66.14034,-47.3183 v 15.9148 h -40.70175 v -15.9148 z m -32.63158,-16.441 h 22.03008 v 59.8245 q 0,2.3308 0.55138,3.6592 0.55138,1.3032 1.97994,1.8546 1.45365,0.5514 3.9599,0.5514 v 0 q 1.70426,0 2.88221,-0.05 1.15288,-0.075 2.13033,-0.2506 v 0 l -0.0501,16.3909 q -2.83208,0.9775 -5.68922,1.4537 -2.88221,0.4511 -6.3158,0.4511 v 0 q -6.8421,0 -11.65413,-2.1805 -4.81204,-2.1804 -7.3183,-6.7919 -2.50627,-4.6116 -2.50627,-11.9048 v 0 z m 73.78447,64.8621 v -25.7143 q 0,-3.6591 -1.55389,-5.8396 -1.55388,-2.1804 -5.36341,-2.1804 v 0 q -2.00501,0 -3.38346,0.6265 -1.37843,0.6015 -2.0802,1.9549 -0.70175,1.3534 -0.70175,3.609 v 0 h -22.03008 q 0,-6.4912 3.60902,-11.4536 3.60904,-4.9373 10.22558,-7.7945 6.59147,-2.832 15.53883,-2.832 v 0 q 7.94487,0 14.26066,2.6566 6.29074,2.6566 9.97494,8.02 3.65915,5.3384 3.65915,13.3584 v 0 26.1404 q 0,7.1428 0.77694,10.401 0.75188,3.2331 2.10527,5.7393 v 0 1.1028 h -22.03008 q -1.52883,-3.2331 -2.25563,-7.9449 -0.75189,-4.7118 -0.75189,-9.8496 z m 2.63158,-22.9073 0.12523,12.0051 h -8.49624 q -5.21302,0 -7.0426,2.807 -1.82957,2.832 -1.82957,5.9398 v 0 q 0,2.2557 1.67919,3.6341 1.6792,1.3784 4.18548,1.3784 v 0 q 3.13282,0 5.28821,-1.1278 2.18044,-1.1278 3.2832,-2.6566 1.10276,-1.5288 0.92733,-2.6817 v 0 l 4.71177,9.223 q -1.22806,2.381 -2.73183,4.7369 -1.50375,2.3559 -3.70927,4.3108 -2.2055,1.9799 -5.38847,3.1579 -3.18295,1.203 -7.69423,1.203 v 0 q -6.06516,0 -11.22808,-2.5063 -5.1629,-2.5063 -8.29574,-7.0426 -3.10777,-4.5363 -3.10777,-10.5263 v 0 q 0,-10.2256 7.51881,-16.0401 7.51879,-5.8146 23.60902,-5.8146 v 0 z"
     opacity="1"
     fill="#000000"
     class="undefined-text-0"
     data-fill-palette-color="primary"
     id="text-0-0"
     style="fill:#000000;stroke-width:2.50628" />
</svg>
